<?xml version="1.0" encoding="UTF-8"?>
<svg version="1.1" xmlns="http://www.w3.org/2000/svg" width="800" height="800">
<path d="M0 0 C1.39387939 0.46913818 1.39387939 0.46913818 2.81591797 0.94775391 C40.74028345 13.73771368 75.44855234 32.41759814 107 57 C107.88558594 57.68320313 108.77117188 58.36640625 109.68359375 59.0703125 C112.15507752 61.01016347 114.58245036 62.99332374 117 65 C117.75289307 65.6175415 117.75289307 65.6175415 118.52099609 66.24755859 C127.23462916 73.4318496 135.37247046 81.16331002 143.375 89.125 C144.74736816 90.48359131 144.74736816 90.48359131 146.14746094 91.86962891 C152.19069327 97.94030054 157.65804432 104.31002355 163 111 C163.86361058 112.02736319 164.73202231 113.05075345 165.609375 114.06640625 C178.09513173 128.6255277 188.44346007 144.4049713 198 161 C198.4340918 161.74185547 198.86818359 162.48371094 199.31542969 163.24804688 C211.33621939 183.81551642 220.37393596 205.46563751 228 228 C228.43070801 229.24160889 228.43070801 229.24160889 228.87011719 230.50830078 C259.01215861 317.60752905 249.34018551 416.59780732 210 499 C197.13208215 525.36326735 180.78414374 549.51409504 162 572 C161.18789063 572.99902344 160.37578125 573.99804688 159.5390625 575.02734375 C153.08768645 582.8589535 146.08992018 590.12354089 138.9375 597.3125 C138.02782471 598.23135986 137.11814941 599.15021973 136.1809082 600.09692383 C130.09307614 606.15739485 123.70958545 611.64361968 117 617 C115.97262523 617.8635968 114.94923433 618.73200816 113.93359375 619.609375 C100.07192746 631.49700118 85.1117211 641.53396816 69.31640625 650.65820312 C67.23213005 651.86553681 65.16160703 653.09297644 63.09375 654.328125 C22.61089948 678.18655645 -23.00250227 691.30626794 -69.2746582 697.62524414 C-71.45880114 697.92558091 -73.64010711 698.24651917 -75.8203125 698.57421875 C-160.35252221 709.89364241 -255.36364854 683.78741187 -323.21459961 632.72583008 C-326.50846252 630.18982736 -329.75895859 627.60292342 -333 625 C-334.37091797 623.92878906 -334.37091797 623.92878906 -335.76953125 622.8359375 C-338.20715086 620.92207137 -340.60680747 618.96908246 -343 617 C-343.9590625 616.2265625 -344.918125 615.453125 -345.90625 614.65625 C-353.97247491 608.02998285 -361.41921818 600.79494888 -368.8125 593.4375 C-369.54416885 592.71359573 -369.54416885 592.71359573 -370.2906189 591.97506714 C-376.99160089 585.33020278 -383.12587692 578.38675441 -389 571 C-390.10816635 569.65959905 -391.21977935 568.32203473 -392.3359375 566.98828125 C-438.3411334 511.54232788 -464.38720796 442.36871264 -471 371 C-471.07202637 370.22430664 -471.14405273 369.44861328 -471.21826172 368.64941406 C-479.07222928 278.61003003 -450.00996764 186.29240589 -393.375 116.1875 C-391.91989848 114.45561287 -390.46148298 112.72650542 -389 111 C-388.2059375 110.02160156 -387.411875 109.04320312 -386.59375 108.03515625 C-379.98614137 99.98919819 -372.77565196 92.56136719 -365.4375 85.1875 C-364.95480652 84.69963013 -364.47211304 84.21176025 -363.97479248 83.70910645 C-357.33013864 77.00833555 -350.38062996 70.88114516 -343 65 C-341.97253244 64.1365136 -340.9491367 63.26810484 -339.93359375 62.390625 C-298.62238738 26.96254818 -246.81054952 3.1576324 -194 -9 C-193.01741211 -9.22671387 -192.03482422 -9.45342773 -191.02246094 -9.68701172 C-128.81362013 -23.73061242 -60.34867521 -20.90216862 0 0 Z M-205 47 C-206.44681152 47.45415283 -206.44681152 47.45415283 -207.92285156 47.91748047 C-251.08533809 61.65761142 -293.95487253 85.69056743 -325.5625 118.5625 C-327 120 -327 120 -330 122.4375 C-332.99741964 124.99779594 -335.42855909 127.66904221 -337.97265625 130.6640625 C-340.28440821 133.32769963 -342.70418883 135.87263476 -345.125 138.4375 C-388.11878813 184.79836169 -414.45677846 249.41316145 -420 312 C-420.11085938 313.11761719 -420.22171875 314.23523438 -420.3359375 315.38671875 C-422.09195165 336.19785944 -421.44961491 357.27986134 -419 378 C-418.85522217 379.24257568 -418.85522217 379.24257568 -418.70751953 380.51025391 C-412.93115843 428.0395568 -395.1518949 474.58628511 -368 514 C-367.58008789 514.61665527 -367.16017578 515.23331055 -366.72753906 515.86865234 C-358.75259746 527.53846346 -349.69336541 538.15164778 -340.18359375 548.59375 C-338.68259521 550.24780206 -337.19634091 551.9153167 -335.72265625 553.59375 C-331.76966491 558.0805641 -327.78544721 562.25029543 -323.2109375 566.1015625 C-321.02650054 567.97724512 -318.92458509 569.92682662 -316.82568359 571.8972168 C-288.45702427 598.43047238 -253.22142872 617.61381982 -217 631 C-216.18724609 631.30131836 -215.37449219 631.60263672 -214.53710938 631.91308594 C-140.9625047 658.76813296 -56.16812354 653.97673855 14.75 621.4375 C18.51973801 619.66384997 22.26510282 617.84575035 26 616 C27.16595703 615.43031494 27.16595703 615.43031494 28.35546875 614.84912109 C54.2630902 602.08445893 79.50044255 584.30203975 99.5625 563.4375 C101 562 101 562 104 559.5625 C107.00129911 556.99889034 109.43476469 554.3247109 111.98046875 551.32421875 C113.40231765 549.68785493 114.86794076 548.08902086 116.36328125 546.51953125 C169.45086743 490.7579037 196.704348 410.6028622 195.21875 334.3984375 C192.959149 259.35708817 164.74926678 187.85911473 113.56640625 132.7890625 C111.42501785 130.46189155 109.35657371 128.09941385 107.3125 125.6875 C104.53434546 122.49098807 101.55375673 119.74499617 98.3203125 117.015625 C96.08527355 115.07407601 93.9542967 113.04626911 91.8203125 110.99511719 C72.53225712 92.63068137 49.51651048 78.30228626 26 66 C24.91960449 65.43418213 24.91960449 65.43418213 23.81738281 64.85693359 C-15.51759582 44.574011 -59.93574298 34.41873555 -104 33 C-104.70640625 32.97663574 -105.4128125 32.95327148 -106.140625 32.92919922 C-139.62686179 31.99290641 -173.10895339 36.88447629 -205 47 Z " fill="#FEFEFE" transform="translate(513,59)"/>
<path d="M0 0 C1.51591929 0.30660268 3.03208659 0.61198127 4.54847717 0.91624451 C7.78402414 1.56809703 11.01770261 2.22831326 14.25014877 2.89537048 C19.36700764 3.95115959 24.48776013 4.9871354 29.60916138 6.02062988 C38.62735224 7.8430769 47.64211065 9.68205502 56.65618896 11.52471924 C70.24315196 14.30196772 83.83294914 17.06525351 97.42565072 19.81427526 C102.5113691 20.84345888 107.5952948 21.88096903 112.67792964 22.92527008 C115.84036092 23.57355852 119.0040588 24.21549289 122.16810417 24.85585213 C123.6295213 25.15302977 125.09039825 25.45287888 126.5506649 25.7556591 C139.60554901 28.46020586 149.21429075 28.00602677 162.22363281 25.30859375 C163.7290284 25.00247313 165.23457163 24.69707775 166.74024963 24.39234924 C169.97185152 23.73693404 173.20245304 23.07685797 176.43237686 22.41322327 C181.55129861 21.36195078 186.67283909 20.32386045 191.79489136 19.28796387 C205.4390885 16.52648611 219.08005686 13.7492086 232.71884811 10.96115732 C241.68289636 9.12873707 250.64846522 7.30418102 259.61709774 5.49431849 C264.69687199 4.46858621 269.77395172 3.43068917 274.8493073 2.38332367 C278.02437027 1.73110049 281.20168285 1.09040921 284.3796978 0.45274162 C285.83900175 0.15758969 287.29739193 -0.14212807 288.75468254 -0.44706535 C313.87540496 -5.69458291 313.87540496 -5.69458291 323.30908203 0.15429688 C329.35982783 4.40710678 333.48754375 8.86814377 335.30908203 16.15429688 C336.50245584 24.56474087 335.21040714 31.18862055 330.30908203 38.15429688 C326.18149574 43.45102707 321.85632713 45.52188933 315.39701843 47.1663208 C314.40745495 47.41931155 314.40745495 47.41931155 313.39790028 47.67741323 C306.73389075 49.35367827 300.01696389 50.75205184 293.27709961 52.08691406 C291.95126486 52.35311264 290.62551256 52.61972216 289.29983521 52.88670349 C285.75392048 53.59953847 282.2068505 54.3064497 278.65947175 55.01195812 C274.9278679 55.75496668 271.19724909 56.50289237 267.46647644 57.25006104 C261.21798776 58.50065782 254.96873351 59.74736872 248.71899414 60.99169922 C241.4985205 62.42935404 234.27931422 63.87324198 227.06073838 65.32039332 C220.09089597 66.71753278 213.12019312 68.11033206 206.14908409 69.50113678 C203.19076129 70.09142876 200.2327474 70.68323486 197.27497292 71.27626801 C193.15677018 72.10172367 189.03732897 72.92082598 184.91772461 73.73925781 C183.69332169 73.98544357 182.46891876 74.23162933 181.20741272 74.48527527 C180.08768066 74.70667679 178.96794861 74.92807831 177.81428528 75.15618896 C176.84191831 75.35010098 175.86955133 75.54401299 174.8677187 75.74380112 C172.30908203 76.15429688 172.30908203 76.15429688 168.30908203 76.15429688 C162.60879055 123.37727611 171.18507345 161.63584688 189.49658203 205.34179688 C189.98489376 206.50734982 190.47320549 207.67290276 190.97631454 208.87377548 C196.22334072 221.35239649 201.60840517 233.76812901 207.06738281 246.15527344 C211.58928135 256.41838515 215.90212277 266.74786306 220.02392578 277.17773438 C220.29351545 277.85977999 220.56310513 278.5418256 220.84086418 279.24453926 C222.08981126 282.40977214 223.3326876 285.5772925 224.57217407 288.74624634 C226.65430864 294.0521506 228.78327434 299.33906329 230.91064453 304.62695312 C234.47659353 313.49425741 237.36908868 321.33894777 234.47314453 330.91992188 C231.30772647 337.84560165 226.59863689 343.40800268 219.44970703 346.31835938 C211.92868725 348.32022285 203.39567129 348.36687372 196.44558811 344.56715679 C189.11630984 339.72034471 185.66027051 332.4075111 182.56713867 324.47143555 C182.14671295 323.43145416 181.72628723 322.39147278 181.29312134 321.31997681 C179.9193426 317.91017714 178.56901059 314.49163124 177.21923828 311.07226562 C176.2664488 308.69140873 175.31236297 306.31107026 174.35704041 303.93122864 C172.36454854 298.95813008 170.38231355 293.98113743 168.40942383 289.00024414 C165.87706451 282.60705243 163.32467625 276.22205701 160.76590824 269.83939648 C158.32621912 263.75333292 155.89793192 257.6627232 153.46923828 251.57226562 C152.77094752 249.82524384 152.77094752 249.82524384 152.05854988 248.0429287 C150.74862323 244.76083218 149.44580216 241.47601149 148.14526367 238.19018555 C147.75417923 237.21301071 147.36309479 236.23583588 146.9601593 235.22904968 C146.43262054 233.88973389 146.43262054 233.88973389 145.89442444 232.52336121 C145.58641938 231.74746234 145.27841433 230.97156347 144.96107578 230.17215252 C144.30908203 228.15429688 144.30908203 228.15429688 144.30908203 225.15429688 C143.64908203 225.15429688 142.98908203 225.15429688 142.30908203 225.15429688 C142.11317443 226.25153721 142.11317443 226.25153721 141.9133091 227.37094402 C141.35169977 229.95797959 140.6115385 232.23023997 139.64144897 234.6879425 C139.29679596 235.56674072 138.95214294 236.44553894 138.5970459 237.35096741 C138.21890747 238.30225021 137.84076904 239.25353302 137.45117188 240.23364258 C137.05261993 241.24564728 136.65406799 242.25765198 136.24343872 243.30032349 C134.92400623 246.64559305 133.59772787 249.98808511 132.27001953 253.33007812 C131.81630604 254.4739266 131.36259254 255.61777508 130.89513016 256.79628563 C128.7404997 262.2269777 126.58241568 267.65627322 124.41898763 273.08346683 C122.17765335 278.70639952 119.94504326 284.33260819 117.7265625 289.96459961 C115.34100634 296.01924885 112.93936855 302.06727437 110.5259285 308.11086082 C109.61065931 310.41026489 108.70089761 312.71186939 107.79685593 315.01571083 C106.52779548 318.24579535 105.23813829 321.46692188 103.94335938 324.68676758 C103.57736633 325.63197769 103.21137329 326.57718781 102.83428955 327.55104065 C99.72391164 335.1835648 95.5677867 341.62167964 88.18408203 345.65429688 C81.24077523 348.32479949 73.02246675 348.29401349 65.93408203 346.09179688 C59.33514318 343.09860731 54.57523219 337.49584747 52.04502869 330.76945496 C49.27750878 320.93517962 52.16813019 312.33937579 55.96142578 303.25976562 C56.49224342 301.94521137 57.02103946 300.62983944 57.54808044 299.31376648 C58.75569898 296.30852266 59.97607604 293.30883681 61.20428467 290.31195068 C63.55183643 284.57474976 65.85289362 278.81921312 68.15332031 273.06298828 C73.22362658 260.38602054 78.32190298 247.72041815 83.42504883 235.05664062 C85.35359147 230.27059996 87.28152369 225.48431378 89.20890522 220.6978054 C90.16064706 218.33458766 91.11281131 215.97153999 92.06540966 213.60866737 C94.37697355 207.87227069 96.67978232 202.13266381 98.9634552 196.38510132 C106.20689906 178.18464599 106.20689906 178.18464599 110.0559082 169.95166016 C118.56366489 151.36669373 118.83516541 134.01069001 118.5279541 113.92810059 C118.47476751 109.64937348 118.48593963 105.37078216 118.49072266 101.09179688 C118.49101737 92.77819948 118.42344342 84.46710675 118.30908203 76.15429688 C117.0974791 76.04177582 115.88587616 75.92925476 114.63755798 75.81332397 C108.37138363 75.11303118 102.23105213 73.85202035 96.0534668 72.60986328 C94.73839451 72.34826299 93.42325795 72.08698565 92.10806274 71.82600403 C88.55978814 71.1208238 85.01249802 70.41080751 81.46542478 69.69961214 C78.49378099 69.1042564 75.52166053 68.51129989 72.54953998 67.9183296 C65.53273628 66.51836108 58.5167272 65.11446136 51.5012207 63.70800781 C44.28649754 62.26168011 37.07053732 60.82165404 29.85392338 59.38479292 C23.63637194 58.14663694 17.41958096 56.90471472 11.20338291 55.65978181 C7.50024861 54.91817349 3.79685924 54.17791056 0.09274483 53.4412117 C-3.39247724 52.7478624 -6.87671739 52.04976981 -10.36028671 51.34816551 C-12.23269178 50.97222008 -14.10603696 50.60096622 -15.97941589 50.22990417 C-38.86566613 45.60169711 -38.86566613 45.60169711 -46.14013672 35.05273438 C-49.64906625 28.28111598 -50.08771571 20.67296975 -47.84326172 13.41210938 C-44.77798554 6.57498488 -40.05562751 0.85687931 -32.95555305 -1.9127121 C-22.19422722 -4.98816163 -10.69576706 -2.23808356 0 0 Z " fill="#FEFEFE" transform="translate(256.69091796875,277.845703125)"/>
<path d="M0 0 C10.32005407 6.58549493 17.33726834 15.1449416 21.25 26.6875 C23.62974877 37.76414883 22.37436942 49.58154884 16.57421875 59.41796875 C9.03411817 69.80265508 -0.46589588 77.06741133 -13.1796875 79.64453125 C-24.90151419 80.94854865 -35.80720188 78.81933594 -45.52734375 72.01953125 C-54.16537674 64.96445533 -60.44383439 56.23475657 -62 45 C-63.14142812 31.99463713 -60.32374528 20.20459157 -52 10 C-39.69496651 -4.61222727 -17.02352768 -9.44513238 0 0 Z " fill="#FFFEFE" transform="translate(420,179)"/>
</svg>
