<?xml version="1.0" encoding="UTF-8"?>
<svg version="1.1" xmlns="http://www.w3.org/2000/svg" width="800" height="800">
<path d="M0 0 C0.85078125 -0.01933594 1.7015625 -0.03867187 2.578125 -0.05859375 C11.18938433 1.28824114 18.11770627 5.71180341 25.015625 10.7890625 C26.77231969 12.04966913 28.53084737 13.30772458 30.29101562 14.56347656 C31.19021729 15.20627563 32.08941895 15.84907471 33.01586914 16.51135254 C37.44337832 19.63045546 41.95815303 22.61262319 46.484375 25.5859375 C47.3808374 26.1756131 48.2772998 26.7652887 49.20092773 27.37283325 C51.96563694 29.1885832 54.73256222 31.00091194 57.5 32.8125 C61.36024961 35.34241838 65.21955727 37.87376725 69.078125 40.40625 C70.00842529 41.01653046 70.93872559 41.62681091 71.8972168 42.25558472 C77.22934265 45.75982996 82.53167603 49.30229416 87.796875 52.90625 C88.65789825 53.49292953 88.65789825 53.49292953 89.53631592 54.09146118 C92.06814761 55.81671522 94.59150734 57.55181252 97.10058594 59.31005859 C98.36563965 60.1736499 98.36563965 60.1736499 99.65625 61.0546875 C100.36072266 61.54565918 101.06519531 62.03663086 101.79101562 62.54248047 C103.6940645 63.60804106 103.6940645 63.60804106 105.73071289 63.25585938 C108.08104667 62.30333624 110.03661786 61.12835177 112.15234375 59.7265625 C113.02737549 59.15115723 113.90240723 58.57575195 114.80395508 57.98291016 C115.7555249 57.3491748 116.70709473 56.71543945 117.6875 56.0625 C119.77341968 54.68747297 121.85935806 53.3124743 123.9453125 51.9375 C125.06292403 51.19806553 126.18043528 50.45847948 127.29785156 49.71875 C130.79343816 47.40641884 134.29789374 45.10778941 137.8046875 42.8125 C138.39845688 42.42385773 138.99222626 42.03521545 139.60398865 41.63479614 C140.81419971 40.84276887 142.02444054 40.05078708 143.23471069 39.2588501 C146.2967 37.25467424 149.35726644 35.24832802 152.41796875 33.2421875 C165.81463573 24.46276384 165.81463573 24.46276384 172.21127319 20.27655029 C173.8121502 19.22864053 175.41255454 18.1800088 177.01293945 17.13134766 C178.97190467 15.84964432 180.93269128 14.57071943 182.89550781 13.29492188 C184.84262754 12.02792847 186.7844892 10.75282657 188.72167969 9.47070312 C190.15495605 8.53387695 190.15495605 8.53387695 191.6171875 7.578125 C192.4613623 7.02157227 193.30553711 6.46501953 194.17529297 5.89160156 C201.10613198 1.97731395 207.95608606 1.28418094 215.75 2.4375 C222.04578011 4.4052041 227.91600721 7.52326093 233.8125 10.4375 C235.53845371 11.26672078 237.26586078 12.0929226 238.99462891 12.91625977 C241.65156198 14.18167872 244.30767782 15.44848228 246.95965576 16.72425842 C254.71643034 20.45228701 262.55760096 23.96357965 270.43966675 27.41699219 C284.99668763 33.79850847 299.43126846 40.42625751 313.83602905 47.1434021 C327.75292216 53.63021667 341.73830636 59.94357047 355.8046875 66.09960938 C359.7991583 67.85130423 363.7798999 69.63127251 367.75 71.4375 C368.40325256 71.73293701 369.05650513 72.02837402 369.72955322 72.33276367 C371.64753371 73.20946639 373.55331252 74.10843226 375.45703125 75.015625 C376.55120361 75.5302832 377.64537598 76.04494141 378.77270508 76.57519531 C384.28364927 80.02230333 387.21885895 84.19204711 388.75 90.4375 C389.03101641 94.5209939 389.002488 98.59340765 388.97705078 102.68505859 C388.97734283 103.91488464 388.97763489 105.14471069 388.97793579 106.4118042 C388.97678401 109.7709432 388.96677721 113.12983415 388.95278788 116.48892927 C388.94025635 120.00430026 388.93910811 123.51967482 388.93673706 127.0350647 C388.9305294 133.68601522 388.91412827 140.33689972 388.89403808 146.98782122 C388.87165683 154.56217212 388.86068006 162.13652622 388.85064721 169.71090198 C388.82976138 185.28647284 388.79459933 200.86197789 388.75 216.4375 C389.37270279 216.73991104 389.99540558 217.04232208 390.63697815 217.35389709 C392.82418169 218.47554196 394.51478893 219.73892186 396.40234375 221.30859375 C397.08989746 221.87747314 397.77745117 222.44635254 398.48583984 223.0324707 C399.57566162 223.94452271 399.57566162 223.94452271 400.6875 224.875 C401.44240723 225.50172607 402.19731445 226.12845215 402.97509766 226.77416992 C408.07941834 231.01913921 413.15348481 235.29966599 418.2121582 239.59887695 C423.33470764 243.94857593 428.53552744 248.19883517 433.75 252.4375 C440.18861696 257.67122957 446.57912829 262.95294912 452.89160156 268.33789062 C455.53473843 270.58716688 458.1927378 272.80662618 460.9140625 274.9609375 C461.89117188 275.73695313 462.86828125 276.51296875 463.875 277.3125 C464.74382813 277.99054688 465.61265625 278.66859375 466.5078125 279.3671875 C469.84076335 282.44465083 471.57740206 285.00592364 472.12752342 289.56878662 C472.12922004 291.3440976 472.12922004 291.3440976 472.13095093 293.15527344 C472.13797089 294.1486931 472.13797089 294.1486931 472.14513266 295.16218185 C472.15706679 297.37395197 472.14763213 299.58510065 472.13818359 301.796875 C472.14225002 303.38554241 472.1475923 304.97420698 472.15411377 306.56286621 C472.16778482 310.87275635 472.16248962 315.18243094 472.15297651 319.49232483 C472.14537883 324.00367817 472.15242583 328.51501312 472.15713501 333.02636719 C472.16259224 340.60224723 472.1554018 348.17803953 472.14111328 355.75390625 C472.12478682 364.51141263 472.13007535 373.26870948 472.1465925 382.02621078 C472.16020829 389.54651558 472.16212657 397.06675732 472.15427649 404.58707047 C472.14960048 409.07806075 472.14897313 413.56895257 472.15888596 418.05993652 C472.16755469 422.28218897 472.16153549 426.50417137 472.14420319 430.72639465 C472.14023784 432.27557426 472.14137324 433.8247766 472.14799118 435.37394714 C472.1561952 437.4895133 472.1459001 439.60421539 472.13095093 441.71972656 C472.12981985 442.90326721 472.12868877 444.08680786 472.12752342 445.30621338 C471.55406902 450.0626073 469.40193015 453.20316208 465.78125 456.234375 C465.21591553 456.71334229 464.65058105 457.19230957 464.06811523 457.68579102 C463.46813721 458.18135498 462.86815918 458.67691895 462.25 459.1875 C461.62488525 459.71335693 460.99977051 460.23921387 460.35571289 460.78100586 C455.78347385 464.61618201 451.16451215 468.39513131 446.53125 472.15625 C443.38616307 474.73592804 440.28516951 477.3637814 437.1875 480 C433.44148826 483.18667724 429.67193789 486.32541137 425.8125 489.375 C421.78197351 492.56556217 417.88506631 495.88600346 414 499.25 C409.12369872 503.46083273 404.18046917 507.5681458 399.125 511.5625 C398.54524414 512.02374268 397.96548828 512.48498535 397.36816406 512.96020508 C394.59668019 515.13027532 391.92241678 516.92767883 388.75 518.4375 C388.75276538 519.08980339 388.75553076 519.74210678 388.75837994 520.41417694 C388.824712 536.30622781 388.87431565 552.19823035 388.90543652 568.09038544 C388.92088741 575.77580241 388.9419428 583.46112682 388.97631836 591.14648438 C389.00627531 597.84718149 389.02558792 604.54781155 389.03226548 611.24857378 C389.03616712 614.79466081 389.04529908 618.34055603 389.06719017 621.88658142 C389.09146344 625.85085572 389.09196595 629.81494455 389.09057617 633.77929688 C389.10675491 635.53149536 389.10675491 635.53149536 389.1232605 637.3190918 C389.09702652 644.24025009 388.79706625 650.57361867 384.33105469 656.23681641 C376.84812224 661.54621903 368.32914457 665.05525215 360 668.8125 C358.24953039 669.61073696 356.49937262 670.40965807 354.74951172 671.20922852 C342.76236025 676.67407403 330.72532696 682.02708305 318.67321777 687.34686279 C305.59615215 693.12005283 292.62328774 699.10271942 279.66699219 705.14138794 C265.65357553 711.66929345 251.57354439 718.03097515 237.43164062 724.27539062 C236.38203911 724.73887154 236.38203911 724.73887154 235.31123352 725.2117157 C233.96411301 725.80573886 232.61646337 726.39856382 231.26823425 726.99006653 C226.51144507 729.08134923 221.80788069 731.27202403 217.13256836 733.53930664 C209.83543972 736.29021721 203.27387448 734.59622318 196.35473633 731.69848633 C192.01628249 729.59818507 188.25433638 726.84108921 184.375 724 C172.65603855 715.63449544 160.66112455 707.71248314 148.625 699.8125 C147.70213196 699.2066507 146.77926392 698.60080139 145.82843018 697.97659302 C144.92034607 697.38047211 144.01226196 696.7843512 143.07666016 696.17016602 C142.17269501 695.57641678 141.26872986 694.98266754 140.33737183 694.3709259 C138.53284631 693.18679397 136.72713126 692.0044727 134.92019653 690.82402039 C130.19294689 687.72964322 125.50159425 684.59289001 120.84863281 681.38769531 C119.89038605 680.73266022 118.93213928 680.07762512 117.94485474 679.40274048 C116.10774525 678.14436684 114.27752397 676.87586115 112.45529175 675.59603882 C111.63360504 675.03534698 110.81191833 674.47465515 109.96533203 673.89697266 C109.24572296 673.39670563 108.52611389 672.8964386 107.78469849 672.38101196 C105.79584119 671.23951035 105.79584119 671.23951035 103.61811829 671.70947266 C101.31079097 672.60866485 99.41336996 673.77978416 97.34765625 675.1484375 C96.47262451 675.72384277 95.59759277 676.29924805 94.69604492 676.89208984 C93.7444751 677.5258252 92.79290527 678.15956055 91.8125 678.8125 C89.72658032 680.18752703 87.64064194 681.5625257 85.5546875 682.9375 C84.43707597 683.67693447 83.31956472 684.41652052 82.20214844 685.15625 C78.70656184 687.46858116 75.20210626 689.76721059 71.6953125 692.0625 C71.10154312 692.45114227 70.50777374 692.83978455 69.89601135 693.24020386 C68.68580029 694.03223113 67.47555946 694.82421292 66.26528931 695.6161499 C63.2033 697.62032576 60.14273356 699.62667198 57.08203125 701.6328125 C43.68536427 710.41223616 43.68536427 710.41223616 37.28872681 714.59844971 C35.6878498 715.64635947 34.08744546 716.6949912 32.48706055 717.74365234 C30.52809533 719.02535568 28.56730872 720.30428057 26.60449219 721.58007812 C24.65737246 722.84707153 22.7155108 724.12217343 20.77832031 725.40429688 C19.82280273 726.02884766 18.86728516 726.65339844 17.8828125 727.296875 C17.0386377 727.85342773 16.19446289 728.40998047 15.32470703 728.98339844 C8.39386802 732.89768605 1.54391394 733.59081906 -6.25 732.4375 C-12.54578011 730.4697959 -18.41600721 727.35173907 -24.3125 724.4375 C-26.03845371 723.60827922 -27.76586078 722.7820774 -29.49462891 721.95874023 C-32.15156198 720.69332128 -34.80767782 719.42651772 -37.45965576 718.15074158 C-45.21643034 714.42271299 -53.05760096 710.91142035 -60.93966675 707.45800781 C-75.49668763 701.07649153 -89.93126846 694.44874249 -104.33602905 687.7315979 C-118.25292216 681.24478333 -132.23830636 674.93142953 -146.3046875 668.77539062 C-150.2991583 667.02369577 -154.2798999 665.24372749 -158.25 663.4375 C-158.90325256 663.14206299 -159.55650513 662.84662598 -160.22955322 662.54223633 C-162.14753371 661.66553361 -164.05331252 660.76656774 -165.95703125 659.859375 C-167.05120361 659.3447168 -168.14537598 658.83005859 -169.27270508 658.29980469 C-174.78364927 654.85269667 -177.71885895 650.68295289 -179.25 644.4375 C-179.53101641 640.3540061 -179.502488 636.28159235 -179.47705078 632.18994141 C-179.47734283 630.96011536 -179.47763489 629.73028931 -179.47793579 628.4631958 C-179.47678401 625.1040568 -179.46677721 621.74516585 -179.45278788 618.38607073 C-179.44025635 614.87069974 -179.43910811 611.35532518 -179.43673706 607.8399353 C-179.4305294 601.18898478 -179.41412827 594.53810028 -179.39403808 587.88717878 C-179.37165683 580.31282788 -179.36068006 572.73847378 -179.35064721 565.16409802 C-179.32976138 549.58852716 -179.29459933 534.01302211 -179.25 518.4375 C-179.87270279 518.13508896 -180.49540558 517.83267792 -181.13697815 517.52110291 C-183.32418169 516.39945804 -185.01478893 515.13607814 -186.90234375 513.56640625 C-187.58989746 512.99752686 -188.27745117 512.42864746 -188.98583984 511.8425293 C-190.07566162 510.93047729 -190.07566162 510.93047729 -191.1875 510 C-191.94240723 509.37327393 -192.69731445 508.74654785 -193.47509766 508.10083008 C-198.57941834 503.85586079 -203.65348481 499.57533401 -208.7121582 495.27612305 C-213.83470764 490.92642407 -219.03552744 486.67616483 -224.25 482.4375 C-234.18035197 474.36545951 -234.18035197 474.36545951 -238.4453125 470.70703125 C-239.54678309 469.7629136 -240.64834613 468.81890379 -241.75 467.875 C-242.29172852 467.41029297 -242.83345703 466.94558594 -243.39160156 466.46679688 C-247.73522691 462.78082396 -252.28097927 459.47301248 -257.0078125 456.2890625 C-260.48922231 453.41417008 -262.08547429 450.80892911 -262.62752342 446.29059601 C-262.6286545 445.09968102 -262.62978558 443.90876602 -262.63095093 442.6817627 C-262.6356309 442.01539937 -262.64031087 441.34903604 -262.64513266 440.66247988 C-262.65706756 438.43689154 -262.64763181 436.21192068 -262.63818359 433.98632812 C-262.64224998 432.38780865 -262.64759224 430.78929198 -262.65411377 429.19078064 C-262.66778523 424.85403229 -262.66248945 420.51749815 -262.65297651 416.18074608 C-262.64537904 411.64136555 -262.65242577 407.10200332 -262.65713501 402.56262207 C-262.6625923 394.93966378 -262.65540163 387.3167927 -262.64111328 379.69384766 C-262.62478681 370.88181014 -262.63007534 362.06998087 -262.6465925 353.2579484 C-262.66020811 345.69093497 -262.66212666 338.12398421 -262.65427649 330.55696249 C-262.64960039 326.03802674 -262.64897341 321.51918886 -262.65888596 317.0002594 C-262.66755443 312.75174274 -262.66153596 308.50349447 -262.64420319 304.25500679 C-262.6402377 302.69615182 -262.64137347 301.13727424 -262.64799118 299.57842827 C-262.65619463 297.44972677 -262.64590074 295.32188415 -262.63095093 293.1932373 C-262.62981985 292.00232231 -262.62868877 290.81140732 -262.62752342 289.58440399 C-262.05573147 284.81814508 -259.90934208 281.67804314 -256.28125 278.640625 C-255.71591553 278.16165771 -255.15058105 277.68269043 -254.56811523 277.18920898 C-253.96813721 276.69364502 -253.36815918 276.19808105 -252.75 275.6875 C-252.12488525 275.16164307 -251.49977051 274.63578613 -250.85571289 274.09399414 C-246.28347385 270.25881799 -241.66451215 266.47986869 -237.03125 262.71875 C-233.88616307 260.13907196 -230.78516951 257.5112186 -227.6875 254.875 C-223.94148826 251.68832276 -220.17193789 248.54958863 -216.3125 245.5 C-212.28197351 242.30943783 -208.38506631 238.98899654 -204.5 235.625 C-199.62369872 231.41416727 -194.68046917 227.3068542 -189.625 223.3125 C-189.04524414 222.85125732 -188.46548828 222.39001465 -187.86816406 221.91479492 C-185.09668019 219.74472468 -182.42241678 217.94732117 -179.25 216.4375 C-179.25276538 215.79550407 -179.25553076 215.15350815 -179.25837994 214.4920578 C-179.32471506 198.85036327 -179.37431712 183.20871785 -179.40543652 167.56691742 C-179.42088672 160.00256794 -179.44194076 152.43831253 -179.47631836 144.87402344 C-179.50627745 138.27880173 -179.52558842 131.68364817 -179.53226548 125.08836031 C-179.53616677 121.59816327 -179.5452964 118.10816113 -179.56719017 114.61802673 C-179.59146772 110.71601791 -179.59196582 106.81419748 -179.59057617 102.91210938 C-179.601362 101.76267853 -179.61214783 100.61324768 -179.6232605 99.4289856 C-179.59635647 92.4408375 -179.15679966 86.35073238 -174.84326172 80.54370117 C-169.51526396 76.2124837 -163.62483978 73.52380529 -157.375 70.75 C-155.52228185 69.90864624 -153.66958596 69.06724255 -151.81750488 68.2244873 C-149.77528854 67.29666463 -147.73094395 66.37363807 -145.68652344 65.45068359 C-138.31301819 62.11365264 -130.9774575 58.69390349 -123.63650513 55.28604126 C-120.98796577 54.05691519 -118.33868794 52.82939415 -115.68920898 51.60229492 C-104.92588585 46.61605404 -94.17518943 41.60368746 -83.4375 36.5625 C-62.58173181 26.77413412 -41.71572352 17.02144082 -20.66333008 7.66162109 C-18.94666138 6.89712646 -18.94666138 6.89712646 -17.1953125 6.1171875 C-16.19000488 5.67101074 -15.18469727 5.22483398 -14.14892578 4.76513672 C-12.0915369 3.82290321 -10.05803196 2.82772132 -8.04345703 1.79711914 C-5.10321835 0.36605908 -3.24363945 0.00485575 0 0 Z M207.86547852 75.6105957 C205.53874152 77.3014281 203.44152151 79.13754901 201.33007812 81.08740234 C198.35388037 83.63041433 194.99822004 85.61286211 191.6875 87.6875 C190.20711389 88.63481581 188.72796492 89.58406742 187.25 90.53515625 C186.50363281 91.01484863 185.75726563 91.49454102 184.98828125 91.98876953 C179.05688735 95.827872 173.20206829 99.78388411 167.33105469 103.71435547 C164.44631014 105.64024717 161.55553742 107.55688496 158.6640625 109.47265625 C157.61162354 110.17108643 156.55918457 110.8695166 155.47485352 111.58911133 C153.42965451 112.94620895 151.38334161 114.30163003 149.33569336 115.6550293 C148.38057861 116.28965088 147.42546387 116.92427246 146.44140625 117.578125 C145.19145874 118.40618652 145.19145874 118.40618652 143.91625977 119.25097656 C142.87139404 119.9725293 141.82652832 120.69408203 140.75 121.4375 C139.86838762 121.84808529 138.98677525 122.25867058 138.07844734 122.68169785 C134.14750778 124.8331707 130.57349999 126.90660183 129.11754453 131.38125277 C128.08352017 137.50021021 128.3736208 143.71799874 128.5012207 149.8984375 C128.50432539 151.99811133 128.50257819 154.09779709 128.49635315 156.19746399 C128.49320085 161.88587636 128.55780156 167.57172988 128.63466668 173.25954819 C128.70349967 179.20781171 128.70989798 185.15613599 128.72294617 191.10473633 C128.75711597 202.36377087 128.84735563 213.62162847 128.95779055 224.88014507 C129.08080457 237.69975079 129.14123815 250.51941315 129.19644034 263.33946228 C129.31137409 289.706127 129.50481601 316.07174751 129.75 342.4375 C130.6471875 342.45208252 131.544375 342.46666504 132.46875 342.48168945 C135.831307 342.5431308 139.19309703 342.6173513 142.55517578 342.69995117 C144.00396281 342.73298803 145.45287199 342.76108455 146.90185547 342.78393555 C155.96797933 342.93076801 163.39390173 343.32348938 171.4375 348 C176.90638893 353.76450455 179.07432119 359.6345482 179.3125 367.5625 C179.01610889 375.14517265 177.21665621 379.59135822 172.3125 385.25 C166.14742347 390.51287021 161.55495322 391.52506282 153.578125 391.75390625 C152.8957074 391.77468735 152.21328979 391.79546844 151.51019287 391.81687927 C149.34022644 391.88202052 147.17014376 391.94109404 145 392 C143.52472779 392.04321897 142.04946713 392.08683432 140.57421875 392.13085938 C136.96626834 392.23766518 133.35818867 392.33903153 129.75 392.4375 C129.53979312 419.8274143 129.38106732 447.2172078 129.28369045 474.60776615 C129.23727552 487.32561768 129.17399189 500.04296813 129.07104492 512.76049805 C128.98136275 523.8446444 128.92328141 534.92842791 128.90320355 546.012927 C128.89146607 551.88275819 128.86386804 557.7515513 128.79842949 563.62104988 C128.73733033 569.14610033 128.71849743 574.66968546 128.73203087 580.19504166 C128.72955523 582.22239204 128.71165587 584.24979151 128.67715073 586.27684975 C128.09060625 596.71880304 128.09060625 596.71880304 131.65999031 606.11965752 C133.95983892 607.9479583 136.10367747 609.18151162 138.75 610.4375 C140.30259163 611.47216822 141.84338449 612.52494582 143.3671875 613.6015625 C145.11775929 614.75828999 146.87051704 615.91171348 148.625 617.0625 C150.71315011 618.44263376 152.80029976 619.82428185 154.88671875 621.20703125 C155.46780899 621.59201279 156.04889923 621.97699432 156.64759827 622.37364197 C162.35397457 626.16102539 168.03139316 629.99097569 173.70703125 633.82421875 C175.14888794 634.79796448 175.14888794 634.79796448 176.61987305 635.79138184 C180.53499289 638.43616504 184.44960457 641.08169537 188.36297607 643.72906494 C191.14099982 645.60821041 193.92004821 647.48583243 196.69921875 649.36328125 C197.53789993 649.93141037 198.37658112 650.49953949 199.24067688 651.08488464 C200.76278743 652.11263952 202.28955128 653.13355612 203.82211304 654.1456604 C205.39340521 655.19855276 206.92391355 656.31210341 208.44067383 657.44213867 C210.78703115 658.71673306 210.78703115 658.71673306 213.60839844 657.83447266 C217.09483623 656.28416204 220.57468431 654.7345891 224.015625 653.0859375 C225.06243942 652.5896006 225.06243942 652.5896006 226.13040161 652.08323669 C228.42174034 650.99606181 230.71082256 649.90421732 233 648.8125 C234.61390604 648.04606997 236.22800416 647.28004428 237.84228516 646.5144043 C241.1737484 644.93414231 244.50456247 643.35252419 247.83496094 641.77001953 C255.25660668 638.24558419 262.69041181 634.7470284 270.125 631.25 C270.81664246 630.92447144 271.50828491 630.59894287 272.22088623 630.2635498 C283.95536844 624.74067422 295.70393985 619.24824122 307.46240234 613.77661133 C308.62723145 613.23415771 309.79206055 612.6917041 310.9921875 612.1328125 C312.52141846 611.4214917 312.52141846 611.4214917 314.08154297 610.69580078 C316.31921267 609.64063613 318.53721205 608.54389397 320.75 607.4375 C320.75 577.7375 320.75 548.0375 320.75 517.4375 C315.47 514.7975 310.19 512.1575 304.75 509.4375 C298.60421342 500.83339878 296.33131904 494.9256057 297.75 484.4375 C300.37418365 476.44917626 304.26670932 470.47432845 311.75 466.4375 C318.69994807 464.12085064 327.20756391 464.26993007 333.8125 467.5 C334.46347656 467.88285156 335.11445312 468.26570313 335.78515625 468.66015625 C338.66321885 469.79879334 339.82115475 469.52333609 342.75 468.4375 C345.55174355 466.49282417 348.10723221 464.28903548 350.6875 462.0625 C352.21374634 460.77473989 353.74110496 459.48829699 355.26953125 458.203125 C356.0270166 457.56310547 356.78450195 456.92308594 357.56494141 456.26367188 C360.61705067 453.71285877 363.73501962 451.25375221 366.875 448.8125 C372.32319777 444.5634831 377.72817884 440.26417033 383.11645508 435.93945312 C388.16660474 431.89139603 393.2516441 427.88920959 398.359375 423.9140625 C400.59647276 422.16649436 402.74044195 420.44705805 404.75 418.4375 C405.02844932 415.71815665 405.02844932 415.71815665 404.9453125 412.5546875 C404.93886719 411.38808594 404.93242188 410.22148437 404.92578125 409.01953125 C404.90902344 407.79621094 404.89226562 406.57289063 404.875 405.3125 C404.86146484 403.46591797 404.86146484 403.46591797 404.84765625 401.58203125 C404.82402548 398.53366185 404.79108054 395.48567618 404.75 392.4375 C403.8528125 392.42291748 402.955625 392.40833496 402.03125 392.39331055 C398.668693 392.3318692 395.30690297 392.2576487 391.94482422 392.17504883 C390.49603719 392.14201197 389.04712801 392.11391545 387.59814453 392.09106445 C369.75104814 391.80201775 369.75104814 391.80201775 363 386.125 C356.82443366 378.74862909 355.31001116 373.59992598 355.41796875 364.08984375 C356.00288963 357.6557141 358.0290148 352.80504762 362.9453125 348.52734375 C369.03306789 344.27796994 373.51272434 343.33365135 380.921875 343.12109375 C381.6042926 343.10031265 382.28671021 343.07953156 382.98980713 343.05812073 C385.15977356 342.99297948 387.32985624 342.93390596 389.5 342.875 C390.97527221 342.83178103 392.45053287 342.78816568 393.92578125 342.74414062 C397.53373166 342.63733482 401.14181133 342.53596847 404.75 342.4375 C406.43488746 327.29813054 406.43488746 327.29813054 402.91015625 313.0234375 C400.32030884 310.77317514 397.73433049 309.12324344 394.75 307.4375 C393.0383592 306.07137675 391.35133615 304.67395793 389.6875 303.25 C388.2641652 302.09643446 386.84077425 300.94293761 385.41650391 299.79052734 C382.05697469 297.06294004 378.71652005 294.31209576 375.375 291.5625 C374.64369873 290.96123291 373.91239746 290.35996582 373.15893555 289.74047852 C369.27389732 286.53984222 365.41283611 283.31507465 361.58740234 280.04345703 C358.98932042 277.82417881 356.37307729 275.62714347 353.75 273.4375 C353.17701172 272.95667969 352.60402344 272.47585938 352.01367188 271.98046875 C350.27268058 270.53187226 348.51469168 269.10707859 346.75 267.6875 C345.95770996 267.02282715 345.95770996 267.02282715 345.14941406 266.34472656 C342.7595382 264.45701552 341.34159615 263.41261979 338.2421875 263.54296875 C337.00855469 263.98576172 337.00855469 263.98576172 335.75 264.4375 C334.33074219 264.91896484 334.33074219 264.91896484 332.8828125 265.41015625 C331.89023437 265.76980469 330.89765625 266.12945312 329.875 266.5 C322.84197005 268.8558071 317.55183137 269.28229318 310.66796875 266.40625 C304.37935616 263.22992429 301.22075722 258.81078657 298.75 252.4375 C296.4317898 244.95740842 296.75670635 236.42915117 300.37109375 229.46484375 C305.52617882 221.88555437 312.33772752 219.26126022 320.75 215.4375 C320.75 185.7375 320.75 156.0375 320.75 125.4375 C302.51185457 116.85484333 284.28183057 108.27680421 265.9921875 99.80859375 C260.63355587 97.32103215 255.28694942 94.80898478 249.9453125 92.28515625 C249.19159363 91.92928436 248.43787476 91.57341248 247.66131592 91.20675659 C243.98749865 89.47182475 240.31495493 87.73428712 236.64453125 85.9921875 C233.33314467 84.42262641 230.01154571 82.87646034 226.68429565 81.34085083 C224.71916488 80.42309944 222.76941318 79.47680085 220.81860352 78.52905273 C219.57101251 77.94530223 218.32290639 77.36265102 217.07421875 76.78125 C215.98197998 76.25853516 214.88974121 75.73582031 213.7644043 75.19726562 C210.72669021 74.11547248 210.72669021 74.11547248 207.86547852 75.6105957 Z M-2.25 74.4375 C-4.67944558 75.41381207 -6.98692863 76.45564205 -9.3359375 77.6015625 C-10.41530579 78.11629875 -10.41530579 78.11629875 -11.51647949 78.64143372 C-13.8894277 79.77474827 -16.25706453 80.91875399 -18.625 82.0625 C-21.11175562 83.25277064 -23.5998378 84.44023907 -26.08792114 85.62773132 C-27.76356463 86.42782043 -29.43875366 87.22886198 -31.11349487 88.03083801 C-38.0907678 91.37097795 -45.09993111 94.63646693 -52.125 97.875 C-65.31062555 103.96808179 -78.43289452 110.19287864 -91.54833984 116.43530273 C-92.33894302 116.81100906 -93.1295462 117.18671539 -93.94410706 117.57380676 C-95.42262288 118.27643883 -96.90063881 118.98012426 -98.3780365 119.68510437 C-99.04903885 120.00380997 -99.7200412 120.32251556 -100.41137695 120.65087891 C-100.98644485 120.92477448 -101.56151276 121.19867004 -102.15400696 121.48086548 C-105.16194827 122.85372332 -108.21091544 124.13503519 -111.25 125.4375 C-111.25 155.7975 -111.25 186.1575 -111.25 217.4375 C-105.97 220.0775 -100.69 222.7175 -95.25 225.4375 C-88.98265264 234.21178631 -87.15496845 239.81569394 -88.25 250.4375 C-90.26433559 257.85391742 -94.68130987 264.05837324 -101.0625 268.3125 C-109.2579015 271.20499465 -114.87931605 270.33661643 -122.93334961 267.1796875 C-126.83744878 265.6902683 -129.33322255 264.81303009 -133.25 266.4375 C-136.04371529 268.394424 -138.60669469 270.58554059 -141.1875 272.8125 C-142.71245762 274.09894239 -144.23851422 275.38408307 -145.765625 276.66796875 C-146.90161133 277.62775635 -146.90161133 277.62775635 -148.06054688 278.60693359 C-151.13608181 281.17833869 -154.27526918 283.66151727 -157.4375 286.125 C-158.00339844 286.56706787 -158.56929687 287.00913574 -159.15234375 287.46459961 C-160.28528276 288.34881702 -161.41874198 289.23236832 -162.55273438 290.11523438 C-165.43631296 292.36170469 -168.31223384 294.61790599 -171.1875 296.875 C-171.7539624 297.3191626 -172.3204248 297.7633252 -172.90405273 298.22094727 C-176.08172193 300.71714366 -179.24463898 303.23054226 -182.39453125 305.76171875 C-183.07974854 306.312229 -183.76496582 306.86273926 -184.47094727 307.42993164 C-185.79965209 308.49900265 -187.12701693 309.56974172 -188.45288086 310.64233398 C-193.03217115 314.32858557 -193.03217115 314.32858557 -195.25 315.4375 C-195.25 324.3475 -195.25 333.2575 -195.25 342.4375 C-193.105 342.47488281 -190.96 342.51226562 -188.75 342.55078125 C-186.64817725 342.59713297 -184.54652305 342.64831643 -182.44482422 342.69995117 C-180.99603719 342.73298803 -179.54712801 342.76108455 -178.09814453 342.78393555 C-169.03202067 342.93076801 -161.60609827 343.32348938 -153.5625 348 C-148.09361107 353.76450455 -145.92567881 359.6345482 -145.6875 367.5625 C-145.98389111 375.14517265 -147.78334379 379.59135822 -152.6875 385.25 C-158.85257653 390.51287021 -163.44504678 391.52506282 -171.421875 391.75390625 C-172.1042926 391.77468735 -172.78671021 391.79546844 -173.48980713 391.81687927 C-175.65977356 391.88202052 -177.82985624 391.94109404 -180 392 C-181.47527221 392.04321897 -182.95053287 392.08683432 -184.42578125 392.13085938 C-188.03373166 392.23766518 -191.64181133 392.33903153 -195.25 392.4375 C-196.93488746 407.57686946 -196.93488746 407.57686946 -193.41015625 421.8515625 C-190.82030884 424.10182486 -188.23433049 425.75175656 -185.25 427.4375 C-183.5383592 428.80362325 -181.85133615 430.20104207 -180.1875 431.625 C-178.7641652 432.77856554 -177.34077425 433.93206239 -175.91650391 435.08447266 C-172.55697469 437.81205996 -169.21652005 440.56290424 -165.875 443.3125 C-164.7780481 444.21440063 -164.7780481 444.21440063 -163.65893555 445.13452148 C-159.77389732 448.33515778 -155.91283611 451.55992535 -152.08740234 454.83154297 C-149.48932042 457.05082119 -146.87307729 459.24785653 -144.25 461.4375 C-143.39051758 462.15873047 -143.39051758 462.15873047 -142.51367188 462.89453125 C-140.77268058 464.34312774 -139.01469168 465.76792141 -137.25 467.1875 C-136.72180664 467.63061523 -136.19361328 468.07373047 -135.64941406 468.53027344 C-133.24126056 470.43242159 -131.82897642 471.46151285 -128.70703125 471.33203125 C-126.09962568 470.38275323 -123.51070983 469.41396605 -120.9375 468.375 C-113.75528526 465.73702837 -108.40857765 465.66161794 -101.20703125 468.390625 C-94.04677868 472.22085991 -90.86847142 477.95615309 -88.25 485.4375 C-87.0357832 493.28882667 -87.65344206 500.79658059 -92.25 507.4375 C-97.6313552 513.69253405 -103.54448212 515.93499187 -111.25 519.4375 C-111.25 549.1375 -111.25 578.8375 -111.25 609.4375 C-93.01557134 618.0184076 -74.78824917 626.59262488 -56.50390625 635.0625 C-45.9152149 639.97851948 -35.36017266 644.96645491 -24.80386353 649.95153809 C-22.82924 650.88180121 -20.85205978 651.80644251 -18.87451172 652.73046875 C-16.56409851 653.81148847 -14.27582417 654.91941001 -11.98876953 656.05078125 C-11.02438965 656.51871094 -10.06000977 656.98664062 -9.06640625 657.46875 C-7.83772827 658.08073242 -7.83772827 658.08073242 -6.58422852 658.70507812 C-2.9915418 659.83237236 -0.50970587 659.09327688 2.77270508 657.38452148 C3.43165771 656.94696533 4.09061035 656.50940918 4.76953125 656.05859375 C5.91276855 655.30775513 5.91276855 655.30775513 7.07910156 654.54174805 C7.89862305 653.99172119 8.71814453 653.44169434 9.5625 652.875 C10.87105957 652.01032104 10.87105957 652.01032104 12.20605469 651.12817383 C15.05950797 649.23938517 17.90497302 647.33895259 20.75 645.4375 C22.68590385 644.15059918 24.62210384 642.86414376 26.55859375 641.578125 C30.56262957 638.91615571 34.56216019 636.24758671 38.55859375 633.57421875 C42.77377872 630.75493248 46.99552451 627.9458725 51.22265625 625.14453125 C52.28452148 624.43981689 53.34638672 623.73510254 54.44042969 623.0090332 C56.44899233 621.67632645 58.45866928 620.34529677 60.46972656 619.01635742 C62.26915365 617.82087129 64.0554801 616.6052948 65.82447338 615.36521912 C68.75 613.4375 68.75 613.4375 71.64754963 612.04367065 C75.52337076 609.93498941 78.95665698 607.90697829 80.3722856 603.50048065 C81.40992217 597.37675893 81.12648606 591.16217695 80.9987793 584.9765625 C80.99567461 582.87688867 80.99742181 580.77720291 81.00364685 578.67753601 C81.00679915 572.98912364 80.94219844 567.30327012 80.86533332 561.61545181 C80.79650033 555.66718829 80.79010202 549.71886401 80.77705383 543.77026367 C80.74288403 532.51122913 80.65264437 521.25337153 80.54220945 509.99485493 C80.41919543 497.17524921 80.35876185 484.35558685 80.30355966 471.53553772 C80.18862591 445.168873 79.99518399 418.80325249 79.75 392.4375 C78.8528125 392.42291748 77.955625 392.40833496 77.03125 392.39331055 C73.668693 392.3318692 70.30690297 392.2576487 66.94482422 392.17504883 C65.49603719 392.14201197 64.04712801 392.11391545 62.59814453 392.09106445 C44.75104814 391.80201775 44.75104814 391.80201775 38 386.125 C31.82443366 378.74862909 30.31001116 373.59992598 30.41796875 364.08984375 C31.00288963 357.6557141 33.0290148 352.80504762 37.9453125 348.52734375 C44.03306789 344.27796994 48.51272434 343.33365135 55.921875 343.12109375 C56.6042926 343.10031265 57.28671021 343.07953156 57.98980713 343.05812073 C60.15977356 342.99297948 62.32985624 342.93390596 64.5 342.875 C65.97527221 342.83178103 67.45053287 342.78816568 68.92578125 342.74414062 C72.53373166 342.63733482 76.14181133 342.53596847 79.75 342.4375 C80.17095764 314.89096392 80.4881257 287.3449115 80.68261909 259.79580402 C80.77533798 247.00331762 80.90167766 234.21283243 81.10791016 221.42163086 C81.28763309 210.26929673 81.40351833 199.11841194 81.44359291 187.96466988 C81.46701263 182.06086148 81.5218081 176.16119812 81.65314102 170.25872231 C81.77593149 164.69475181 81.81290119 159.13660407 81.78593826 153.57140732 C81.79086487 151.53665986 81.82634557 149.50170508 81.89569855 147.46813393 C82.42410549 136.75317506 82.42410549 136.75317506 78.02232122 127.37319541 C73.78010453 123.5152095 69.07856187 120.55933388 64.08935714 117.7658056 C61.03302285 116.03039467 58.12118946 114.1065056 55.19458401 112.16276723 C53.14181371 110.8033555 51.07013064 109.47680044 48.9921875 108.15625 C44.75040427 105.44897707 40.55761553 102.67259943 36.375 99.875 C35.6634375 99.39949707 34.951875 98.92399414 34.21875 98.43408203 C32.64983671 97.38510714 31.08116675 96.33576826 29.51269531 95.28613281 C24.3774951 91.8499596 19.24024135 88.41687021 14.10125732 84.98635864 C12.27081329 83.76390011 10.44130405 82.5400513 8.61181641 81.31616211 C7.4808416 80.56096428 6.34982156 79.80583417 5.21875 79.05078125 C4.21263672 78.37829346 3.20652344 77.70580566 2.16992188 77.01293945 C-0.13186978 75.44939533 -0.13186978 75.44939533 -2.25 74.4375 Z " fill="#FEFEFE" transform="translate(295.25,32.5625)"/>
<path d="M0 0 C2.80904017 2.63959209 5.38938407 5.39942725 7.9296875 8.296875 C13.73905267 14.78990472 19.93012156 20.87889102 26.125 27 C39.82746826 40.54030888 39.82746826 40.54030888 44.25956726 45.95814514 C45.93053965 47.91699276 45.93053965 47.91699276 47.95423889 49.35429382 C54.55137691 54.58641209 55.60557162 60.76116077 56.56568909 68.69088745 C56.74034465 70.4064349 56.90701945 72.12281041 57.06640625 73.83984375 C57.15100035 74.72332615 57.23559444 75.60680855 57.322752 76.51706314 C57.93386486 83.27561587 58.29439513 90.03248679 58.5625 96.8125 C58.60702301 97.80988567 58.65154602 98.80727135 58.69741821 99.83488083 C59.58124479 121.8258189 58.88721214 142.08910563 43.68946838 159.18754578 C36.71310832 166.58001806 29.1980151 173.31256798 21.5 179.9375 C15.54828466 185.12668893 9.61784086 190.33992643 3.7265625 195.59765625 C2.68622958 196.52407708 2.68622958 196.52407708 1.62487984 197.46921349 C-8.85616819 206.89548092 -17.9531276 216.16656455 -19.09326172 230.99676514 C-19.22435833 242.88546257 -16.20531554 252.48082008 -7.91345215 261.27947998 C-4.16763188 265.05207193 -0.24337618 268.61826123 3.7265625 272.15234375 C4.77797865 273.08957024 4.77797865 273.08957024 5.85063553 274.04573059 C9.53031587 277.31351551 13.22712817 280.56165758 16.92718506 283.80633545 C17.6799044 284.4665847 18.43262375 285.12683395 19.20815277 285.80709076 C20.73627335 287.14422488 22.26727187 288.47807711 23.80112457 289.8086319 C43.5327842 306.98921104 57.29299744 321.90257173 59.51184082 348.86275291 C59.87865927 354.85160795 59.92230999 360.81013106 59.80490112 366.80763626 C59.75072529 369.71112865 59.7478011 372.61142196 59.75024414 375.51535034 C59.61207954 394.2311344 57.7229128 410.14173346 44.2678833 424.00027466 C39.73758032 428.40734199 34.92611387 432.44085539 29.99357605 436.38623047 C26.18293455 439.55428376 23.12488951 443.05536705 20 446.875 C16.54535009 450.65584494 12.93460622 454.29264875 9.34008789 457.93994141 C8.23739847 459.06429691 7.14102105 460.19487735 6.05102539 461.33154297 C-1.24019859 468.93016889 -7.52311194 474.65281637 -18.25 476.40625 C-25.90171191 476.31929873 -32.75761377 475.33707418 -38.84765625 470.3671875 C-44.19757641 464.71493769 -46.10287872 458.0906124 -46.4375 450.4375 C-46.10482331 440.5126455 -41.82252824 433.74950941 -35 426.875 C-33.81470703 425.65103516 -33.81470703 425.65103516 -32.60546875 424.40234375 C-28.94090542 420.67023086 -25.23696797 417.06090312 -21.26953125 413.65234375 C-16.48575835 409.49936098 -12.06562236 405.01377924 -7.625 400.5 C-6.03616475 398.88574338 -4.44513097 397.27364674 -2.8515625 395.6640625 C-2.15885254 394.95975098 -1.46614258 394.25543945 -0.75244141 393.52978516 C1 391.875 1 391.875 3 390.875 C7.53877129 376.71699595 10.42984 359.73142187 4.04988098 345.71530914 C0.27550521 339.09930374 -6.02482974 334.09232919 -11.6953125 329.15234375 C-12.41552708 328.52433868 -13.13574165 327.89633362 -13.87778091 327.2492981 C-16.89184003 324.63730537 -19.9203988 322.04296883 -22.95981789 319.46053696 C-46.79620723 299.20041679 -67.44272088 280.61830353 -70.77561092 248.01992416 C-72.69486699 223.09911614 -70.96509285 197.73871303 -54.30753708 177.97377396 C-44.05689533 166.41375819 -32.45842256 156.30509404 -20.70849609 146.31689453 C-17.71452305 143.75710442 -14.73194433 141.18496553 -11.76171875 138.59765625 C-11.04820251 137.97688202 -10.33468628 137.35610779 -9.59954834 136.71652222 C0.76641715 127.54637566 6.63397532 120.24485567 7.9115448 105.94523621 C8.16940758 96.05296669 6.77244258 86.35400525 4 76.875 C3.44151367 76.64321045 2.88302734 76.4114209 2.30761719 76.17260742 C-0.60499328 74.53480329 -2.58190794 72.49961285 -4.921875 70.11328125 C-5.38555481 69.64439987 -5.84923462 69.17551849 -6.32696533 68.69242859 C-7.80617025 67.19548402 -9.27852701 65.69204251 -10.75 64.1875 C-16.97417208 57.84419014 -23.22673151 51.63768696 -30 45.875 C-38.38324602 38.53802697 -44.68845918 31.47155393 -46.4296875 20.05859375 C-46.78041759 12.8067333 -45.2703086 4.96524188 -40.64453125 -0.8203125 C-28.77824838 -11.44588483 -11.60740217 -9.72636071 0 0 Z " fill="#FEFEFE" transform="translate(271,166.125)"/>
<path d="M0 0 C5.06777545 7.13242471 6.85852992 14.73110906 5.6875 23.375 C3.85174325 31.32632512 0.42586662 36.69506889 -5.3125 42.375 C-5.95574219 43.04273438 -6.59898437 43.71046875 -7.26171875 44.3984375 C-10.38579338 47.60230185 -13.59497935 50.62683676 -16.98828125 53.54296875 C-21.74311575 57.6792613 -26.14520502 62.13408344 -30.5625 66.625 C-32.12781901 68.21589612 -33.69544269 69.80452868 -35.265625 71.390625 C-35.94786133 72.08446289 -36.63009766 72.77830078 -37.33300781 73.49316406 C-39.3125 75.375 -39.3125 75.375 -41.39599609 76.6081543 C-47.85506974 82.56284423 -47.71743066 96.0729954 -48.1484375 104.26391602 C-47.99134883 116.04084072 -45.11527643 124.43240049 -36.81738281 132.64746094 C-34.13702139 135.19625778 -31.3887343 137.65473846 -28.6015625 140.0859375 C-27.8818137 140.7142919 -27.1620649 141.34264629 -26.42050552 141.99004173 C-23.40870455 144.60354765 -20.38268701 147.19979875 -17.34626198 149.78464794 C6.47455988 170.07051346 27.12962512 188.6204687 30.46291351 221.23027325 C32.38252986 246.16154642 30.65888335 271.53223763 13.97361374 291.29449081 C3.72939239 302.83140368 -7.55135909 313.01398796 -19.81933594 322.33984375 C-37.04143162 335.06342459 -37.04143162 335.06342459 -45.36186218 353.98852158 C-45.91638718 359.18288951 -46.03825228 364.30709368 -45.9375 369.52734375 C-45.92042999 370.52599583 -45.90335999 371.5246479 -45.88577271 372.55356216 C-45.51265775 383.77753977 -44.21595071 392.42744498 -36.68334961 401.0942688 C-33.56646927 404.01050659 -30.29921129 406.47315053 -26.71972656 408.7902832 C-19.61134758 413.46984588 -13.59697819 419.85841006 -7.5625 425.8125 C-6.82128906 426.52470703 -6.08007812 427.23691406 -5.31640625 427.97070312 C1.63065432 434.83669386 5.72553533 441.5903807 6 451.5 C5.92044277 458.94854593 3.48475716 464.52053275 -0.4375 470.75 C-6.76247428 476.52497652 -13.68604429 477.811063 -22.0625 477.90625 C-31.27873585 476.39974991 -37.33638598 472.22810265 -43.69921875 465.609375 C-44.81838432 464.48103241 -44.81838432 464.48103241 -45.9601593 463.32989502 C-48.3212744 460.94205498 -50.6604206 458.53392353 -53 456.125 C-54.58003406 454.52341044 -56.16140391 452.92313753 -57.74414062 451.32421875 C-69.34890123 439.55279237 -69.34890123 439.55279237 -73.77319336 434.25683594 C-76.15486789 431.47936579 -78.52253844 429.40493623 -81.53466797 427.33398438 C-91.64934079 419.95979592 -95.65245989 411.8161641 -97.59490967 399.7646637 C-98.86294824 390.49430962 -99.23612061 381.22025311 -99.4375 371.875 C-99.46951508 370.89012226 -99.50153015 369.90524452 -99.53451538 368.890522 C-100.20360317 346.97837015 -99.05539685 327.09142996 -83.96118164 310.10324097 C-76.99425665 302.70468184 -69.4969816 295.95069512 -61.8125 289.3125 C-55.86517513 284.11830804 -49.93181328 278.90841263 -44.0390625 273.65234375 C-43.34545624 273.03478085 -42.65184998 272.41721794 -41.93722534 271.78094101 C-31.45632603 262.35464104 -22.35936045 253.08328002 -21.21923828 238.25323486 C-21.08814167 226.36453743 -24.10718446 216.76917992 -32.39904785 207.97052002 C-36.14486102 204.19791871 -40.06924662 200.63187459 -44.0390625 197.09765625 C-44.73992352 196.47275551 -45.44078453 195.84785477 -46.16288376 195.20401764 C-49.84207101 191.93571153 -53.53849432 188.6871695 -57.23858643 185.44256592 C-57.99140144 184.78241234 -58.74421646 184.12225876 -59.51984406 183.44210052 C-61.04852904 182.1054836 -62.58039399 180.77249491 -64.11540985 179.44315338 C-83.97398582 162.18826863 -97.58418727 147.34497227 -99.6686554 120.23156166 C-100.06405314 113.22648816 -99.98247059 106.26046444 -99.8125 99.25 C-99.79471303 97.3109695 -99.7775351 95.37193331 -99.76098633 93.43289185 C-99.45936571 75.15010274 -98.16669564 58.44625415 -84.47105408 45.1904335 C-81.10068682 42.10476995 -77.5589299 39.27126161 -73.93240356 36.49023438 C-70.85054457 34.00203055 -68.38493318 31.28728874 -65.86578369 28.24642944 C-61.69020123 23.21559831 -56.91333155 18.6702056 -52.31591797 14.02832031 C-51.06181439 12.75759098 -49.81310988 11.48151088 -48.56982422 10.20019531 C-46.74887629 8.32412524 -44.91168757 6.46537484 -43.0703125 4.609375 C-42.52625763 4.04265076 -41.98220276 3.47592651 -41.42166138 2.89202881 C-29.82617963 -8.64194709 -13.21170418 -9.28390023 0 0 Z " fill="#FEFEFE" transform="translate(569.3125,164.625)"/>
</svg>
