<?xml version="1.0" encoding="UTF-8"?>
<svg version="1.1" xmlns="http://www.w3.org/2000/svg" width="620" height="620">
<path d="M0 0 C2.875 2.4375 2.875 2.4375 5 5 C5.70125 5.78375 6.4025 6.5675 7.125 7.375 C9 10 9 10 10.0234375 13.5078125 C11.02478517 15.88190553 11.55927243 16.78613912 13.90283203 17.92333984 C16.424192 18.5851769 18.92990378 19.06415719 21.5 19.5 C23.41335517 19.89189202 25.32481245 20.29315151 27.234375 20.703125 C28.68360352 21.0134668 28.68360352 21.0134668 30.16210938 21.33007812 C48.02869942 25.54772464 64.601933 34.43571832 79.36328125 45.15234375 C82.50957433 47.41987665 82.50957433 47.41987665 86 49 C87.89658049 48.40463082 87.89658049 48.40463082 89.6875 47.1875 C96.15112729 43.65644435 102.64489043 43.26610949 109.73828125 45.16015625 C118.33949024 48.35404214 123.19115136 53.75656331 127 62 C129.42376239 69.53894192 128.59142322 77.05032806 125.0703125 84.02734375 C124 86 124 86 122.65625 87.90234375 C121.69481021 90.13171374 121.69481021 90.13171374 123.2734375 92.6015625 C123.96695312 93.59929687 124.66046875 94.59703125 125.375 95.625 C134.98183427 110.25998495 141.34980859 127.3203911 144.45922852 144.54370117 C145.11020808 149.13697418 145.11020808 149.13697418 147.91796875 152.54296875 C148.66691406 152.75566406 149.41585938 152.96835938 150.1875 153.1875 C155.90078989 155.24501919 160.20391958 157.86095367 163.28515625 163.24609375 C167.17033903 171.72665401 168.46870848 179.76967989 165.1640625 188.6953125 C161.55199821 195.84671495 156.28229567 200.54091198 148.8828125 203.44140625 C147 204 147 204 145 204 C144.9175 205.175625 144.835 206.35125 144.75 207.5625 C142.56514734 226.7173726 134.22064075 244.38214227 125.04980469 261.05566406 C123.99053778 263.01752492 122.98676123 265.0008329 122 267 C122.61875 267.86625 123.2375 268.7325 123.875 269.625 C128.0330605 276.22897844 128.86542116 282.30736746 128 290 C125.57466711 298.39034082 120.64849595 304.71684227 113 309 C106.79329526 311.38719413 99.8544034 312.43937877 93.5 310.06640625 C91.98215111 309.34492873 90.48163668 308.58495589 89.0078125 307.77734375 C86.39765347 306.7667958 85.58629705 306.91692976 83 308 C80.70565145 309.47864423 78.47847075 310.99107934 76.25 312.5625 C58.57665468 324.63384258 32.87076586 338 11 338 C10.95875 338.825 10.9175 339.65 10.875 340.5 C8.89425946 348.42296214 2.77838877 353.82312504 -4 358 C-10.62469061 360.2082302 -21.06633037 360.39898761 -27.5 357.5625 C-33.55961333 353.79207392 -38.81001607 347.80222282 -41 341 C-41 340.01 -41 339.02 -41 338 C-41.63421875 337.92523438 -42.2684375 337.85046875 -42.921875 337.7734375 C-67.71901111 334.27991832 -91.27119 324.0056931 -111.125 308.875 C-113.71000396 306.73745771 -113.71000396 306.73745771 -115.95703125 307.28515625 C-117.86066761 307.95124699 -119.71553243 308.7524265 -121.5625 309.5625 C-128.23488045 312.06774322 -135.13716083 312.0674507 -141.75 309.375 C-148.90222218 305.72851821 -153.52420806 301.2189525 -157 294 C-159.69655264 285.24072833 -158.08809185 276.99714318 -154 269 C-153.34 268.01 -152.68 267.02 -152 266 C-152.74443359 264.74509766 -152.74443359 264.74509766 -153.50390625 263.46484375 C-163.28667849 246.79241957 -176.29279601 224.03833822 -175 204 C-176.134375 203.835 -177.26875 203.67 -178.4375 203.5 C-184.86531519 201.87877485 -189.82782797 197.30599809 -193.421875 191.8359375 C-196.95935724 184.99167838 -198.33337711 177.99825934 -196.31640625 170.4375 C-193.58807573 163.01100695 -189.96647677 157.30043761 -182.8125 153.625 C-180.55556203 152.60114254 -178.35770984 151.78590328 -176 151 C-175.14851841 148.92881434 -175.14851841 148.92881434 -174.67578125 146.35546875 C-174.45623779 145.37835938 -174.23669434 144.40125 -174.01049805 143.39453125 C-173.78015869 142.33621094 -173.54981934 141.27789062 -173.3125 140.1875 C-169.59867782 124.36697067 -164.18810792 109.87840059 -155.79370117 95.93359375 C-153.53451111 92.23955265 -153.53451111 92.23955265 -153 88 C-153.98249595 86.25686203 -154.96786296 84.51385396 -156.02734375 82.81640625 C-159.19927239 76.89292506 -159.04817664 68.75406741 -157.28125 62.42578125 C-153.96915623 54.55955854 -149.45812316 49.54305193 -141.67578125 45.98046875 C-133.6114123 43.0254956 -126.87804615 43.86260267 -119 47 C-117.65762967 47.64827782 -116.3210506 48.30931373 -115 49 C-114.39414063 48.56429687 -113.78828125 48.12859375 -113.1640625 47.6796875 C-107.26171462 43.48448023 -101.28354826 39.59691159 -95 36 C-93.97003906 35.38253906 -92.94007813 34.76507813 -91.87890625 34.12890625 C-78.50146525 26.35506285 -63.20713734 20.84739737 -47.875 18.75 C-43.86558057 18.01792946 -42.50823836 17.69380206 -40.07421875 14.37109375 C-39.07299565 12.26257481 -38.13761283 10.12141945 -37.2734375 7.953125 C-35.09247302 2.89542823 -31.76801433 0.34785773 -26.90625 -2.01953125 C-17.5496813 -5.62708151 -8.75394158 -4.80608557 0 0 Z M-23 13 C-26.03992177 17.39099811 -27.93098377 20.53047036 -27 26 C-24.73237272 30.28329598 -22.57993805 33.23047848 -18 35 C-13.72564847 35.20850495 -10.75072372 34.47328234 -7.125 32.1875 C-4.58404908 29.57181523 -3.15775109 27.52215967 -2.77734375 23.8515625 C-3.09826754 19.38993905 -3.77379407 16.5985621 -7.0625 13.4375 C-11.7249694 9.97422541 -18.23763084 9.08805391 -23 13 Z M-41 32 C-64.97239098 36.71995263 -86.3177341 46.66148588 -106 61 C-105.90460938 61.76183594 -105.80921875 62.52367188 -105.7109375 63.30859375 C-104.77251169 72.04904811 -104.56306824 78.96600143 -109.8125 86.3125 C-114.26634632 91.72150854 -119.00928871 95.50673097 -126 97 C-130.34671051 97.23428371 -134.65206516 97.17895464 -139 97 C-146.75092237 110.26268938 -153.07911523 123.27486476 -157.375 138.0625 C-157.76981567 139.42024536 -157.76981567 139.42024536 -158.17260742 140.80541992 C-158.41213135 141.66498291 -158.65165527 142.5245459 -158.8984375 143.41015625 C-159.21820557 144.55689819 -159.21820557 144.55689819 -159.54443359 145.72680664 C-160.04759159 148.23747338 -160.1980899 150.44648049 -160 153 C-158.23508594 154.556459 -158.23508594 154.556459 -155.875 155.6875 C-149.86405747 159.34715902 -146.0696128 164.70850474 -144.359375 171.5703125 C-143.10470722 180.0529577 -144.64905336 185.92502582 -148.875 193.25 C-152.02624665 197.3280839 -155.40649262 199.78110237 -160 202 C-159.3153411 216.37783683 -154.19303438 230.24727573 -147.91943359 243.09228516 C-147.30597077 244.3651472 -146.7150101 245.64909836 -146.14697266 246.94287109 C-144.28237388 251.15731622 -142.38176713 254.77194956 -139 258 C-135.10846776 258.94458892 -131.69694003 259.0012169 -127.69921875 258.93359375 C-121.35508231 259.04748004 -116.5242721 261.39140983 -112.12890625 265.93359375 C-106.78169924 272.71698106 -104.56256863 279.70932029 -105.1640625 288.359375 C-105.39817416 290.24564609 -105.69305161 292.12420429 -106 294 C-87.99117768 309.1005653 -63.62523201 321.20137123 -40 323 C-39.59910156 322.33613281 -39.19820313 321.67226563 -38.78515625 320.98828125 C-34.34123738 314.08559548 -29.97275069 309.8142083 -22.01953125 307.3984375 C-12.76610771 305.57281042 -5.07361442 307.84308436 2.8125 312.75 C5.80869317 315.83179869 7.85529619 319.29778313 10 323 C17.28005853 322.46547657 23.66427189 320.78329515 30.5625 318.4375 C31.61663086 318.08107422 32.67076172 317.72464844 33.75683594 317.35742188 C47.28429959 312.65975522 59.41870976 306.44210437 71 298 C71.94230469 297.39027344 72.88460937 296.78054688 73.85546875 296.15234375 C76.31537527 294.16053919 76.31537527 294.16053919 76.1640625 291.08203125 C75.98617187 290.00308594 75.80828125 288.92414063 75.625 287.8125 C74.69450705 279.73618257 76.13307345 274.50739221 80.5625 267.75 C84.24156549 263.25436143 88.40608602 260.58359819 94 259 C96.54166136 258.97852873 99.0839724 259.00181874 101.625 259.0625 C107.25630791 258.84818729 107.25630791 258.84818729 111.4921875 255.3984375 C113.3738592 252.42961671 114.800296 249.28660366 116.14697266 246.04541016 C116.99084875 244.02194308 117.90865031 242.0513258 118.85546875 240.07421875 C124.44521062 228.18532451 129.64910682 215.27014193 130 202 C129.49210937 201.731875 128.98421875 201.46375 128.4609375 201.1875 C121.72037004 197.35017321 117.51902755 192.79756888 114.625 185.5625 C113.01552941 176.38851764 114.14971314 169.20028953 119.1328125 161.17578125 C122.1411652 157.22109244 125.66540486 155.2097936 130 153 C129.43900752 146.61233566 128.35311864 140.75903781 126.5 134.625 C126.24226807 133.76938477 125.98453613 132.91376953 125.71899414 132.03222656 C122.74733478 122.60513164 118.66558035 113.70319826 114 105 C113.61303955 104.23655273 113.2260791 103.47310547 112.82739258 102.68652344 C111.67831292 100.59427256 110.59666271 98.77477995 109 97 C105.9974613 96.1847904 105.9974613 96.1847904 102.8125 96.75 C96.21508158 97.18384384 91.84339132 95.94859893 86 93 C85.28972656 92.70867187 84.57945312 92.41734375 83.84765625 92.1171875 C81.52596853 90.71337632 81.03505437 89.47492999 80 87 C79.65839844 86.40960938 79.31679688 85.81921875 78.96484375 85.2109375 C74.50182319 77.23519733 74.77714501 69.81202374 76 61 C55.56949875 46.7551527 35.27068784 37.55318564 11 32 C8.25865223 35.40227779 8.25865223 35.40227779 5.61328125 38.87890625 C1.85160506 43.74762227 -1.98892986 46.51254451 -8 48 C-16.9759697 49.11281028 -24.5897311 48.45876162 -32 43 C-34.27893893 40.83234684 -36.16847151 38.55044621 -38 36 C-38.99962363 34.66638447 -39.99953337 33.33298323 -41 32 Z M-140 63 C-142.40897521 65.97106942 -142.96512871 67.6745346 -143.375 71.5 C-142.85776052 76.32756847 -141.53461736 78.7284599 -137.8125 81.8125 C-134.12570916 83.36914502 -130.89689064 83.79310494 -127 83 C-123.03681689 80.65144705 -120.83593146 78.48132587 -119.4375 74.125 C-118.61509205 69.73051714 -119.73245839 66.85482074 -122 63 C-124.76026949 59.9330339 -127.89176739 59.24346536 -131.97265625 58.87109375 C-135.49362142 59.09497015 -137.42116407 60.72102872 -140 63 Z M91.1875 63.75 C89.51692739 66.91529548 89.12328699 69.42467732 89 73 C90.63794753 77.64085133 92.72117084 80.5277876 97 83 C101.91336509 83.62391938 103.9727839 83.53263057 108.375 81.25 C112.14091285 78.0220747 112.86438813 76.49173061 113.3125 71.5625 C112.97075223 67.66657541 112.4451543 66.01569031 110 63 C107.17671449 60.72909643 105.09078052 59.19088659 101.5 58.5625 C97.37501192 59.28437291 94.20411576 60.83740547 91.1875 63.75 Z M-179 169 C-181.61525329 173.05815166 -182.70124748 176.19144587 -182 181 C-179.73237272 185.28329598 -177.57993805 188.23047848 -173 190 C-168.72564847 190.20850495 -165.75072372 189.47328234 -162.125 187.1875 C-159.58404908 184.57181523 -158.15775109 182.52215967 -157.77734375 178.8515625 C-158.09826754 174.38993905 -158.77379407 171.5985621 -162.0625 168.4375 C-167.50441132 164.41473188 -173.73610953 164.48809389 -179 169 Z M131 169 C128.38474671 173.05815166 127.29875252 176.19144587 128 181 C130.26762728 185.28329598 132.42006195 188.23047848 137 190 C141.27435153 190.20850495 144.24927628 189.47328234 147.875 187.1875 C150.41595092 184.57181523 151.84224891 182.52215967 152.22265625 178.8515625 C151.90173246 174.38993905 151.22620593 171.5985621 147.9375 168.4375 C142.49558868 164.41473188 136.26389047 164.48809389 131 169 Z M-140.875 276.5 C-143.53018924 280.04025232 -143.29210126 283.76453174 -143 288 C-141.20882468 292.14798495 -139.16507424 294.2414131 -135 296 C-129.89742673 296.64794581 -128.04247673 296.63706911 -123.625 293.9375 C-120.61015621 290.56374624 -119.6270127 288.4674655 -119 284 C-119.67466518 279.78334264 -120.77388504 278.22611496 -123.8125 275.1875 C-130.13243226 270.85029159 -134.78653052 271.62922441 -140.875 276.5 Z M91.0625 276.75 C88.99022082 281.13835592 88.50048728 284.58471396 90.125 289.1875 C92.21758876 292.32638313 93.72378001 294.10707289 97 296 C101.91336509 296.62391938 103.9727839 296.53263057 108.375 294.25 C112.11134034 291.04742257 112.83381154 289.49569615 113.375 284.625 C112.9191792 280.21873222 111.93169048 278.30754823 109 275 C102.53431262 271.24481912 96.76682014 271.59771084 91.0625 276.75 Z M-26 327 C-27.12637087 330.09751989 -27.40423566 332.73096379 -27 336 C-24.89237548 340.377374 -22.57374011 343.23287314 -18 345 C-13.72564847 345.20850495 -10.75072372 344.47328234 -7.125 342.1875 C-4.58404908 339.57181523 -3.15775109 337.52215967 -2.77734375 333.8515625 C-3.09826754 329.38993905 -3.77379407 326.5985621 -7.0625 323.4375 C-10.30897512 321.06737399 -12.97751739 320.07258924 -17.00390625 320.42578125 C-20.95611791 321.56271885 -23.62797557 323.6668967 -26 327 Z " fill="#FEFEFE" transform="translate(325,16)"/>
<path d="M0 0 C5.36759043 3.6221146 8.71435906 8.08872461 11.828125 13.71484375 C12.16972656 14.318125 12.51132812 14.92140625 12.86328125 15.54296875 C16.73290552 23.82216486 16.05380754 34.49486407 13.015625 42.90234375 C10.82173491 47.35607884 8.23658155 50.72551731 4.85009766 54.34587097 C4.36734186 54.86334182 3.88458607 55.38081267 3.38720131 55.91396445 C-1.87355212 61.52266815 -7.28076669 66.98689708 -12.7109375 72.4309082 C-13.81802589 73.5442849 -14.92493357 74.65784131 -16.03167725 75.77156067 C-19.61660131 79.37721693 -23.20657668 82.97782142 -26.796875 86.578125 C-28.04326324 87.82857002 -29.28962124 89.07904519 -30.53594971 90.32954979 C-36.38692397 96.19949441 -42.24025181 102.06707941 -48.09652519 107.93173724 C-54.82131552 114.66632067 -61.53771666 121.40912977 -68.24722481 128.15893775 C-73.46258631 133.40453332 -78.68567138 138.64235852 -83.91451836 143.87451142 C-87.02553281 146.98786443 -90.13322477 150.10436355 -93.23272705 153.22918129 C-96.14607506 156.16594892 -99.06896795 159.09288065 -101.99915314 162.01284599 C-103.06556515 163.0787662 -104.12863182 164.14804685 -105.18785858 165.22110748 C-119.20271082 179.40854784 -131.44085151 184.52930911 -150.859375 186.984375 C-152.46988218 187.19456648 -154.08031274 187.40534566 -155.69067383 187.61665344 C-161.18235991 188.3324524 -166.6767874 189.02570353 -172.171875 189.71484375 C-173.6878125 189.90505726 -173.6878125 189.90505726 -175.234375 190.09911346 C-194.61659507 192.52758111 -214.00374488 194.91735614 -233.39355469 197.28442383 C-239.23352355 197.99761879 -245.07265265 198.7173676 -250.9112854 199.44141579 C-253.11180273 199.71301092 -255.31262747 199.98212786 -257.51376343 200.24866295 C-260.55815415 200.61750257 -263.6014052 200.99466727 -266.64453125 201.3737793 C-267.54090302 201.48029312 -268.43727478 201.58680695 -269.36080933 201.69654846 C-275.70635415 202.50006807 -280.32199605 203.47387521 -284.95239258 208.15478516 C-285.65274124 208.85536041 -286.3530899 209.55593567 -287.07466125 210.27774048 C-287.8144371 211.03300018 -288.55421295 211.78825989 -289.31640625 212.56640625 C-290.08619308 213.34043793 -290.85597992 214.1144696 -291.64909363 214.91195679 C-294.10132814 217.38095725 -296.54291415 219.86019379 -298.984375 222.33984375 C-300.64709472 224.0176129 -302.31049839 225.69470453 -303.97460938 227.37109375 C-308.04832792 231.477854 -312.11335739 235.59306347 -316.171875 239.71484375 C-320.5965014 237.12087881 -323.64041835 234.4105542 -327.171875 230.71484375 C-325.75595736 227.52265461 -324.05147146 225.31077603 -321.63110352 222.80419922 C-320.90597061 222.05016815 -320.18083771 221.29613708 -319.43373108 220.51925659 C-316.09252878 217.10195304 -312.75017181 213.68616446 -309.38989258 210.28759766 C-307.62565958 208.49530432 -305.8713037 206.69323236 -304.12719727 204.88134766 C-301.6027504 202.25913554 -299.04958285 199.66819834 -296.48828125 197.08203125 C-295.72012589 196.27369843 -294.95197052 195.4653656 -294.16053772 194.63253784 C-293.40703537 193.8848111 -292.65353302 193.13708435 -291.87719727 192.36669922 C-291.23259048 191.70813934 -290.5879837 191.04957947 -289.92384338 190.37106323 C-285.62016165 187.78097478 -281.0994417 187.38401535 -276.171875 186.71484375 C-275.14362515 186.57375813 -274.11537531 186.4326725 -273.05596638 186.28731155 C-269.61873629 185.83737031 -266.17879811 185.41857446 -262.73681641 185.0065918 C-260.74516508 184.7639456 -258.75351439 184.52129404 -256.76188827 184.27844107 C-254.64296559 184.02053951 -252.52387124 183.76408742 -250.40474319 183.50787926 C-245.96372038 182.97027645 -241.52368311 182.42482322 -237.08383179 181.87763977 C-236.33063616 181.78484967 -235.57744054 181.69205958 -234.80142081 181.59645766 C-233.26247356 181.40685881 -231.7235281 181.2172455 -230.18458438 181.02761805 C-219.8664749 179.7566243 -209.54776223 178.4910335 -199.2265625 177.24536133 C-192.23850735 176.40190726 -185.25203366 175.54644806 -178.26710069 174.67750579 C-174.58294107 174.21967326 -170.89828088 173.76777972 -167.21159744 173.3306942 C-163.09392814 172.84241946 -158.97994485 172.32779641 -154.86572266 171.8112793 C-153.06822823 171.60451317 -153.06822823 171.60451317 -151.23442078 171.39356995 C-140.83532227 170.04992489 -130.02574004 167.67395262 -122.50512695 159.92456055 C-121.59160965 159.00398361 -120.67809235 158.08340668 -119.7368927 157.13493347 C-118.79434732 156.14492858 -117.85210864 155.15463161 -116.91015625 154.1640625 C-115.90413174 153.13797608 -114.8961305 152.11382443 -113.88627625 151.09150696 C-111.26349886 148.42732895 -108.66490683 145.74084959 -106.07196045 143.04766846 C-101.89111041 138.71476413 -97.67086027 134.42010033 -93.45580101 130.12052345 C-91.99035243 128.61968602 -90.53365592 127.11078054 -89.07844543 125.60002136 C-88.1996019 124.69520523 -87.32075836 123.7903891 -86.4152832 122.8581543 C-85.64175003 122.05605026 -84.86821686 121.25394623 -84.07124329 120.42753601 C-82.171875 118.71484375 -82.171875 118.71484375 -80.171875 118.71484375 C-79.8315625 117.84859375 -79.8315625 117.84859375 -79.484375 116.96484375 C-77.8310057 114.13049639 -75.74223556 112.74722186 -73.171875 110.71484375 C-72.25400619 109.65011593 -71.35811846 108.56607072 -70.484375 107.46484375 C-69.3396875 106.10359375 -69.3396875 106.10359375 -68.171875 104.71484375 C-67.511875 104.71484375 -66.851875 104.71484375 -66.171875 104.71484375 C-66.171875 104.05484375 -66.171875 103.39484375 -66.171875 102.71484375 C-64.5625 101.1640625 -64.5625 101.1640625 -62.421875 99.40234375 C-59.25085953 96.71532538 -56.74944197 93.97976191 -54.171875 90.71484375 C-53.2025 89.91046875 -52.233125 89.10609375 -51.234375 88.27734375 C-48.90581802 86.32895934 -47.27071479 84.72566455 -45.421875 82.40234375 C-44.308125 81.07203125 -44.308125 81.07203125 -43.171875 79.71484375 C-42.511875 79.71484375 -41.851875 79.71484375 -41.171875 79.71484375 C-41.171875 79.05484375 -41.171875 78.39484375 -41.171875 77.71484375 C-40.511875 77.71484375 -39.851875 77.71484375 -39.171875 77.71484375 C-38.841875 76.72484375 -38.511875 75.73484375 -38.171875 74.71484375 C-37.511875 74.71484375 -36.851875 74.71484375 -36.171875 74.71484375 C-36.171875 74.05484375 -36.171875 73.39484375 -36.171875 72.71484375 C-34.18927074 71.02752098 -32.1886408 69.36118318 -30.171875 67.71484375 C-29.841875 67.05484375 -29.511875 66.39484375 -29.171875 65.71484375 C-28.511875 65.71484375 -27.851875 65.71484375 -27.171875 65.71484375 C-26.841875 64.72484375 -26.511875 63.73484375 -26.171875 62.71484375 C-25.511875 62.71484375 -24.851875 62.71484375 -24.171875 62.71484375 C-23.841875 61.72484375 -23.511875 60.73484375 -23.171875 59.71484375 C-22.511875 59.71484375 -21.851875 59.71484375 -21.171875 59.71484375 C-21.171875 59.05484375 -21.171875 58.39484375 -21.171875 57.71484375 C-19.52184672 56.36097439 -17.8544363 55.02806233 -16.171875 53.71484375 C-15.841875 53.05484375 -15.511875 52.39484375 -15.171875 51.71484375 C-14.511875 51.71484375 -13.851875 51.71484375 -13.171875 51.71484375 C-12.841875 50.72484375 -12.511875 49.73484375 -12.171875 48.71484375 C-11.511875 48.71484375 -10.851875 48.71484375 -10.171875 48.71484375 C-9.841875 47.72484375 -9.511875 46.73484375 -9.171875 45.71484375 C-8.511875 45.71484375 -7.851875 45.71484375 -7.171875 45.71484375 C-6.90375 45.13734375 -6.635625 44.55984375 -6.359375 43.96484375 C-5.171875 41.71484375 -5.171875 41.71484375 -3.609375 39.65234375 C-0.14230546 34.97933698 -0.74927061 29.26451649 -1.171875 23.71484375 C-2.9130698 18.2864129 -6.39921043 14.70583663 -11.171875 11.71484375 C-15.9353719 9.76497428 -20.90402974 9.0162087 -25.91015625 10.58984375 C-31.56057249 13.40041348 -36.33170073 17.71439265 -41.171875 21.71484375 C-42.59353508 22.87916872 -44.01541893 24.04322051 -45.4375 25.20703125 C-48.37872354 27.62003372 -51.31275085 30.0414552 -54.2421875 32.46875 C-57.96942942 35.55424431 -61.73629877 38.58604081 -65.5234375 41.59765625 C-75.47383751 49.55210581 -85.31853904 57.64079 -95.171875 65.71484375 C-97.92815179 67.97033778 -100.68478055 70.22540118 -103.44140625 72.48046875 C-105.21010295 73.92781426 -106.97836043 75.37569676 -108.74609375 76.82421875 C-119.39155955 85.54427145 -130.0478963 94.25240258 -140.81640625 102.8203125 C-143.45822725 104.94516023 -146.06291471 107.11230697 -148.671875 109.27734375 C-162.6253736 120.64395778 -174.06903039 125.8994293 -192.23803711 125.82836914 C-193.22416992 125.82851517 -194.21030273 125.82866119 -195.22631836 125.82881165 C-198.46730798 125.82811815 -201.70823924 125.8203522 -204.94921875 125.8125 C-207.20365874 125.81063382 -209.45809913 125.80921086 -211.71253967 125.80821228 C-217.63246795 125.80440287 -223.5523715 125.79458607 -229.47229004 125.7835083 C-235.51863267 125.77326026 -241.56497931 125.7687074 -247.61132812 125.76367188 C-259.46485458 125.75296236 -271.31836273 125.7359049 -283.171875 125.71484375 C-283.171875 120.76484375 -283.171875 115.81484375 -283.171875 110.71484375 C-281.90813049 110.71341873 -280.64438599 110.71199371 -279.34234619 110.71052551 C-267.39639937 110.69381086 -255.45079124 110.65090068 -243.50502396 110.58275318 C-237.36446559 110.54855368 -231.22415418 110.52338409 -225.08349609 110.51928711 C-219.15047014 110.51498917 -213.21800061 110.48640174 -207.28514862 110.44141197 C-205.02873737 110.42848484 -202.77225937 110.42411219 -200.51581573 110.42868996 C-181.59215245 110.71655175 -181.59215245 110.71655175 -165.171875 102.21484375 C-164.511875 101.38984375 -163.851875 100.56484375 -163.171875 99.71484375 C-162.470625 98.95171875 -161.769375 98.18859375 -161.046875 97.40234375 C-157.11265971 91.76330184 -155.38881797 85.54854744 -155.171875 78.71484375 C-156.62377859 74.05346907 -157.91416105 71.16142274 -162.171875 68.71484375 C-165.31624163 68.26027775 -165.31624163 68.26027775 -168.87846375 68.3271637 C-169.55184007 68.32177816 -170.22521639 68.31639262 -170.91899806 68.31084388 C-173.17494453 68.29653973 -175.4303062 68.30367416 -177.6862793 68.31079102 C-179.30459058 68.30508806 -180.92289783 68.29812408 -182.54119873 68.28999329 C-186.94078112 68.27202115 -191.34016445 68.27323995 -195.73977256 68.27893567 C-199.42164187 68.28202713 -203.10347292 68.27593429 -206.78533679 68.26989692 C-215.48688769 68.2558349 -224.1883405 68.25742192 -232.88989258 68.26879883 C-241.83179369 68.28023265 -250.7733932 68.26628843 -259.71525449 68.23940235 C-267.41237379 68.21713518 -275.10939924 68.21063407 -282.80654842 68.21647877 C-287.39410754 68.21982931 -291.98147425 68.21756353 -296.56900597 68.20022774 C-300.89721469 68.18458856 -305.22498444 68.18889896 -309.55317688 68.20753288 C-311.12795753 68.21117497 -312.7027719 68.20824106 -314.27752113 68.19764709 C-341.53902425 68.02849788 -364.97381973 78.12365718 -384.734375 96.83984375 C-398.3421336 110.79307436 -405.83531555 128.17130714 -409.34765625 147.14453125 C-409.48008287 147.84674112 -409.6125095 148.548951 -409.74894905 149.27243996 C-410.02380971 150.85976447 -410.25358242 152.45578819 -410.43015862 154.05702782 C-411.42875229 161.3613134 -414.33660517 164.99577595 -419.55908203 170.01025391 C-420.32015259 170.77249268 -421.08122314 171.53473145 -421.86535645 172.32006836 C-424.36829751 174.81746672 -426.89829782 177.28537669 -429.4296875 179.75390625 C-431.17735054 181.48663767 -432.92324754 183.22115202 -434.66744995 184.95736694 C-439.2498432 189.5093009 -443.8557517 194.03669246 -448.46704102 198.55932617 C-453.17350824 203.18377231 -457.85724526 207.83111558 -462.54296875 212.4765625 C-471.73054193 221.57848854 -480.94238007 230.65543976 -490.171875 239.71484375 C-493.35274018 238.20537864 -495.47057406 236.6354255 -497.921875 234.08984375 C-498.53546875 233.45820312 -499.1490625 232.8265625 -499.78125 232.17578125 C-500.24015625 231.69367188 -500.6990625 231.2115625 -501.171875 230.71484375 C-499.85905295 227.80189001 -498.46856395 225.77799223 -496.17346191 223.56340027 C-495.55936966 222.96534576 -494.9452774 222.36729126 -494.31257629 221.75111389 C-493.64030502 221.10645676 -492.96803375 220.46179962 -492.27539062 219.79760742 C-490.80571802 218.3706095 -489.33611688 216.94353796 -487.86657715 215.5164032 C-486.69623177 214.38517816 -486.69623177 214.38517816 -485.50224304 213.23110008 C-481.36400528 209.22231331 -477.25698633 205.18168588 -473.14453125 201.14648438 C-467.91435333 196.01800744 -462.67558623 190.8993922 -457.40185547 185.81567383 C-453.136972 181.70283191 -448.90514062 177.55838886 -444.69303894 173.39153481 C-443.08756661 171.81495978 -441.47048481 170.2501121 -439.84150696 168.69783592 C-427.80722699 157.35765857 -427.80722699 157.35765857 -424.14199829 141.8394165 C-424.1518576 140.8083075 -424.16171692 139.77719849 -424.171875 138.71484375 C-419.62934343 112.85716143 -402.51143549 87.81812301 -381.2890625 72.76953125 C-363.54109427 61.0709958 -343.56352588 52.6589704 -321.98149109 52.5609436 C-321.29244542 52.55656135 -320.60339976 52.5521791 -319.89347392 52.54766405 C-317.60305188 52.53439492 -315.31266818 52.52812435 -313.0222168 52.52197266 C-311.37240429 52.51406257 -309.72259347 52.50579307 -308.07278442 52.49719238 C-302.67223741 52.47108679 -297.27168307 52.45568066 -291.87109375 52.44140625 C-290.00684925 52.43604269 -288.14260479 52.43066517 -286.27836037 52.4252739 C-278.52240894 52.40366596 -270.76645951 52.38492989 -263.01048565 52.3736515 C-251.91843834 52.35741133 -240.82674115 52.32420791 -229.73482579 52.26725066 C-221.92142955 52.22850313 -214.1081268 52.20901338 -206.29463702 52.20373094 C-201.63404161 52.20008538 -196.97382063 52.18814797 -192.3133297 52.1556282 C-187.92762795 52.12546095 -183.54252559 52.11926635 -179.1567421 52.13101196 C-177.55319415 52.13123194 -175.94961764 52.12298963 -174.34616661 52.10535812 C-163.63630228 51.99406203 -155.73739142 53.11724323 -147.296875 60.08984375 C-141.91969546 66.732242 -140.32384631 72.3327367 -139.171875 80.71484375 C-131.35665344 74.63376898 -123.62369064 68.48465383 -116.0390625 62.1171875 C-111.45169495 58.27354848 -106.80850278 54.49875837 -102.171875 50.71484375 C-101.2540625 49.96203125 -100.33625 49.20921875 -99.390625 48.43359375 C-95.12966105 44.93864579 -90.86017333 41.45754716 -86.546875 38.02734375 C-81.96023247 34.37259049 -77.44078743 30.64011055 -72.921875 26.90234375 C-67.06108394 22.05695007 -61.15273635 17.28720368 -55.13867188 12.63330078 C-52.35807273 10.47230913 -49.63563178 8.27620989 -46.98828125 5.953125 C-32.88866586 -6.4171453 -16.77290117 -9.9249721 0 0 Z " fill="#FEFEFE" transform="translate(554.171875,366.28515625)"/>
<path d="M0 0 C0.66283648 -0.00482883 1.32567297 -0.00965766 2.00859541 -0.01463282 C4.22833554 -0.0258994 6.44692243 -0.00858974 8.66661072 0.00863647 C10.25837516 0.0064905 11.85013808 0.00261263 13.44189453 -0.00286865 C17.76418954 -0.01256583 22.08607176 0.00274522 26.40831685 0.02303743 C30.92860909 0.0405968 35.44888837 0.03708359 39.96920776 0.03631592 C47.55949314 0.03818918 55.14961863 0.05555747 62.73985291 0.08285522 C71.52063713 0.11431762 80.30124629 0.12485104 89.08208281 0.12338412 C97.52363332 0.12216424 105.96512672 0.13236817 114.40666008 0.14896774 C118.00189599 0.15603633 121.59711168 0.15969465 125.1923542 0.16075516 C129.42358133 0.16276146 133.65466098 0.1749499 137.88583946 0.19508743 C139.44069135 0.20093815 140.99556021 0.20338802 142.55042267 0.20223236 C144.66878261 0.20125354 146.78672714 0.21253603 148.9050293 0.22705078 C150.09171235 0.23040247 151.2783954 0.23375416 152.50103855 0.23720741 C155.38902283 0.49447632 155.38902283 0.49447632 158.38902283 2.49447632 C159.72241013 8.00581052 159.72241013 8.00581052 159.38902283 10.49447632 C157.33235306 13.06787399 156.13892827 14.35196011 152.85795593 14.97549438 C151.90753418 14.96661194 150.95711243 14.95772949 149.97789001 14.94857788 C148.35666229 14.94812469 148.35666229 14.94812469 146.7026825 14.94766235 C145.54214355 14.92701721 144.38160461 14.90637207 143.18589783 14.88510132 C141.99297119 14.87944153 140.80004456 14.87378174 139.57096863 14.86795044 C135.75991226 14.84555558 131.94979516 14.79535061 128.13902283 14.74447632 C125.55570307 14.72441547 122.97236858 14.70616398 120.38902283 14.68978882 C114.05536889 14.64568042 107.72226296 14.5787361 101.38902283 14.49447632 C101.39271 15.16500628 101.39639717 15.83553625 101.40019608 16.52638531 C101.48853914 32.84297185 101.55472845 49.15948263 101.59627151 65.47625256 C101.61689551 73.36693601 101.64501283 81.2574598 101.69078064 89.14804077 C101.73065359 96.02560051 101.75645683 102.90304461 101.76537681 109.78071672 C101.77059085 113.42234347 101.78284183 117.06363943 101.81194305 120.70516014 C101.84416953 124.77074218 101.84498196 128.8357494 101.84312439 132.90145874 C101.85750549 134.10842911 101.8718866 135.31539948 101.88670349 136.5589447 C101.84647975 144.67242627 101.84647975 144.67242627 99.57939148 148.74638367 C97.38902283 150.49447632 97.38902283 150.49447632 93.88902283 151.05697632 C89.80483899 150.40058963 88.86528588 149.72441733 86.38902283 146.49447632 C85.90800476 143.58377075 85.90800476 143.58377075 85.93492126 140.16537476 C85.93522339 138.88434875 85.93552551 137.60332275 85.93583679 136.28347778 C85.95626188 134.89026261 85.97712583 133.49705382 85.99839783 132.10385132 C86.00586152 130.6746805 86.01155385 129.24549942 86.01554871 127.8163147 C86.03079532 124.06120369 86.07006766 120.30671507 86.11436462 116.55184937 C86.15533896 112.71770649 86.17356427 108.8834627 86.19371033 105.04916382 C86.23656399 97.53061854 86.30690462 90.01271405 86.38902283 82.49447632 C78.46902283 82.49447632 70.54902283 82.49447632 62.38902283 82.49447632 C62.42044373 85.37118042 62.42044373 85.37118042 62.45249939 88.30599976 C62.5170142 94.64425277 62.56296801 100.98242804 62.59627151 107.32091904 C62.61714166 111.16378884 62.64544789 115.00630325 62.69078064 118.84896851 C62.73426028 122.55778747 62.75816425 126.26626474 62.7685318 129.97531891 C62.7759195 131.38993967 62.79034626 132.80454184 62.81194305 134.21901703 C62.84099898 136.20095055 62.84265691 138.18322832 62.84312439 140.16537476 C62.85200684 141.29344543 62.86088928 142.42151611 62.87004089 143.58377075 C62.27709538 147.17176451 61.27156815 148.3367642 58.38902283 150.49447632 C54.88902283 151.05697632 54.88902283 151.05697632 51.38902283 150.49447632 C48.63035031 148.29283088 47.52189508 146.4488182 47.03372955 142.94261742 C46.89423313 139.58883903 46.89492831 136.25796837 46.93492126 132.90145874 C46.93433716 131.62301086 46.93375305 130.34456299 46.93315125 129.02737427 C46.93200521 125.52962194 46.9554958 122.0324201 46.98344707 118.53479552 C47.00847957 114.87663434 47.01080417 111.21846006 47.01554871 107.56022644 C47.02797311 100.63644985 47.06078727 93.71292638 47.10094666 86.78926116 C47.1456812 78.90541324 47.16765561 71.02155312 47.1877284 63.13760984 C47.22952054 46.92308391 47.29986194 30.70881243 47.38902283 14.49447632 C46.72138916 14.50335876 46.05375549 14.51224121 45.3658905 14.52139282 C38.42316745 14.60982105 31.48060411 14.67019208 24.53746033 14.71420288 C21.94559736 14.73433007 19.35377987 14.76163447 16.7620697 14.79623413 C13.03864834 14.84470133 9.31582684 14.86743448 5.59214783 14.88510132 C3.85133942 14.91606903 3.85133942 14.91606903 2.07536316 14.94766235 C0.45413544 14.94811554 0.45413544 14.94811554 -1.19984436 14.94857788 C-2.62547699 14.96190155 -2.62547699 14.96190155 -4.07991028 14.97549438 C-7.3815898 14.3480248 -8.56202225 13.10746815 -10.61097717 10.49447632 C-11.11097717 7.49447632 -11.11097717 7.49447632 -10.61097717 4.49447632 C-7.4711054 0.30957832 -5.1046202 -0.00468524 0 0 Z M62.38902283 14.49447632 C62.38902283 31.98447632 62.38902283 49.47447632 62.38902283 67.49447632 C70.30902283 67.49447632 78.22902283 67.49447632 86.38902283 67.49447632 C86.38902283 50.00447632 86.38902283 32.51447632 86.38902283 14.49447632 C78.46902283 14.49447632 70.54902283 14.49447632 62.38902283 14.49447632 Z " fill="#FEFEFE" transform="translate(235.61097717285156,147.50552368164063)"/>
<path d="M0 0 C7.08099258 5.19694277 10.61277466 10.97994619 12.1875 19.60546875 C12.99833442 27.30839575 10.53977022 34.82669916 5.84375 40.96875 C0.20685564 46.53917155 -6.63436106 49.70347573 -14.5 49.85546875 C-22.22222259 49.74190665 -28.53475457 47.72720868 -34.2421875 42.41796875 C-39.73477483 36.07826596 -42.17847861 29.32321313 -42.015625 21.03125 C-41.28845423 12.3471529 -37.29086277 6.30825288 -30.8125 0.60546875 C-21.92260578 -5.75422481 -9.23802795 -5.4243026 0 0 Z M-22.8125 13.60546875 C-25.96359528 16.99895598 -27.15384409 19.53629936 -27 24.10546875 C-26.2470212 28.55557348 -24.45491979 30.92327271 -20.83984375 33.5625 C-17.35978439 35.35281955 -14.58153523 35.68971176 -10.8125 34.60546875 C-7.05656734 32.67322594 -4.47904937 30.43847953 -3.015625 26.4140625 C-2.32004962 22.30321202 -2.60199375 20.06016226 -4.375 16.23046875 C-7.04529947 13.35476163 -9.14914789 11.97922579 -12.8125 10.60546875 C-17.28288145 10.60546875 -19.06029819 11.26034262 -22.8125 13.60546875 Z " fill="#FEFEFE" transform="translate(324.8125,93.39453125)"/>
</svg>
