<svg xmlns="http://www.w3.org/2000/svg" xmlns:xlink="http://www.w3.org/1999/xlink" version="1.1" id="Uploaded to svgrepo.com" width="800px" height="800px" viewBox="0 0 32 32" xml:space="preserve" transform="rotate(0) scale(1, 1)">
<style type="text/css">.duotone_een { fill: #fff; }.duotone_twee { fill: #cccece; }</style>
<g>
	<g>
		<g>
			<path class="duotone_een" d="M24.06,9.958l-1.414-1.414c-0.195-0.195-0.512-0.195-0.707,0L9.692,20.789l2.121,2.121L24.06,10.665     C24.255,10.47,24.255,10.153,24.06,9.958z" fill="#ffffff"/>
		</g>
		<g>
			<path class="duotone_een" d="M24.06,9.958l-1.414-1.414c-0.195-0.195-0.512-0.195-0.707,0L9.692,20.789l2.121,2.121L24.06,10.665     C24.255,10.47,24.255,10.153,24.06,9.958z" fill="#ffffff"/>
		</g>
	</g>
	<path class="duotone_twee" d="M14.71,5.837c0.062,0.133,0.232,0.26,0.377,0.282c2.058,0.314,1.982,0.099,0.485,1.633   c-0.097,0.099-0.158,0.293-0.136,0.43c0.354,2.17,0.546,2.05-1.299,1.031c-0.133-0.074-0.351-0.074-0.484,0   c-1.844,1.019-1.653,1.142-1.299-1.031c0.022-0.137-0.039-0.33-0.136-0.43c-1.5-1.537-1.569-1.319,0.485-1.633   c0.145-0.022,0.315-0.149,0.377-0.282C14.01,3.862,13.783,3.863,14.71,5.837z M21.491,18.968c-0.117,0.249-0.435,0.487-0.707,0.528   c-0.882,0.135-0.797,0.229-0.237,0.803c0.192,0.197,0.313,0.58,0.269,0.851c-0.133,0.815-0.172,0.963,0.643,0.512   c0.241-0.133,0.635-0.133,0.875,0c0.815,0.451,0.776,0.303,0.643-0.512c-0.044-0.271,0.077-0.655,0.269-0.851   c0.56-0.574,0.645-0.668-0.237-0.803c-0.272-0.042-0.59-0.279-0.707-0.528C21.907,18.127,21.863,18.175,21.491,18.968z    M25.212,14.619c-0.229,0.035-0.281,0.201-0.115,0.369c0.166,0.168,0.269,0.501,0.23,0.738c-0.039,0.238,0.096,0.34,0.301,0.228   c0.205-0.112,0.54-0.112,0.744,0c0.205,0.112,0.34,0.01,0.301-0.228c-0.039-0.238,0.064-0.57,0.23-0.738   c0.166-0.168,0.114-0.335-0.115-0.369s-0.5-0.24-0.602-0.456c-0.102-0.216-0.27-0.216-0.372,0   C25.712,14.379,25.441,14.584,25.212,14.619z M8.985,21.496l-3.839,3.839c-0.195,0.195-0.195,0.512,0,0.707l1.414,1.414   c0.195,0.195,0.512,0.195,0.707,0l3.839-3.839L8.985,21.496z" fill="#ffffff"/>
</g>
</svg>