<?xml version="1.0" encoding="UTF-8"?>
<svg version="1.1" xmlns="http://www.w3.org/2000/svg" width="800" height="800">
<path d="M0 0 C3.80466646 -0.03306341 7.60929521 -0.05279439 11.4140625 -0.0703125 C12.48019775 -0.07973877 13.54633301 -0.08916504 14.64477539 -0.09887695 C49.98027409 -0.22058361 78.53245409 15.9683324 103.21484375 40.171875 C116.22953574 53.90516962 124.84903474 71.33697658 129.8125 89.4375 C130.00763184 90.1392334 130.20276367 90.8409668 130.40380859 91.56396484 C134.84598967 109.08568349 134.25502867 127.05410156 134.1373291 144.98101807 C134.1165566 148.48797152 134.10766954 151.99495537 134.09765625 155.50195312 C134.07645875 162.33471555 134.04140047 169.16733034 134 176 C125.75 176 117.5 176 109 176 C108.95101562 172.23851562 108.90203125 168.47703125 108.8515625 164.6015625 C108.79732161 160.89775114 108.74010561 157.1939966 108.68261719 153.49023438 C108.64468678 150.94568234 108.60977637 148.4010832 108.578125 145.85644531 C108.09964049 107.846832 103.70253935 77.75206255 75.97265625 49.96875 C64.04630451 38.87446931 48.38278184 31.72645204 32.7121582 27.89746094 C31.96981178 27.71408173 31.22746536 27.53070251 30.4626236 27.34176636 C28.64226675 26.89240852 26.8212029 26.44591645 25 26 C25.00092179 26.93332877 25.00184359 27.86665754 25.00279331 28.828269 C25.02514253 51.69734873 25.04149596 74.56642701 25.05181217 97.4355154 C25.05693553 108.49550709 25.06390126 119.5554915 25.07543945 130.61547852 C25.08550887 140.27229142 25.09188209 149.92909905 25.09408849 159.58591706 C25.09537513 164.68370822 25.09832734 169.7814843 25.10573006 174.87927055 C25.11268542 179.70964466 25.11457887 184.53999795 25.11310768 189.37037659 C25.1133755 191.11259132 25.1152619 192.854807 25.11920547 194.59701729 C25.15602813 211.75501482 24.52024713 228.83184455 24 246 C69.21 246 114.42 246 161 246 C161 233.46 161 220.92 161 208 C124.04 208 87.08 208 49 208 C49 170.71 49 133.42 49 95 C57.58 95 66.16 95 75 95 C75 123.71 75 152.42 75 182 C101.73 182 128.46 182 156 182 C156 136.46 156 90.92 156 44 C209.13 44 262.26 44 317 44 C317 89.87 317 135.74 317 183 C375.74 182.34 434.48 181.68 495 181 C495 152.95 495 124.9 495 96 C495.33 95.67 495.66 95.34 496 95 C504.25 95 512.5 95 521 95 C521 132.29 521 169.58 521 208 C484.04 208 447.08 208 409 208 C409 220.54 409 233.08 409 246 C454.21 246 499.42 246 546 246 C545.835 234.759375 545.67 223.51875 545.5 211.9375 C544.95963726 170.68727374 544.9141148 129.4403924 544.9375 88.1875 C544.93792423 87.41710813 544.93834846 86.64671626 544.93878555 85.85297918 C544.94995658 65.90197391 544.97021277 45.95098645 545 26 C542.01464991 26.74827975 539.03227908 27.50617133 536.05078125 28.26953125 C535.21840942 28.4771106 534.3860376 28.68468994 533.52844238 28.89855957 C510.52096302 34.83074319 489.37160843 49.55248051 477 70 C462.81543768 94.07788059 461.52189357 117.66927749 461.79400635 145.11834717 C461.82523227 148.61204345 461.83867632 152.10581142 461.85351562 155.59960938 C461.88365073 162.40009896 461.9424226 169.19946899 462 176 C453.42 176 444.84 176 436 176 C435.93158591 167.83591887 435.87682246 159.67206935 435.84456348 151.50777626 C435.8290626 147.71470923 435.80811878 143.92185237 435.77368164 140.12890625 C435.59938714 120.3855405 435.52057966 101.32916888 442.125 82.4375 C442.4250293 81.56601318 442.72505859 80.69452637 443.03417969 79.79663086 C454.29180019 48.31029422 477.63728718 24.84033144 507.47265625 10.30859375 C515.76286061 6.57940374 524.13751045 3.9907104 533 2 C533.98742187 1.773125 534.97484375 1.54625 535.9921875 1.3125 C543.48338482 -0.1181796 550.83631688 -0.09090194 558.44140625 -0.046875 C559.55422974 -0.04349121 560.66705322 -0.04010742 561.81359863 -0.03662109 C564.54243086 -0.02783494 567.27119923 -0.01553182 570 0 C570.73583322 46.62261724 571.14801971 93.2323127 571.10353777 139.86061959 C571.09611255 147.87177812 571.09486443 155.88293516 571.09374207 163.89409665 C571.09159464 178.16125304 571.08505687 192.42840346 571.07543945 206.69555664 C571.06615005 220.49112927 571.05913854 234.28670023 571.05493164 248.08227539 C571.05466364 248.95233898 571.05439565 249.82240257 571.05411953 250.71883172 C571.05203808 257.53107148 571.05008187 264.34331127 571.04816496 271.15555108 C571.0388621 304.10370621 571.01871463 337.05184626 571 370 C525.79 370 480.58 370 434 370 C434 340.96 434 311.92 434 282 C442.58 282 451.16 282 460 282 C460 302.79 460 323.58 460 345 C488.38 345 516.76 345 546 345 C546 320.58 546 296.16 546 271 C492.54 271 439.08 271 384 271 C384 250.21 384 229.42 384 208 C365.52 208 347.04 208 328 208 C336.10897821 223.05953097 341.83852148 230.1485881 357.56640625 235.421875 C360.98858897 236.23484939 364.50973935 236.56371742 368 237 C368 245.25 368 253.5 368 262 C350.91706411 262.97062136 336.70755982 257.87676134 323.8125 246.625 C322.19449373 245.0978646 320.58927914 243.55700951 319 242 C318.37222656 241.40832031 317.74445313 240.81664062 317.09765625 240.20703125 C309.02247031 231.91211236 301 216.75231295 301 205 C290.44 205 279.88 205 269 205 C267.515 211.93 267.515 211.93 266 219 C261.59606768 229.10902646 256.10817096 237.48510984 248 245 C247.21109375 245.79664063 247.21109375 245.79664063 246.40625 246.609375 C233.96295979 258.52540715 218.80120566 262 202 262 C202 253.75 202 245.5 202 237 C203.8975 236.79375 205.795 236.5875 207.75 236.375 C219.78734668 234.47780949 228.18507479 229.2358207 236 220 C237.98 216.04 239.96 212.08 242 208 C223.85 208 205.7 208 187 208 C187 228.79 187 249.58 187 271 C133.21 271 79.42 271 24 271 C24 295.42 24 319.84 24 345 C52.71 345 81.42 345 111 345 C111 324.21 111 303.42 111 282 C119.25 282 127.5 282 136 282 C136 311.04 136 340.08 136 370 C90.79 370 45.58 370 -1 370 C-1.04030303 311.56060038 -1.04030303 311.56060038 -1.04882812 286.18359375 C-1.05078311 280.39436846 -1.05280276 274.6051432 -1.05493164 268.81591797 C-1.05519539 268.09130871 -1.05545914 267.36669945 -1.05573088 266.62013233 C-1.05944829 256.63017704 -1.06555269 246.64022594 -1.07373433 236.65027335 C-1.08792781 219.31632864 -1.09695232 201.98238834 -1.09765625 184.6484375 C-1.09769482 183.96210122 -1.09773339 183.27576493 -1.09777313 182.56863058 C-1.10005973 121.70874331 -0.63780015 60.85647435 0 0 Z M181 69 C181 105.63 181 142.26 181 180 C217.63 180 254.26 180 292 180 C292 174.06 292 168.12 292 162 C279.46 162 266.92 162 254 162 C254 153.75 254 145.5 254 137 C266.54 137 279.08 137 292 137 C292 132.38 292 127.76 292 123 C275.17 123 258.34 123 241 123 C241 114.75 241 106.5 241 98 C257.83 98 274.66 98 292 98 C292 88.43 292 78.86 292 69 C275.5 69 259 69 242 69 C242 74.94 242 80.88 242 87 C233.42 87 224.84 87 216 87 C216 81.06 216 75.12 216 69 C204.45 69 192.9 69 181 69 Z " fill="#FEFEFE" transform="translate(115,244)"/>
<path d="M0 0 C11.96525936 9.97104947 19.64589944 24.82305144 21.09210014 40.3058567 C21.20501522 43.41954091 21.22961108 46.52030098 21.21655273 49.63598633 C21.22341599 50.80357986 21.23027924 51.9711734 21.23735046 53.17414856 C21.25551015 56.99773651 21.25179579 60.82090982 21.24609375 64.64453125 C21.24950458 66.64753065 21.25292505 68.65053024 21.25744683 70.65352744 C21.27143102 76.94167058 21.269983 83.2296777 21.25854492 89.51782227 C21.24707905 95.9628819 21.26112726 102.40752463 21.2879414 108.85252935 C21.31023709 114.42411431 21.31670459 119.99556975 21.31086498 125.56719607 C21.30752591 128.87805694 21.31146171 132.1885958 21.32711601 135.4994297 C21.42288557 159.07508951 19.46161214 176.96113987 2.48828125 194.8359375 C-11.09054885 207.403789 -26.67456553 211.0467997 -44.6171875 210.6875 C-59.75720169 209.96825942 -73.81746235 202.21094722 -84.1875 191.3125 C-94.97832115 178.17878658 -99.66416586 163.12773647 -99.59155273 146.28027344 C-99.59841599 145.14354691 -99.60527924 144.00682037 -99.61235046 142.83564758 C-99.63050503 139.11425941 -99.62679619 135.39329754 -99.62109375 131.671875 C-99.62566172 129.05934514 -99.63096912 126.44681649 -99.63697815 123.83428955 C-99.64696937 118.37076823 -99.64374905 112.90736556 -99.63354492 107.44384766 C-99.62208532 101.17035074 -99.63611696 94.89728245 -99.6629414 88.623842 C-99.68795968 82.54015555 -99.69024371 76.45666355 -99.68382454 70.37293243 C-99.68367226 67.80718524 -99.68963843 65.24142944 -99.70211601 62.67571259 C-99.79810685 39.69968048 -98.13017847 21.0511529 -81.56640625 3.5625 C-58.21413072 -18.52438129 -25.09794834 -18.62351553 0 0 Z M-64.5 21.9375 C-73.13246978 31.16410737 -74.3349873 41.83861118 -74.34863281 53.90087891 C-74.35359772 54.95537231 -74.35856262 56.00986572 -74.36367798 57.09631348 C-74.37825548 60.57723652 -74.38509498 64.05811397 -74.390625 67.5390625 C-74.39638095 69.96796672 -74.40213862 72.39687093 -74.40789795 74.82577515 C-74.418396 79.91819469 -74.42424621 85.01059851 -74.42773438 90.10302734 C-74.4332105 96.60582336 -74.457225 103.10840909 -74.48570633 109.6111393 C-74.50439728 114.62996005 -74.50954179 119.64873086 -74.51107025 124.66758347 C-74.51408372 127.06359377 -74.52206776 129.45960347 -74.53525543 131.85557938 C-74.55244775 135.21979676 -74.55040327 138.58350956 -74.54394531 141.94775391 C-74.5531601 142.92376556 -74.56237488 143.89977722 -74.5718689 144.90536499 C-74.49859167 157.18652198 -71.63496537 167.21749374 -63.1875 176.3125 C-60.3570913 178.72870255 -57.48045321 180.58985188 -54.1875 182.3125 C-53.28644531 182.81910156 -53.28644531 182.81910156 -52.3671875 183.3359375 C-44.53929582 187.02961799 -33.92298425 186.64665966 -25.875 183.875 C-15.46396902 178.90334294 -9.33159994 170.87919025 -5.1875 160.3125 C-4.29346525 157.31395754 -4.05627512 154.62656753 -4.04032898 151.50169373 C-4.03317368 150.53604996 -4.02601837 149.57040619 -4.01864624 148.57550049 C-4.01595734 147.52247742 -4.01326843 146.46945435 -4.01049805 145.38452148 C-4.00392685 144.27019241 -3.99735565 143.15586334 -3.99058533 142.00776672 C-3.97086036 138.31637504 -3.95919003 134.62502407 -3.94921875 130.93359375 C-3.94514322 129.67121447 -3.9410677 128.40883518 -3.93686867 127.10820198 C-3.91815917 121.11262484 -3.90359466 115.11707227 -3.8952567 109.12147373 C-3.88550362 102.22380672 -3.85923209 95.32646226 -3.81875581 88.42890877 C-3.7848143 82.43709139 -3.77309988 76.44542904 -3.76905251 70.45350838 C-3.76419348 67.91431558 -3.75259915 65.37512606 -3.73401451 62.83599663 C-3.70955812 59.27248675 -3.71060078 55.70980908 -3.7175293 52.14624023 C-3.70471924 51.10738678 -3.69190918 50.06853333 -3.67871094 48.99819946 C-3.75188712 38.61392116 -6.74607922 28.81977406 -14.1875 21.3125 C-29.83605997 8.7479628 -49.31808514 8.03736031 -64.5 21.9375 Z " fill="#FEFEFE" transform="translate(664.1875,17.6875)"/>
<path d="M0 0 C45.54 0 91.08 0 138 0 C138 8.25 138 16.5 138 25 C137.67 25.33 137.34 25.66 137 26 C132.05 26 127.1 26 122 26 C122 75.5 122 125 122 176 C113.75 176 105.5 176 97 176 C97 126.5 97 77 97 26 C73.24 26 49.48 26 25 26 C25.495 45.305 25.495 45.305 26 65 C38.0515031 56.9656646 39.18414042 53.99148512 43 40 C51.25 40 59.5 40 68 40 C66.64308804 56.28294352 62.17380667 68.90343649 50.16015625 80.22265625 C43.52526509 85.68174391 33.84311339 92 25 92 C25.0714624 93.13526123 25.1429248 94.27052246 25.21655273 95.44018555 C26.14397416 111.50727017 26.11945718 127.56019825 26.06866455 143.6463623 C26.05824441 147.30785528 26.05382784 150.9693557 26.04882812 154.63085938 C26.03825601 161.75392548 26.02074085 168.87695515 26 176 C17.42 176 8.84 176 0 176 C0 117.92 0 59.84 0 0 Z " fill="#FEFEFE" transform="translate(113,624)"/>
<path d="M0 0 C45.54 0 91.08 0 138 0 C138 39.91011244 137.93058041 79.80261262 137.53643799 119.70837402 C137.47390315 126.10829633 137.41487527 132.50825115 137.35546875 138.90820312 C137.24022703 151.27216827 137.12108535 163.63609071 137 176 C128.42 176 119.84 176 111 176 C111.33 148.28 111.66 120.56 112 92 C109.03 91.34 106.06 90.68 103 90 C92.14190031 85.76890951 83.41546806 76.46881917 77 67 C76.40058594 66.11828125 76.40058594 66.11828125 75.7890625 65.21875 C71.66827454 58.15454207 70 48.09371269 70 40 C78.58 40 87.16 40 96 40 C96.99 44.95 96.99 44.95 98 50 C99.97753829 55.55934458 102.6886995 59.1014386 107.68359375 62.265625 C108.89680298 63.04341309 108.89680298 63.04341309 110.13452148 63.83691406 C110.75012939 64.22073242 111.3657373 64.60455078 112 65 C111.99476318 64.13834229 111.98952637 63.27668457 111.98413086 62.38891602 C111.96695396 59.1516139 111.95448469 55.91433524 111.94506836 52.67700195 C111.94008043 51.28343943 111.93328769 49.88988202 111.92456055 48.49633789 C111.91224928 46.47801438 111.90671622 44.45976083 111.90234375 42.44140625 C111.89710693 41.23170166 111.89187012 40.02199707 111.88647461 38.77563477 C112.01494748 34.50287564 112.52793944 30.24854501 113 26 C89.24 26 65.48 26 41 26 C41 75.5 41 125 41 176 C32.75 176 24.5 176 16 176 C16 126.5 16 77 16 26 C10.72 26 5.44 26 0 26 C0 17.42 0 8.84 0 0 Z " fill="#FEFEFE" transform="translate(549,624)"/>
<path d="M0 0 C1.48447264 -0.01143265 2.96890707 -0.03174365 4.453125 -0.06152344 C21.92414066 -0.41137373 36.17326441 3.92039009 49.21166992 16.03735352 C58.9710277 26.5223141 63.31323242 39.20174595 63.31323242 53.29516602 C55.06323242 53.29516602 46.81323242 53.29516602 38.31323242 53.29516602 C37.77698242 51.31516602 37.24073242 49.33516602 36.68823242 47.29516602 C34.05949688 38.94666453 31.01031061 33.60009221 23.56323242 28.79516602 C16.9422337 25.73932045 10.34065741 25.72255028 3.12573242 25.67016602 C2.00908203 25.65920898 0.89243164 25.64825195 -0.25805664 25.63696289 C-9.66121891 25.79913459 -17.1536531 28.10835861 -24.18286133 34.51782227 C-28.65087702 39.79820444 -30.66274826 46.81477975 -31.00317383 53.62329102 C-31.04506836 54.42250977 -31.08696289 55.22172852 -31.13012695 56.04516602 C-31.16944336 56.87016602 -31.20875977 57.69516602 -31.24926758 58.54516602 C-31.29245117 59.38563477 -31.33563477 60.22610352 -31.38012695 61.09204102 C-31.48585301 63.15957272 -31.58678053 65.22734882 -31.68676758 67.29516602 C-30.84247727 67.29424422 -29.99818697 67.29332243 -29.12831211 67.2923727 C-8.61545902 67.27031938 11.89739204 67.2537554 32.41025448 67.24335384 C42.32998517 67.23819045 52.24970797 67.23114694 62.16943359 67.21972656 C70.81220221 67.20978103 79.4549651 67.2033129 88.09773928 67.20107752 C92.67695705 67.19977019 97.25615847 67.19668293 101.83537102 67.18943596 C106.14034948 67.18267781 110.44530475 67.18054863 114.75028801 67.18205833 C116.33501308 67.18178191 117.91973888 67.17977558 119.50445938 67.17596054 C121.65863653 67.17102648 123.81272472 67.17216664 125.96690369 67.1749115 C127.17537429 67.17398971 128.38384489 67.17306791 129.62893581 67.17211819 C132.31323242 67.29516602 132.31323242 67.29516602 133.31323242 68.29516602 C133.41269695 70.06375794 133.44403459 71.83628052 133.44604492 73.60766602 C133.44733398 74.68274414 133.44862305 75.75782227 133.44995117 76.86547852 C133.44608398 77.99727539 133.4422168 79.12907227 133.43823242 80.29516602 C133.44209961 81.42696289 133.4459668 82.55875977 133.44995117 83.72485352 C133.44801758 85.3374707 133.44801758 85.3374707 133.44604492 86.98266602 C133.44491699 87.9765332 133.44378906 88.97040039 133.44262695 89.99438477 C133.31323242 92.29516602 133.31323242 92.29516602 132.31323242 93.29516602 C129.87213222 93.39285654 127.4593595 93.42512986 125.01780701 93.41542053 C124.24516119 93.41627496 123.47251536 93.41712938 122.67645603 93.4180097 C120.06764688 93.41966684 117.45890096 93.41413933 114.85009766 93.40869141 C112.98790488 93.40840956 111.125712 93.40856722 109.26351929 93.40913391 C104.19141657 93.40942198 99.11933727 93.40352373 94.04724002 93.39655995 C88.75277241 93.39032799 83.45830433 93.38972274 78.16383362 93.38853455 C68.13051818 93.38542076 58.09721357 93.37720675 48.06390291 93.36718506 C36.64450958 93.35602537 25.22511573 93.35051383 13.8057183 93.34548962 C-9.69178301 93.33502417 -33.18927469 93.31742383 -56.68676758 93.29516602 C-56.76348221 86.82144859 -56.81564333 80.34785044 -56.8515625 73.8737793 C-56.86655297 71.67614359 -56.88695224 69.4785373 -56.91308594 67.28100586 C-57.15141092 46.71028881 -55.64192135 29.88833829 -40.68676758 14.29516602 C-28.36620787 3.47202818 -15.94491055 0.08517395 0 0 Z " fill="#FEFEFE" transform="translate(171.686767578125,-0.295166015625)"/>
<path d="M0 0 C8.25 0 16.5 0 25 0 C25.01981934 1.92191162 25.03963867 3.84382324 25.06005859 5.82397461 C25.12806452 12.20226949 25.20485674 18.58041226 25.28752708 24.95853329 C25.337291 28.82233589 25.38362126 32.68611376 25.421875 36.55004883 C25.45898121 40.28492588 25.50540656 44.01958535 25.55806351 47.75427437 C25.57647386 49.17304192 25.59163009 50.59185586 25.60334396 52.0106945 C25.71334846 64.88426063 26.60937555 75.91704539 35.66796875 85.82421875 C44.06345672 93.451241 52.42467684 95.31824835 63.5234375 95.21484375 C67.91453348 94.94348389 71.15565527 94.08096051 75 92 C75.67546875 91.64808594 76.3509375 91.29617187 77.046875 90.93359375 C84.59290304 86.63576199 90.32081724 80.09910534 93.05224609 71.8046875 C94.64378946 65.18730625 94.36011802 58.32950006 94.4140625 51.5625 C94.43279923 50.07176675 94.45237447 48.58104382 94.4727478 47.09033203 C94.52381073 43.1909599 94.56357365 39.29155348 94.60089111 35.39202881 C94.64109395 31.40319518 94.69211154 27.41450099 94.7421875 23.42578125 C94.83864038 15.61727647 94.92214072 7.80871637 95 0 C103.25 0 111.5 0 120 0 C120.09096964 8.86779051 120.16409712 17.73526273 120.20724869 26.6034174 C120.22797659 30.72285084 120.25601712 34.84194397 120.30175781 38.96118164 C120.34575207 42.94885458 120.3692478 46.93620367 120.37950897 50.92410088 C120.38680565 52.43289718 120.40104886 53.94167913 120.42292023 55.45033455 C120.68897775 74.59304616 115.87152948 90.50398157 102.37890625 104.75 C93.38907196 113.25270041 82.28031433 119.15899887 70 121 C69.17113281 121.1340625 68.34226562 121.268125 67.48828125 121.40625 C51.93375678 123.40449548 36.70071945 118.99467355 24 110 C11.01424414 99.84147327 2.40679196 86.50178881 0 70 C-0.26872955 64.60158503 -0.23364183 59.21138529 -0.1953125 53.80859375 C-0.19157579 52.25204145 -0.18873193 50.69548678 -0.18673706 49.13893127 C-0.17915235 45.07011255 -0.1595491 41.00143982 -0.1373291 36.93267822 C-0.11675858 32.76959202 -0.10771153 28.6064819 -0.09765625 24.44335938 C-0.07629757 16.29549892 -0.04115842 8.14778452 0 0 Z " fill="#FEFEFE" transform="translate(115,107)"/>
</svg>
