<?xml version="1.0" encoding="UTF-8"?>
<svg version="1.1" xmlns="http://www.w3.org/2000/svg" width="620" height="620">
<path d="M0 0 C0.99365822 -0.00611336 1.98731644 -0.01222672 3.01108551 -0.01852533 C6.3614281 -0.03420286 9.71105481 -0.02122745 13.06140137 -0.00850582 C15.47929052 -0.01382764 17.89717636 -0.02089121 20.31505585 -0.02955288 C25.58266752 -0.04434408 30.85006628 -0.04662344 36.11767578 -0.03795528 C43.95065517 -0.02510017 51.78348977 -0.03503402 59.61646044 -0.04945483 C73.60481429 -0.07441284 87.59310052 -0.07627264 101.58147013 -0.06818072 C113.82275476 -0.0611139 126.0640131 -0.06104471 138.30529785 -0.06804371 C139.94594494 -0.06895503 141.58659204 -0.06986579 143.22723913 -0.070776 C145.69939553 -0.07215909 148.17155193 -0.07355018 150.64370832 -0.07496213 C173.63356845 -0.08794685 196.62341975 -0.09305223 219.61328125 -0.08142853 C220.91378116 -0.08077157 220.91378116 -0.08077157 222.2405538 -0.08010134 C229.28167232 -0.07649434 236.32279073 -0.07265966 243.36390913 -0.06881041 C270.83537568 -0.05396011 298.30674283 -0.06274483 325.77819824 -0.09076595 C356.62766159 -0.12217234 387.47706608 -0.13717085 418.32654572 -0.12696594 C421.61389668 -0.12592912 424.90124765 -0.1249419 428.18859863 -0.12398243 C429.40278348 -0.1236091 429.40278348 -0.1236091 430.64149731 -0.12322823 C442.87645692 -0.11978388 455.11136467 -0.12911054 467.34631348 -0.14475346 C481.25508798 -0.1624953 495.16373598 -0.16269381 509.072505 -0.1394018 C516.86115976 -0.12687174 524.64952414 -0.12820456 532.43816206 -0.14928266 C538.24474933 -0.16345515 544.05109033 -0.1516519 549.85765934 -0.12948572 C552.21357049 -0.124573 554.56951719 -0.12819726 556.92539883 -0.14097316 C560.11544654 -0.15703143 563.30392135 -0.14262287 566.49389648 -0.12025452 C567.88226967 -0.13824203 567.88226967 -0.13824203 569.2986908 -0.15659294 C573.60120676 -0.09452401 575.68764605 0.1237835 579.31753778 2.60540724 C581.70655451 6.1971478 581.87150587 8.2461244 581.87056732 12.54458046 C581.88056934 13.59485165 581.88056934 13.59485165 581.89077342 14.66634044 C581.90704981 17.01866823 581.88761583 19.36934106 581.8684082 21.72162724 C581.87273609 23.42251623 581.87925107 25.12340083 581.88776827 26.824274 C581.90479674 31.50289028 581.89055292 36.1809732 581.87125349 40.85956156 C581.85585474 45.90324508 581.86922101 50.94686203 581.8789978 55.99054813 C581.8935412 65.87267565 581.88127357 75.75459807 581.85988456 85.63670618 C581.83590261 97.13786038 581.83758718 108.6389673 581.84019047 120.14014094 C581.84388258 140.65647637 581.82303791 161.172715 581.78894043 181.6890192 C581.75584352 201.61059357 581.74168264 221.53206634 581.7479248 241.45366764 C581.75468429 263.13298741 581.75224149 284.81226457 581.7325654 306.49157804 C581.73152592 307.63727108 581.73048643 308.78296412 581.72941545 309.96337513 C581.72732451 312.26462656 581.72521353 314.56587798 581.72308227 316.86712937 C581.71617836 324.88987108 581.71551874 332.91259969 581.71696472 340.93534374 C581.71840237 350.70749013 581.70875104 360.47955351 581.68501836 370.25167233 C581.67313427 375.24046818 581.66604921 380.22914814 581.67185593 385.2179575 C581.67700981 389.78058914 581.66840336 394.34297548 581.64858133 398.90556508 C581.64382306 400.560247 581.64416495 402.21495267 581.64999169 403.86963118 C581.65712529 406.11124168 581.64596863 408.3520286 581.63005829 410.59357643 C581.62848709 411.8409054 581.62691588 413.08823436 581.62529707 414.37336117 C581.21659166 417.75751585 580.66059632 419.14052283 578.24694824 421.50615788 C575.51726203 422.41605328 573.94074734 422.63182065 571.135481 422.63380837 C570.2929046 422.63682434 569.4503282 422.63984031 568.58221918 422.64294767 C567.65459172 422.6411782 566.72696427 422.63940873 565.77122688 422.63758564 C564.7832531 422.63963827 563.79527932 422.64169091 562.77736694 422.64380574 C559.43454298 422.64950396 556.09175987 422.64801503 552.74893188 422.64659977 C550.34102228 422.64918178 547.93311311 422.65219448 545.52520454 422.65560317 C539.58084068 422.66284547 533.63649071 422.66537672 527.69212379 422.66593223 C520.57477499 422.66684489 513.45743454 422.6735095 506.34008932 422.68027905 C489.13712015 422.6963506 471.93415185 422.70224339 454.73117652 422.7070278 C446.5966645 422.70936233 438.46215318 422.7129648 430.32764171 422.71672318 C402.49415559 422.72955896 374.66066987 422.74027872 346.82718086 422.74372578 C345.07948208 422.74394741 343.33178329 422.74416919 341.5840845 422.74439113 C339.8321168 422.74461177 338.08014909 422.74483225 336.32818139 422.74505258 C332.8133107 422.74549513 329.29844002 422.74594225 325.78356934 422.74639225 C324.47634082 422.74655634 324.47634082 422.74655634 323.14270364 422.74672374 C294.87263317 422.75035591 266.60258831 422.76628186 238.33252765 422.78958261 C208.45855886 422.81416042 178.58460472 422.82789764 148.71062553 422.82909369 C145.43335398 422.82926516 142.15608243 422.82948059 138.87881088 422.82972813 C137.66833599 422.82981178 137.66833599 422.82981178 136.43340705 422.82989712 C123.4289717 422.83104928 110.42456257 422.84208514 97.42013608 422.85661518 C84.3576672 422.8709581 71.29523205 422.87422965 58.23275746 422.8661752 C50.46639225 422.86170869 42.70013569 422.8656202 34.93378468 422.88141371 C29.14372181 422.8922689 23.3537413 422.88755498 17.5636761 422.87664184 C15.21443113 422.87467051 12.86517542 422.87782872 10.51594557 422.8864862 C7.33522205 422.89747075 4.15505897 422.89016782 0.97435188 422.87809467 C-0.41006581 422.88948746 -0.41006581 422.88948746 -1.82245153 422.90111041 C-7.09219094 422.85760061 -10.83556181 422.42364782 -14.75305176 418.50615788 C-14.85566514 416.31559563 -14.88599391 414.12165239 -14.89006615 411.92869186 C-14.89271797 411.2297497 -14.8953698 410.53080754 -14.89810199 409.81068531 C-14.90583831 407.43903662 -14.9063558 405.06743934 -14.9069519 402.69577885 C-14.91096368 400.99009819 -14.91540142 399.28441848 -14.92023146 397.57873994 C-14.93223459 392.86847088 -14.93785403 388.15821207 -14.94241261 383.44793069 C-14.94835455 378.37692454 -14.95996785 373.30593074 -14.97070312 368.2349329 C-14.99525891 355.97716455 -15.00985862 343.7193921 -15.02276319 331.46160671 C-15.02647271 328.00206052 -15.03044613 324.54251474 -15.03451586 321.08296895 C-15.05974913 299.62017799 -15.08181197 278.15738642 -15.094244 256.69458389 C-15.09717392 251.71990996 -15.10013555 246.74523605 -15.10314941 241.77056217 C-15.10426849 239.91581251 -15.10426849 239.91581251 -15.10541017 238.02359316 C-15.1180716 217.98008366 -15.15130336 197.93666271 -15.19295125 177.89319464 C-15.23531811 157.33595746 -15.25893294 136.77876569 -15.26416457 116.22148496 C-15.26758458 104.67080452 -15.27940908 93.12026249 -15.3122673 81.5696249 C-15.34019692 71.73515876 -15.35129842 61.90085935 -15.34007184 52.06635662 C-15.33486703 47.04508518 -15.33788963 42.02416329 -15.36253738 37.00294209 C-15.38489333 32.41044192 -15.38439732 27.81854516 -15.36533351 23.22603539 C-15.3625142 21.56045185 -15.36823817 19.89482856 -15.38314645 18.22930934 C-15.40211977 15.9725106 -15.39055774 13.71789318 -15.37108421 11.46114731 C-15.37244074 10.20557453 -15.37379727 8.95000175 -15.37519491 7.65638131 C-14.75305176 4.50615788 -14.75305176 4.50615788 -12.82399046 2.1031059 C-8.49203609 -0.14959487 -4.81802397 -0.04725886 0 0 Z M0.24694824 15.50615788 C0.24694824 29.69615788 0.24694824 43.88615788 0.24694824 58.50615788 C187.02694824 58.50615788 373.80694824 58.50615788 566.24694824 58.50615788 C566.24694824 44.31615788 566.24694824 30.12615788 566.24694824 15.50615788 C379.46694824 15.50615788 192.68694824 15.50615788 0.24694824 15.50615788 Z M0.24694824 73.50615788 C0.24694824 183.72615788 0.24694824 293.94615788 0.24694824 407.50615788 C187.02694824 407.50615788 373.80694824 407.50615788 566.24694824 407.50615788 C566.24694824 297.28615788 566.24694824 187.06615788 566.24694824 73.50615788 C379.46694824 73.50615788 192.68694824 73.50615788 0.24694824 73.50615788 Z " fill="#FEFEFE" transform="translate(26.7530517578125,11.493842124938965)"/>
<path d="M0 0 C192.06 0 384.12 0 582 0 C582 4.95 582 9.9 582 15 C389.94 15 197.88 15 0 15 C0 10.05 0 5.1 0 0 Z " fill="#FEFEFE" transform="translate(19,593)"/>
<path d="M0 0 C192.06 0 384.12 0 582 0 C582 4.95 582 9.9 582 15 C389.94 15 197.88 15 0 15 C0 10.05 0 5.1 0 0 Z " fill="#FEFEFE" transform="translate(19,535)"/>
<path d="M0 0 C192.06 0 384.12 0 582 0 C582 4.95 582 9.9 582 15 C389.94 15 197.88 15 0 15 C0 10.05 0 5.1 0 0 Z " fill="#FEFEFE" transform="translate(19,477)"/>
<path d="M0 0 C38.61 0 77.22 0 117 0 C117 4.95 117 9.9 117 15 C78.39 15 39.78 15 0 15 C0 10.05 0 5.1 0 0 Z " fill="#FEFEFF" transform="translate(77,264)"/>
<path d="M0 0 C38.61 0 77.22 0 117 0 C117 4.62 117 9.24 117 14 C78.39 14 39.78 14 0 14 C0 9.38 0 4.76 0 0 Z " fill="#FFFEFE" transform="translate(77,206)"/>
<path d="M0 0 C38.61 0 77.22 0 117 0 C117 4.62 117 9.24 117 14 C78.39 14 39.78 14 0 14 C0 9.38 0 4.76 0 0 Z " fill="#FEFEFF" transform="translate(77,148)"/>
<path d="M0 0 C3.15210067 2.45163386 4.70975268 4.1473985 6 7.9375 C6 11.84455719 5.21495196 13.78474715 3 17 C-0.23267067 19.2269509 -2.13153245 20.01772383 -6.0625 19.9375 C-9.62730504 18.79979627 -11.4878133 17.79929375 -14 15 C-15.33182668 11.09439782 -15.39527112 8.0463059 -13.9375 4.1875 C-9.91064158 -0.35895305 -5.8231036 -1.98233314 0 0 Z " fill="#FFFFFF" transform="translate(518,39)"/>
<path d="M0 0 C3.15441888 1.82624251 3.82861833 2.48585498 5 6 C5.68041237 13.03092784 5.68041237 13.03092784 2.9375 16.9375 C-0.57823396 19.40599406 -2.71383323 20 -7 20 C-10.64886208 18.42435501 -13.13562322 16.53250338 -15 13 C-15.49500009 9.65874937 -15.72317495 7.24131179 -13.98046875 4.25 C-9.67108973 -1.16601713 -6.53613601 -1.37602863 0 0 Z " fill="#FEFFFF" transform="translate(557,39)"/>
<path d="M0 0 C2.84084484 1.57824713 4.56477436 2.72369412 5.63671875 5.8671875 C6.24162846 9.31452241 6.18536592 11.50932549 4.9375 14.8125 C2.4853383 17.58106966 0.48916865 18.76852871 -3 20 C-6.92438428 20 -8.64850802 19.24451616 -11.875 17 C-14.38604577 13.4549942 -14.73032533 11.41500595 -14.49609375 7.15625 C-13.69457881 3.67250002 -11.7960989 2.08081779 -9 0 C-5.39965901 -1.20011366 -3.65462165 -0.95020163 0 0 Z " fill="#FFFEFE" transform="translate(479,39)"/>
</svg>
