<?xml version="1.0" encoding="UTF-8"?>
<svg version="1.1" xmlns="http://www.w3.org/2000/svg" width="800" height="800">
<path d="M0 0 C1.05316406 0.72703125 2.10632813 1.4540625 3.19140625 2.203125 C14.88959965 10.50169439 25.89686069 19.77804795 36.375 29.55859375 C38.71297288 31.7330477 41.08643365 33.84781296 43.5 35.9375 C48.90983607 40.64856557 48.90983607 40.64856557 51 43 C51 43.66 51 44.32 51 45 C51.86625 45.36351562 51.86625 45.36351562 52.75 45.734375 C55.42522141 47.23918704 56.9795147 48.93868727 59 51.25 C59.79019531 52.15363281 60.58039062 53.05726563 61.39453125 53.98828125 C62.25433594 54.98214844 63.11414063 55.97601563 64 57 C64.91973632 58.03589964 65.84033226 59.07103659 66.76171875 60.10546875 C84.42335812 80.10665534 99.32096973 102.45961313 111.89746094 125.95947266 C112.91089929 127.83509661 113.95205505 129.69093744 115.0078125 131.54296875 C138.41012372 173.46816194 151.47245334 223.32531253 155 271 C155.05639648 271.73250977 155.11279297 272.46501953 155.17089844 273.21972656 C162.21410231 369.53241381 132.07185289 465.46259676 69 539 C65.41208231 543.07365932 61.70414181 547.03207839 58 551 C55.61662475 553.63976865 53.24429993 556.28900982 50.875 558.94140625 C47.40744102 562.74849705 47.40744102 562.74849705 46 564 C45.34 564 44.68 564 44 564 C44 564.66 44 565.32 44 566 C43.34 566 42.68 566 42 566 C41.67 566.99 41.34 567.98 41 569 C39.64453125 570.40234375 39.64453125 570.40234375 37.8125 571.9375 C37.08289063 572.55367187 36.35328125 573.16984375 35.6015625 573.8046875 C34.74304688 574.52914062 33.88453125 575.25359375 33 576 C32.01773438 576.86882813 31.03546875 577.73765625 30.0234375 578.6328125 C10.45459055 595.89512119 -11.22962388 610.34162497 -34 623 C-34.84997559 623.47695313 -35.69995117 623.95390625 -36.57568359 624.4453125 C-76.63580328 646.75312529 -121.49395095 660.73171176 -167 666 C-167.8053418 666.10296387 -168.61068359 666.20592773 -169.44042969 666.31201172 C-200.25348186 670.18659694 -232.28339634 669.07383341 -263 665 C-264.59620431 664.81510788 -266.19254358 664.63137422 -267.7890625 664.44921875 C-301.24193335 660.25410431 -334.51947045 648.97560146 -365 635 C-365.89847656 634.59523438 -366.79695312 634.19046875 -367.72265625 633.7734375 C-381.0694102 627.75088477 -393.64598411 620.85685279 -406 613 C-407.16208984 612.26112549 -407.16208984 612.26112549 -408.34765625 611.50732422 C-424.47331993 601.16957324 -439.56580277 589.57865091 -454 577 C-454.77730469 576.33484375 -455.55460937 575.6696875 -456.35546875 574.984375 C-462.37686659 569.71953834 -468.02219878 564.0801011 -473.6875 558.4375 C-474.49590332 557.63376953 -475.30430664 556.83003906 -476.13720703 556.00195312 C-480.96308769 551.16317169 -485.58772835 546.21863619 -490 541 C-490.51167725 540.39502686 -491.02335449 539.79005371 -491.55053711 539.16674805 C-534.2522259 488.16481131 -562.86725234 427.09521788 -573.75 361.4375 C-574.04861938 359.64735474 -574.04861938 359.64735474 -574.35327148 357.82104492 C-577.47577945 337.84584264 -578.38303806 317.88250868 -578.3125 297.6875 C-578.31034485 296.56903687 -578.3081897 295.45057373 -578.30596924 294.29821777 C-578.2556464 277.99769108 -577.85351135 262.08597082 -575 246 C-574.79600586 244.79649902 -574.59201172 243.59299805 -574.38183594 242.35302734 C-565.53970357 190.90262831 -547.34297884 141.40254427 -518 98 C-517.51321777 97.2766748 -517.02643555 96.55334961 -516.52490234 95.80810547 C-507.352539 82.27169182 -497.28016395 69.43353821 -486.1953125 57.40625 C-484.36570685 55.40084594 -482.59109476 53.36539006 -480.8203125 51.30859375 C-476.652788 46.5363391 -472.23114197 42.03915455 -467.75 37.5625 C-466.90808105 36.72138672 -466.06616211 35.88027344 -465.19873047 35.01367188 C-460.17803873 30.04230691 -455.13715466 25.33922649 -449.5546875 21.00390625 C-447.22209637 19.17421321 -445.00516836 17.25209235 -442.78710938 15.28662109 C-428.59320346 2.82862807 -412.437749 -7.74118628 -396 -17 C-395.21931152 -17.44762695 -394.43862305 -17.89525391 -393.63427734 -18.35644531 C-310.8605198 -65.6873103 -210.83510287 -78.75136586 0 0 Z M-325 24 C-326.12921875 24.44013428 -326.12921875 24.44013428 -327.28125 24.88916016 C-354.03217925 35.49706889 -378.8740717 51.75412579 -401 70 C-402.01320313 70.82628906 -403.02640625 71.65257812 -404.0703125 72.50390625 C-411.38582256 78.56378519 -418.21769713 85.03670415 -424.9375 91.75 C-425.73019287 92.54188721 -426.52288574 93.33377441 -427.33959961 94.1496582 C-449.05233802 116.06868253 -465.9987836 141.59878391 -480 169 C-480.39638672 169.77118164 -480.79277344 170.54236328 -481.20117188 171.33691406 C-494.11479854 196.92917073 -502.50917428 225.78244113 -507 254 C-507.17354004 255.0734668 -507.34708008 256.14693359 -507.52587891 257.25292969 C-511.64646762 284.03064269 -512.05185409 313.16138394 -508 340 C-507.84402344 341.04704102 -507.68804687 342.09408203 -507.52734375 343.17285156 C-499.48846212 395.44046899 -479.39816303 443.20164003 -447 485 C-446.03320312 486.25876953 -446.03320312 486.25876953 -445.046875 487.54296875 C-437.01723217 497.80850806 -427.99601945 507.08948558 -418.8125 516.3125 C-417.69029053 517.44171875 -417.69029053 517.44171875 -416.54541016 518.59375 C-409.48363175 525.63527623 -402.14081121 532.06847659 -394.125 538 C-393.42592529 538.51981445 -392.72685059 539.03962891 -392.0065918 539.57519531 C-365.76340467 559.02627794 -337.16711309 574.96110479 -306 585 C-305.15953125 585.2794043 -304.3190625 585.55880859 -303.453125 585.84667969 C-259.44132932 600.42717703 -211.81071579 604.17712988 -166 597 C-164.39970947 596.75056641 -164.39970947 596.75056641 -162.76708984 596.49609375 C-108.47021879 587.70044042 -55.12013533 563.84716283 -14.51171875 526.30078125 C-12.43663845 524.39996897 -10.33237451 522.55384716 -8.203125 520.71484375 C2.4516966 511.41348927 12.39264523 501.22375277 21 490 C22.01356488 488.71424583 23.02795096 487.42913876 24.04296875 486.14453125 C35.9376149 470.97638817 45.93165255 454.99301244 55 438 C55.60328125 436.88882812 56.2065625 435.77765625 56.828125 434.6328125 C92.10924999 367.20299884 97.32211491 285.04142502 74.86328125 212.78515625 C74.24644377 210.85540516 73.62543803 208.92698081 73 207 C72.70786621 206.09362793 72.41573242 205.18725586 72.11474609 204.25341797 C60.81412402 169.81491259 42.48946357 137.57631281 19 110 C18.12406706 108.93957202 17.24911695 107.87833166 16.375 106.81640625 C5.17261062 93.33165366 -7.10943284 80.72077204 -21 70 C-21.969375 69.20207031 -22.93875 68.40414062 -23.9375 67.58203125 C-56.7896217 40.6459253 -95.1716956 22.23073089 -136 11 C-136.72493652 10.79681152 -137.44987305 10.59362305 -138.19677734 10.38427734 C-156.73218099 5.27980964 -176.7818845 2.3487643 -196 2 C-197.56476074 1.9693042 -197.56476074 1.9693042 -199.16113281 1.93798828 C-242.96892859 1.21836524 -284.10133261 7.98483305 -325 24 Z " fill="#F0F0F0" transform="translate(611,99)"/>
<path d="M0 0 C10.12000404 8.2516956 17.11371595 20.43202162 18.78125 33.40625 C20.31205605 50.80177334 13.49792436 64.69654345 6.22058105 79.98747253 C2.50142461 87.80458133 -1.00095924 95.69624858 -4.40625 103.65625 C-9.44341649 115.40341686 -14.64088115 127.07218464 -19.90625 138.71875 C-25.77271826 151.69690681 -31.56781567 164.70293966 -37.27264404 177.75299072 C-39.50210335 182.84822892 -41.74234773 187.93873762 -43.98184204 193.02957153 C-45.77073455 197.09888983 -47.55268037 201.17097345 -49.31933594 205.25 C-50.97743722 209.07793129 -52.65355089 212.89747317 -54.34292603 216.71170044 C-54.95558265 218.10377217 -55.56166803 219.49875971 -56.1602478 220.89694214 C-59.94180976 229.71950087 -64.31611501 236.65099334 -71.21875 243.40625 C-71.73066895 243.95095947 -72.24258789 244.49566895 -72.77001953 245.05688477 C-76.46922079 248.66584703 -80.82112473 250.84846338 -85.41796875 253.1171875 C-86.12250183 253.46680542 -86.82703491 253.81642334 -87.55291748 254.17663574 C-95.26278696 257.96956453 -103.10322364 261.45127994 -110.96875 264.90625 C-112.53004736 265.59561925 -114.09115962 266.28540787 -115.65209961 266.97558594 C-118.8863405 268.40524676 -122.12135605 269.83313264 -125.35693359 271.25976562 C-132.41231237 274.37242754 -139.45742438 277.50816784 -146.50305176 280.64282227 C-150.27373078 282.32016124 -154.04510023 283.99594636 -157.81640625 285.671875 C-159.25928066 286.31314358 -160.70215183 286.95441945 -162.14501953 287.59570312 C-165.83496094 289.23567708 -169.52490234 290.87565104 -173.21484375 292.515625 C-174.29878418 292.99741211 -175.38272461 293.47919922 -176.49951172 293.97558594 C-178.64035481 294.92699959 -180.78130482 295.87817269 -182.92236328 296.82910156 C-188.49601518 299.30498517 -194.06802103 301.78448679 -199.63725281 304.27029419 C-209.48953533 308.66756676 -219.34908064 313.04813496 -229.21875 317.40625 C-229.91766357 317.71510132 -230.61657715 318.02395264 -231.33666992 318.34216309 C-235.85355806 320.3365675 -240.37778299 322.3132756 -244.90625 324.28125 C-246.58738892 325.02181641 -246.58738892 325.02181641 -248.30249023 325.77734375 C-262.53907975 331.91951834 -276.27710604 333.70812366 -291.21875 328.40625 C-304.35591163 322.77603787 -314.71005925 313.15390397 -320.27734375 299.8828125 C-322.39752145 293.77588916 -323.39992704 287.94504521 -323.53125 281.46875 C-323.58732422 279.69177734 -323.58732422 279.69177734 -323.64453125 277.87890625 C-323.04949814 266.50430736 -317.907875 255.86665404 -313.10992432 245.74014282 C-311.30543507 241.92864837 -309.53772436 238.10007047 -307.765625 234.2734375 C-307.39297516 233.47071915 -307.02032532 232.66800079 -306.63638306 231.84095764 C-302.40201926 222.69355807 -298.37262617 213.45800029 -294.34375 204.21875 C-288.02559479 189.74933987 -281.61011388 175.32805028 -275.10437012 160.94204712 C-270.80519531 151.43226208 -266.54490076 141.90760769 -262.3671875 132.34375 C-261.96574524 131.42529297 -261.56430298 130.50683594 -261.1506958 129.56054688 C-259.22938541 125.16164208 -257.31370037 120.76040055 -255.40625 116.35546875 C-252.06416427 108.66582808 -248.63735402 101.03929753 -244.90234375 93.53125 C-244.58079315 92.8830127 -244.25924255 92.23477539 -243.927948 91.56689453 C-235.41520853 74.72407683 -221.32189454 68.10242292 -204.78125 60.90625 C-203.00043004 60.11988885 -201.22016556 59.33226868 -199.44042969 58.54345703 C-195.80126554 56.93271161 -192.1591284 55.32901221 -188.51416016 53.73144531 C-183.62028212 51.58538357 -178.73586233 49.41871495 -173.85546875 47.2421875 C-172.3645088 46.57745861 -170.87354206 45.91274494 -169.38256836 45.24804688 C-168.65375458 44.92312256 -167.9249408 44.59819824 -167.17404175 44.26342773 C-163.47717262 42.61694148 -159.77766804 40.97640478 -156.078125 39.3359375 C-147.87361904 35.69748783 -139.67174591 32.05313891 -131.47058105 28.40716553 C-129.22564356 27.40931411 -126.98052591 26.41186914 -124.73535156 25.41455078 C-117.13343582 22.03745078 -109.53369115 18.65558331 -101.9375 15.265625 C-93.03876066 11.29547675 -84.1329069 7.34166073 -75.21875 3.40625 C-74.52944397 3.1016687 -73.84013794 2.7970874 -73.12994385 2.48327637 C-68.60331862 0.48463909 -64.06936609 -1.49634042 -59.53125 -3.46875 C-58.40976562 -3.9627832 -57.28828125 -4.45681641 -56.1328125 -4.96582031 C-36.65223538 -13.37026364 -17.60541836 -12.64614558 0 0 Z M-67.21875 74.40625 C-84.57147989 81.83913591 -101.83561646 89.44971418 -119.03686523 97.2265625 C-134.29741114 104.12385093 -149.6166061 110.88109026 -164.9699707 117.5690918 C-165.7987825 117.93102127 -166.6275943 118.29295074 -167.48152161 118.66584778 C-169.01439822 119.33516386 -170.54801325 120.00279289 -172.08256531 120.66825867 C-173.460402 121.27030414 -174.83400806 121.88214554 -176.20272827 122.50463867 C-177.57717915 123.11932475 -178.96798305 123.69839107 -180.37075806 124.24536133 C-185.19463301 126.28702158 -187.31359651 128.28473067 -189.40997314 133.08934021 C-189.70522888 133.83845169 -190.00048462 134.58756317 -190.3046875 135.359375 C-190.64377136 136.15461075 -190.98285522 136.9498465 -191.33221436 137.7691803 C-192.44354077 140.3887512 -193.51785819 143.02195255 -194.59375 145.65625 C-195.37308022 147.50674378 -196.1555229 149.35592955 -196.94091797 151.20385742 C-198.15826951 154.0695187 -199.37347152 156.93591067 -200.57901001 159.80656433 C-204.31051874 168.68975084 -208.24015183 177.47618649 -212.22329712 186.24884033 C-214.08299381 190.34832807 -215.92904734 194.45395704 -217.77734375 198.55859375 C-220.04086799 203.58120726 -222.30707835 208.60258597 -224.57861328 213.62158203 C-226.49954656 217.8671133 -228.41263671 222.11610152 -230.32049561 226.36752319 C-231.03982709 227.96665989 -231.76200188 229.56452086 -232.48712158 231.16104126 C-233.48171501 233.35158877 -234.46660765 235.54624485 -235.44921875 237.7421875 C-235.74715836 238.3922023 -236.04509796 239.0422171 -236.35206604 239.71192932 C-237.03475394 241.25128672 -237.63550798 242.82653081 -238.21875 244.40625 C-237.88875 245.06625 -237.55875 245.72625 -237.21875 246.40625 C-219.86602011 238.97336409 -202.60188354 231.36278582 -185.40063477 223.5859375 C-170.14008886 216.68864907 -154.8208939 209.93140974 -139.4675293 203.2434082 C-138.6387175 202.88147873 -137.8099057 202.51954926 -136.95597839 202.14665222 C-135.42310178 201.47733614 -133.88948675 200.80970711 -132.35493469 200.14424133 C-130.977098 199.54219586 -129.60349194 198.93035446 -128.23477173 198.30786133 C-126.86032085 197.69317525 -125.46951695 197.11410893 -124.06674194 196.56713867 C-119.24286699 194.52547842 -117.12390349 192.52776933 -115.02752686 187.72315979 C-114.73227112 186.97404831 -114.43701538 186.22493683 -114.1328125 185.453125 C-113.62418671 184.26027138 -113.62418671 184.26027138 -113.10528564 183.0433197 C-111.99395923 180.4237488 -110.91964181 177.79054745 -109.84375 175.15625 C-109.06441978 173.30575622 -108.2819771 171.45657045 -107.49658203 169.60864258 C-106.27923049 166.7429813 -105.06402848 163.87658933 -103.85848999 161.00593567 C-100.12698126 152.12274916 -96.19734817 143.33631351 -92.21420288 134.56365967 C-90.35450619 130.46417193 -88.50845266 126.35854296 -86.66015625 122.25390625 C-84.39663201 117.23129274 -82.13042165 112.20991403 -79.85888672 107.19091797 C-77.93795344 102.9453867 -76.02486329 98.69639848 -74.11700439 94.44497681 C-73.39767291 92.84584011 -72.67549812 91.24797914 -71.95037842 89.65145874 C-70.95578499 87.46091123 -69.97089235 85.26625515 -68.98828125 83.0703125 C-68.69034164 82.4202977 -68.39240204 81.7702829 -68.08543396 81.10057068 C-67.40274606 79.56121328 -66.80199202 77.98596919 -66.21875 76.40625 C-66.54875 75.74625 -66.87875 75.08625 -67.21875 74.40625 Z " fill="#F0F0F0" transform="translate(552.21875,239.59375)"/>
</svg>
