<?xml version="1.0" encoding="UTF-8"?>
<svg version="1.1" xmlns="http://www.w3.org/2000/svg" width="800" height="800">
<path d="M0 0 C3.53901979 2.81346853 6.79618582 5.81270032 10 9 C10.62648438 9.59167969 11.25296875 10.18335937 11.8984375 10.79296875 C23.49277977 22.675858 28.21247567 39.25382022 28.0625 55.390625 C28.05798828 56.31633301 28.05347656 57.24204102 28.04882812 58.19580078 C28.03712162 60.46393543 28.02072386 62.73193283 28 65 C29.92987007 64.98667633 29.92987007 64.98667633 31.89872742 64.9730835 C44.06488045 64.89175099 56.23097781 64.83191646 68.39734173 64.79275131 C74.65115947 64.77193875 80.90475651 64.74373699 87.15844727 64.69824219 C93.20148174 64.65455849 99.24430485 64.63081535 105.28748512 64.62049103 C107.58500301 64.61313998 109.88251025 64.5987858 112.17993736 64.57707977 C129.08395795 64.42382383 143.06501023 64.56000976 155.8984375 76.8125 C162.83594432 84.07200081 166.13090885 93.07659355 166.12025452 103.08100891 C166.12231651 104.58062416 166.12231651 104.58062416 166.12442017 106.11053467 C166.12082489 107.19594543 166.11722961 108.2813562 166.11352539 109.3996582 C166.11367142 110.55130966 166.11381744 111.70296112 166.1139679 112.88951111 C166.11327164 116.69328703 166.10549263 120.49701389 166.09765625 124.30078125 C166.09579105 126.93922397 166.09436763 129.57766704 166.09336853 132.21611023 C166.09026347 138.4491624 166.08206121 144.68219698 166.07201904 150.91524142 C166.06083227 158.01316425 166.05534099 165.11108794 166.05032361 172.2090174 C166.03987791 186.80602066 166.02229445 201.40301008 166 216 C164.78006348 216.01458252 163.56012695 216.02916504 162.30322266 216.04418945 C157.73685757 216.10256927 153.17096531 216.17979696 148.60498047 216.26245117 C146.63630908 216.29551505 144.66754711 216.32360345 142.69873047 216.34643555 C139.85345186 216.38032508 137.00898961 216.43265471 134.1640625 216.48828125 C132.86343369 216.49786613 132.86343369 216.49786613 131.53652954 216.50764465 C120.47557838 216.76825409 110.17149745 220.30051001 101.95703125 227.88671875 C94.18362985 236.32309682 91.63024998 244.52454045 91.796875 255.8828125 C92.46937037 266.20302997 97.25588392 274.67230172 104.83203125 281.69921875 C113.2864372 288.05433654 121.87721992 289.13376389 132.11328125 289.31640625 C133.56760811 289.3475779 133.56760811 289.3475779 135.05131531 289.37937927 C138.13830707 289.44458941 141.22538152 289.5036268 144.3125 289.5625 C146.40951364 289.60571237 148.50651903 289.64932752 150.60351562 289.69335938 C155.7355937 289.80099694 160.8677375 289.90028262 166 290 C166.33 302.21 166.66 314.42 167 327 C167.66 326.67 168.32 326.34 169 326 C171.1457624 327.0623289 173.14348214 328.17475988 175.1875 329.41015625 C175.80463867 329.77467392 176.42177734 330.13919159 177.05761719 330.51475525 C179.04296492 331.68985169 181.02145248 332.87599685 183 334.0625 C184.30295223 334.83601661 185.6063332 335.60881151 186.91015625 336.38085938 C188.19011707 337.14060327 189.47006511 337.90036868 190.75 338.66015625 C191.37793457 339.03177887 192.00586914 339.40340149 192.65283203 339.7862854 C195.45866617 341.45393074 198.22412121 343.14651517 200.95703125 344.93310547 C205.65981857 348.08254255 205.65981857 348.08254255 211.08203125 349.11328125 C215.02410454 347.60927738 218.86631371 345.97634762 222.6875 344.1875 C229.37420222 341.08025302 236.02899413 338.53491122 243 336 C246.96 320.82 250.92 305.64 255 290 C286.68 290 318.36 290 351 290 C354.96 305.18 358.92 320.36 363 336 C374.06864022 342.96363482 374.06864022 342.96363482 385.37792969 345.55224609 C388 346 388 346 391.3828125 347.70703125 C394.84079688 349.41537876 396.27639676 348.94868346 400 348 C402.5521544 346.68890848 404.94194039 345.35228844 407.375 343.8515625 C408.06255371 343.43836761 408.75010742 343.02517273 409.45849609 342.59945679 C411.64451856 341.28353205 413.82244071 339.95487345 416 338.625 C418.17902006 337.30484967 420.35964888 335.98742577 422.54150391 334.67196655 C423.8947303 333.85496048 425.24608394 333.0348415 426.59521484 332.21109009 C427.21605957 331.83415009 427.8369043 331.45721008 428.4765625 331.06884766 C429.01361816 330.74099274 429.55067383 330.41313782 430.10400391 330.0753479 C432.68036132 328.61412098 435.35080365 327.32459818 438 326 C460.11 348.11 482.22 370.22 505 393 C502.04050595 398.91898809 499.18768826 404.58846169 495.75 410.1875 C495.18563232 411.12517212 495.18563232 411.12517212 494.60986328 412.08178711 C492.58038583 415.44759611 490.50760993 418.77946834 488.3828125 422.0859375 C487.96290039 422.75214111 487.54298828 423.41834473 487.11035156 424.10473633 C486.30614018 425.37923654 485.48836749 426.64531214 484.65527344 427.90112305 C482.95956986 430.61131476 482.00245683 432.56206983 481.984375 435.78515625 C483.46205507 440.462582 485.38180231 444.89661279 487.375 449.375 C488.1762208 451.19454658 488.97572731 453.01484909 489.7734375 454.8359375 C490.12841309 455.63563965 490.48338867 456.4353418 490.84912109 457.25927734 C492.33518898 460.79822475 493.65228291 464.40608776 495 468 C510.18 471.96 525.36 475.92 541 480 C541 511.68 541 543.36 541 576 C525.82 579.96 510.64 583.92 495 588 C488.03636518 599.06864022 488.03636518 599.06864022 485.44775391 610.37792969 C485 613 485 613 483.29296875 616.3828125 C481.60624123 619.79703436 482.1067219 621.33253316 483 625 C484.35502648 627.84393065 484.35502648 627.84393065 486.1328125 630.6328125 C487.09574219 632.21449219 487.09574219 632.21449219 488.078125 633.828125 C488.75359375 634.91609375 489.4290625 636.0040625 490.125 637.125 C491.44083783 639.27298824 492.75594424 641.42142471 494.0703125 643.5703125 C495.04145996 645.15054199 495.04145996 645.15054199 496.03222656 646.76269531 C499.09398791 651.79978656 502.05238535 656.8953143 505 662 C501.09516632 666.67299695 497.03853642 671.10328418 492.71923828 675.39428711 C492.12339432 675.9902771 491.52755035 676.58626709 490.91365051 677.20031738 C488.96823528 679.14504295 487.01931586 681.0862148 485.0703125 683.02734375 C483.71103383 684.38475488 482.3519776 685.74238879 480.99313354 687.10023499 C477.43454553 690.65502433 473.87296355 694.20679893 470.31072998 697.75793457 C466.6688668 701.38952638 463.02987037 705.02398832 459.390625 708.65820312 C452.26320489 715.77493271 445.13261559 722.88847777 438 730 C436.41035727 729.21266299 434.82157582 728.42358692 433.2331543 727.63378906 C432.34830856 727.19456116 431.46346283 726.75533325 430.55180359 726.30279541 C427.20968773 724.59651471 424.00862085 722.71234899 420.8125 720.75 C420.18738525 720.37375488 419.56227051 719.99750977 418.91821289 719.60986328 C415.55240389 717.58038583 412.22053166 715.50760993 408.9140625 713.3828125 C408.24785889 712.96290039 407.58165527 712.54298828 406.89526367 712.11035156 C405.62076346 711.30614018 404.35468786 710.48836749 403.09887695 709.65527344 C400.38868524 707.95956986 398.43793017 707.00245683 395.21484375 706.984375 C390.537418 708.46205507 386.10338721 710.38180231 381.625 712.375 C379.80545342 713.1762208 377.98515091 713.97572731 376.1640625 714.7734375 C374.96450928 715.30590088 374.96450928 715.30590088 373.74072266 715.84912109 C370.20177525 717.33518898 366.59391224 718.65228291 363 720 C359.04 735.18 355.08 750.36 351 766 C319.32 766 287.64 766 255 766 C251.04 750.82 247.08 735.64 243 720 C231.93135978 713.03636518 231.93135978 713.03636518 220.62207031 710.44775391 C218 710 218 710 214.6171875 708.29296875 C211.19239773 706.60102037 209.62561812 706.89736356 206 708 C203.73148743 709.18008482 201.64486821 710.37949339 199.5 711.75 C198.1973994 712.55725735 196.8939565 713.36315654 195.58984375 714.16796875 C194.51452393 714.83578369 194.51452393 714.83578369 193.41748047 715.51708984 C188.67044554 718.42897534 183.86144616 721.23731395 179.0625 724.0625 C177.13663915 725.19908389 175.21085152 726.33579185 173.28515625 727.47265625 C171.8568135 728.31517651 170.42844538 729.15765376 169 730 C164.32700305 726.09516632 159.89671582 722.03853642 155.60571289 717.71923828 C155.0097229 717.12339432 154.41373291 716.52755035 153.79968262 715.91365051 C151.85495705 713.96823528 149.9137852 712.01931586 147.97265625 710.0703125 C146.61524512 708.71103383 145.25761121 707.3519776 143.89976501 705.99313354 C140.34497567 702.43454553 136.79320107 698.87296355 133.24206543 695.31072998 C129.61047362 691.6688668 125.97601168 688.02987037 122.34179688 684.390625 C115.22506729 677.26320489 108.11152223 670.13261559 101 663 C103.82494309 657.19773403 106.7400187 651.57528553 110.171875 646.109375 C110.92609092 644.89342119 111.67998831 643.67726976 112.43359375 642.4609375 C113.59715424 640.59351909 114.76374757 638.72816462 115.93603516 636.86621094 C117.08584783 635.03585795 118.2233 633.19827659 119.359375 631.359375 C120.03452148 630.28139648 120.70966797 629.20341797 121.40527344 628.09277344 C123.3221553 624.37521993 124.57211328 621.13368849 123.45849609 616.98046875 C123.14992676 616.38878906 122.84135742 615.79710937 122.5234375 615.1875 C122.18183594 614.50300781 121.84023438 613.81851563 121.48828125 613.11328125 C121.12089844 612.41589844 120.75351562 611.71851563 120.375 611 C116.48744314 603.47240864 113.90451865 596.13265221 111 588 C95.82 584.04 80.64 580.08 65 576 C65 544.32 65 512.64 65 480 C80.18 476.04 95.36 472.08 111 468 C113.64 461.4 116.28 454.8 119 448 C120.485 444.535 120.485 444.535 122 441 C82.73 441 43.46 441 3 441 C2.67 428.46 2.34 415.92 2 403 C0.01831463 391.10988779 -2.10926571 381.31985751 -12 374 C-22.80481677 367.73263909 -32.60579314 364.89080597 -45.0625 368 C-54.69912279 371.32083297 -62.45276217 377.90552434 -67 387 C-70.5960409 395.32916983 -71.1214336 403.91483485 -71.31640625 412.875 C-71.3475779 414.08990112 -71.3475779 414.08990112 -71.37937927 415.3293457 C-71.44413656 417.88615424 -71.50341194 420.44305481 -71.5625 423 C-71.60575566 424.74610281 -71.64937204 426.49219672 -71.69335938 428.23828125 C-71.79974083 432.49209609 -71.90121018 436.74600236 -72 441 C-88.8729906 441.09368428 -105.74589936 441.16409669 -122.61909103 441.20724869 C-130.45464554 441.2278227 -138.29003789 441.25584373 -146.12548828 441.30175781 C-152.95953368 441.34178459 -159.79346156 441.36747027 -166.62762094 441.37635398 C-170.24208654 441.38154213 -173.85621614 441.3936264 -177.47057343 441.42292023 C-181.51796502 441.45545381 -185.56478255 441.45594935 -189.61230469 441.45410156 C-190.79410812 441.46848267 -191.97591156 441.48286377 -193.19352722 441.49768066 C-205.85343926 441.43545719 -215.82120331 437.97242471 -224.90234375 429.15234375 C-231.69885941 421.92475945 -235.13075445 413.82446718 -235.12025452 403.88102722 C-235.12162918 402.87286957 -235.12300385 401.86471191 -235.12442017 400.82600403 C-235.12082489 399.73124252 -235.11722961 398.63648102 -235.11352539 397.50854492 C-235.11367142 396.34713989 -235.11381744 395.18573486 -235.1139679 393.98913574 C-235.11327161 390.15289437 -235.10549243 386.31670164 -235.09765625 382.48046875 C-235.09579106 379.81960467 -235.09431844 377.15874328 -235.09336853 374.49787903 C-235.09026339 368.21170298 -235.08206102 361.92554437 -235.07201904 355.63937598 C-235.06083253 348.48099479 -235.05534106 341.32261275 -235.05032361 334.16422498 C-235.03987772 319.44280775 -235.0222941 304.72140418 -235 290 C-233.71424072 289.98541748 -232.42848145 289.97083496 -231.10375977 289.95581055 C-226.30075262 289.89752431 -221.4981995 289.82029439 -216.69555664 289.73754883 C-214.62304086 289.70444155 -212.55043799 289.67636612 -210.4777832 289.65356445 C-207.48611589 289.61975624 -204.49523651 289.56742832 -201.50390625 289.51171875 C-200.12991417 289.50213387 -200.12991417 289.50213387 -198.72816467 289.49235535 C-188.8075843 289.26926728 -179.83260724 286.19556715 -172 280 C-164.04764462 271.42763047 -160.32425377 262.39707611 -160.71875 250.7265625 C-161.73504067 240.87418909 -165.96301269 232.54136457 -173.1875 225.75 C-182.067878 218.64965322 -191.68201322 216.88936692 -202.67578125 216.68359375 C-203.6009404 216.66281265 -204.52609955 216.64203156 -205.47929382 216.62062073 C-208.42362307 216.5554344 -211.36803865 216.49638442 -214.3125 216.4375 C-216.31315983 216.39428536 -218.31381106 216.35067014 -220.31445312 216.30664062 C-225.20954779 216.1997848 -230.10472897 216.09843081 -235 216 C-235.09368439 200.5439862 -235.16409682 185.08799382 -235.20724869 169.6317625 C-235.22782268 162.45419985 -235.25584357 155.27681422 -235.30175781 148.09936523 C-235.34178477 141.83921822 -235.36747029 135.5791995 -235.37635398 129.31892806 C-235.38154218 126.00795026 -235.39576573 122.69742217 -235.42292023 119.38654137 C-235.45210917 115.67894437 -235.45594936 111.97209837 -235.45410156 108.2644043 C-235.46848267 107.18186371 -235.48286377 106.09932312 -235.49768066 104.98397827 C-235.43549781 93.39456416 -231.70342943 83.99927177 -223.875 75.4375 C-214.8596321 66.71170495 -203.52243414 64.68189041 -191.453125 64.77294922 C-189.91518532 64.77251114 -189.91518532 64.77251114 -188.34617615 64.77206421 C-184.98069592 64.77344981 -181.61544122 64.78897477 -178.25 64.8046875 C-175.90730917 64.80842036 -173.56461678 64.81126605 -171.22192383 64.81326294 C-165.07346238 64.82087784 -158.92509629 64.84050794 -152.77667236 64.8626709 C-146.49565928 64.88317552 -140.2146307 64.89227452 -133.93359375 64.90234375 C-121.62235407 64.92375584 -109.31118498 64.95786589 -97 65 C-97.00883713 64.34155594 -97.01767426 63.68311188 -97.02677917 63.00471497 C-97.06210176 59.98884862 -97.0838876 56.97302599 -97.10546875 53.95703125 C-97.11960815 52.92130981 -97.13374756 51.88558838 -97.14831543 50.81848145 C-97.19134818 42.79367106 -96.26010878 36.40449544 -93 29 C-92.62617188 28.11441406 -92.25234375 27.22882812 -91.8671875 26.31640625 C-85.41054149 12.26999424 -73.76961299 -0.01870603 -59.16796875 -5.515625 C-39.44052993 -12.43372732 -17.67199274 -12.33756769 0 0 Z M-65.4609375 31.796875 C-71.6945538 40.7201227 -72.16451737 50.79632267 -72.09765625 61.3125 C-72.0962413 62.16682617 -72.09482635 63.02115234 -72.09336853 63.90136719 C-72.08781962 66.60094873 -72.07527697 69.30044399 -72.0625 72 C-72.05747839 73.84244671 -72.05291664 75.68489473 -72.04882812 77.52734375 C-72.03786699 82.01826186 -72.02063825 86.50911636 -72 91 C-72.98260315 90.99585193 -72.98260315 90.99585193 -73.98505688 90.99162006 C-89.92612669 90.92535996 -105.86714858 90.87571933 -121.80832195 90.84456348 C-129.51736586 90.82909618 -137.22631783 90.80800934 -144.93530273 90.77368164 C-151.65464887 90.74377502 -158.37392842 90.724424 -165.09333926 90.71773452 C-168.65106722 90.71382437 -172.2086047 90.70463803 -175.76627159 90.68280983 C-179.73834166 90.65863683 -183.71022557 90.65803083 -187.68237305 90.65942383 C-188.8612912 90.648638 -190.04020935 90.63785217 -191.25485229 90.6267395 C-192.33873734 90.63086349 -193.42262238 90.63498749 -194.53935242 90.63923645 C-195.47865947 90.63647107 -196.41796652 90.63370569 -197.38573742 90.63085651 C-201.83917609 91.25969842 -204.38390584 93.290997 -207.28411865 96.62857056 C-209.47855192 100.94027715 -209.53762165 104.18064674 -209.45410156 108.94287109 C-209.45468567 109.8215686 -209.45526978 110.70026611 -209.45587158 111.60559082 C-209.45309616 114.49528202 -209.42202993 117.38392763 -209.390625 120.2734375 C-209.38316068 122.28267859 -209.37746865 124.29192699 -209.37347412 126.30117798 C-209.35823287 131.5785141 -209.31896385 136.85540688 -209.2746582 142.13256836 C-209.23367306 147.52191166 -209.21545617 152.91132689 -209.1953125 158.30078125 C-209.15246831 168.86738183 -209.08423509 179.43365398 -209 190 C-207.85982422 190.05696045 -206.71964844 190.1139209 -205.54492188 190.17260742 C-204.01951858 190.25415783 -202.49412863 190.3359583 -200.96875 190.41796875 C-200.22077148 190.45466675 -199.47279297 190.49136475 -198.70214844 190.5291748 C-188.30526852 191.10145426 -178.24111052 193.02531459 -169 198 C-168.19046875 198.43183594 -167.3809375 198.86367187 -166.546875 199.30859375 C-151.74489453 207.68578822 -142.17586782 219.86865663 -137.02734375 236.05859375 C-132.53039481 253.14699972 -134.96207088 269.71599471 -143.3203125 285.2265625 C-152.19783363 299.88479507 -165.44272764 309.3317574 -181.9375 313.75 C-187.76948196 314.96602041 -193.49605682 315.33079247 -199.44140625 315.578125 C-200.36344849 315.62018066 -201.28549072 315.66223633 -202.23547363 315.70556641 C-204.49016596 315.80782003 -206.74495656 315.90586603 -209 316 C-209.09272133 327.63084971 -209.16377603 339.26161134 -209.20724869 350.89275551 C-209.22811448 356.29370818 -209.25641407 361.6944078 -209.30175781 367.09521484 C-209.34525098 372.30828714 -209.36914469 377.52111618 -209.37950897 382.73435593 C-209.38689407 384.72227177 -209.40131549 386.71017445 -209.42292023 388.6979866 C-209.45200018 391.48465898 -209.45595406 394.27032897 -209.45410156 397.05712891 C-209.46848267 397.87712372 -209.48286377 398.69711853 -209.49768066 399.54196167 C-209.45982288 404.81251438 -208.5803579 407.87971345 -205 412 C-200.51225009 415.91744184 -195.63080721 415.40509273 -189.97729492 415.34057617 C-188.97194702 415.34101425 -187.96659912 415.34145233 -186.93078613 415.34190369 C-183.61381488 415.33981672 -180.29735152 415.31648943 -176.98046875 415.29296875 C-174.67833228 415.28737248 -172.37619223 415.28310253 -170.0740509 415.28010559 C-164.01919668 415.2686593 -157.96455885 415.23919369 -151.90979004 415.20599365 C-145.72960334 415.1752883 -139.54938164 415.16159924 -133.36914062 415.14648438 C-121.24599875 415.11432401 -109.12301738 415.06313003 -97 415 C-96.98116257 414.37937683 -96.96232513 413.75875366 -96.94291687 413.11932373 C-96.85060618 410.26143139 -96.74375072 407.4042524 -96.63671875 404.546875 C-96.60735229 403.57089355 -96.57798584 402.59491211 -96.54772949 401.58935547 C-95.89690747 385.10186431 -89.79557715 372.33780246 -79 360 C-79 359.34 -79 358.68 -79 358 C-78.42378906 357.73832031 -77.84757813 357.47664063 -77.25390625 357.20703125 C-74.8599875 355.9250193 -73.01170197 354.43603288 -70.9375 352.6875 C-58.37492719 342.83008153 -42.7183425 339.58534917 -27 341 C-9.50810615 343.75795485 5.24739222 351.68080242 16 366 C26.82977892 381.39655316 27.14150338 396.11307425 28 415 C56.38 415 84.76 415 114 415 C110.04 408.07 110.04 408.07 106 401 C104.63952661 398.34707689 103.29015478 395.68782245 102 393 C102.47606689 392.61053696 102.95213379 392.22107391 103.44262695 391.81980896 C128.27661294 372.91464836 128.27661294 372.91464836 142.26483154 346.56941223 C143.21968599 336.31791049 142.03709875 326.05683486 140 316 C138.78908691 315.94013916 137.57817383 315.88027832 136.33056641 315.81860352 C134.71255611 315.73471103 133.0945553 315.65063552 131.4765625 315.56640625 C130.2846228 315.50821716 130.2846228 315.50821716 129.06860352 315.44885254 C112.00340904 314.54540107 95.71948503 309.84389271 83.2421875 297.59765625 C70.73035343 283.10223873 64.95996746 266.37648923 65.82519531 247.17871094 C67.1408953 230.78023796 75.00660699 217.08427284 87 206 C90.52074344 203.36189419 94.15014247 201.12265559 98 199 C98.68835938 198.60167969 99.37671875 198.20335937 100.0859375 197.79296875 C109.85309523 192.47086443 120.92542687 191.00353725 131.875 190.4375 C132.65875 190.39431641 133.4425 190.35113281 134.25 190.30664062 C136.16650649 190.20146649 138.08323333 190.10032075 140 190 C140.09272133 178.36915029 140.16377603 166.73838866 140.20724869 155.10724449 C140.22811448 149.70629182 140.25641407 144.3055922 140.30175781 138.90478516 C140.34525098 133.69171286 140.36914469 128.47888382 140.37950897 123.26564407 C140.38689407 121.27772823 140.40131549 119.28982555 140.42292023 117.3020134 C140.45200018 114.51534102 140.45595406 111.72967103 140.45410156 108.94287109 C140.47567322 107.71287888 140.47567322 107.71287888 140.49768066 106.45803833 C140.45982288 101.18748562 139.5803579 98.12028655 136 94 C132.39443713 91.42799289 129.94880285 90.62625475 125.53935242 90.63923645 C124.45546738 90.63511246 123.37158234 90.63098846 122.25485229 90.6267395 C121.07593414 90.63752533 119.89701599 90.64831116 118.68237305 90.65942383 C117.43318588 90.65898575 116.18399872 90.65854767 114.8969574 90.65809631 C111.47979277 90.65982605 108.06317444 90.67485263 104.64610648 90.69581819 C101.07201487 90.71459477 97.49791568 90.7163362 93.92378235 90.71989441 C87.15942914 90.72921201 80.3952217 90.75382186 73.63093263 90.78394288 C65.92844453 90.81749581 58.2259494 90.83397513 50.52340639 90.84902918 C34.68218656 90.88037173 18.84111209 90.9331266 3 91 C3.01047363 89.97229492 3.02094727 88.94458984 3.03173828 87.88574219 C3.06836 84.01663801 3.0910514 80.14754863 3.10986328 76.27832031 C3.11982596 74.61423147 3.13340102 72.95015969 3.15087891 71.28613281 C3.55632663 53.37699347 3.55632663 53.37699347 -1.875 36.5625 C-2.36742187 35.61503906 -2.85984375 34.66757812 -3.3671875 33.69140625 C-8.6382854 25.0029219 -16.44705377 18.92239264 -26.37109375 16.4375 C-42.38046031 13.77323692 -55.2134967 19.53737962 -65.4609375 31.796875 Z M276 316 C273.97953384 321.17966862 272.27846396 326.30614964 270.95703125 331.7109375 C270.78370773 332.40514801 270.61038422 333.09935852 270.43180847 333.81460571 C270.07086711 335.26435637 269.71218575 336.71467148 269.35571289 338.16552734 C268.80839403 340.39170069 268.25338511 342.61585429 267.69726562 344.83984375 C265.81459471 351.34901905 265.81459471 351.34901905 265 358 C264.38979004 358.10812012 263.77958008 358.21624023 263.15087891 358.32763672 C257.02966899 359.47309201 251.24198392 361.04696348 245.375 363.125 C244.51616211 363.42704346 243.65732422 363.72908691 242.77246094 364.0402832 C235.77407947 366.57438082 229.1588311 369.64090477 222.578125 373.10546875 C221.70704102 373.56252197 221.70704102 373.56252197 220.81835938 374.02880859 C219.51870773 374.72295659 218.22933032 375.43648061 216.94726562 376.16259766 C216.25826172 376.53819824 215.56925781 376.91379883 214.859375 377.30078125 C214.24030273 377.64923096 213.62123047 377.99768066 212.98339844 378.35668945 C209.34410235 379.53708645 206.67299288 378.33584389 203.35620117 376.68066406 C202.42783447 376.13120117 201.49946777 375.58173828 200.54296875 375.015625 C198.99706055 374.10683594 198.99706055 374.10683594 197.41992188 373.1796875 C196.35322266 372.54289062 195.28652344 371.90609375 194.1875 371.25 C193.13240234 370.62867188 192.07730469 370.00734375 190.99023438 369.3671875 C186.40254076 366.65744697 181.88839777 363.92663374 177.48828125 360.921875 C176.33714844 360.28765625 175.18601562 359.6534375 174 359 C170.72613231 360.08818239 168.64104879 362.11500017 166.24121094 364.53173828 C165.16054352 365.61263229 165.16054352 365.61263229 164.05804443 366.71536255 C163.29123352 367.49249603 162.52442261 368.26962952 161.734375 369.0703125 C160.54427826 370.26465408 160.54427826 370.26465408 159.33013916 371.48312378 C156.79869297 374.02575948 154.27429197 376.57526348 151.75 379.125 C150.03431383 380.85071753 148.31817338 382.57598355 146.6015625 384.30078125 C142.39575752 388.52863032 138.19571493 392.76213869 134 397 C135.61284412 401.16988797 137.60511418 404.95601131 139.87890625 408.796875 C140.25103745 409.43111389 140.62316864 410.06535278 141.00657654 410.71881104 C141.78912377 412.05097143 142.57333867 413.38215345 143.35913086 414.71240234 C144.56558306 416.75522038 145.76659485 418.80116107 146.96679688 420.84765625 C147.72885165 422.14341448 148.4912107 423.43899383 149.25390625 424.734375 C149.6143251 425.34786804 149.97474396 425.96136108 150.34608459 426.59344482 C151.9499305 429.46116525 151.9499305 429.46116525 154 432 C154.58745147 436.64169401 153.01411223 439.07131229 150.5625 442.9375 C142.8041412 455.78134694 133 474.70415554 133 490 C131.9790625 490.21914063 130.958125 490.43828125 129.90625 490.6640625 C116.8497162 493.51149806 103.98422616 496.75394346 91 500 C91 518.48 91 536.96 91 556 C100.838125 558.475 100.838125 558.475 110.875 561 C113.98010986 561.78310547 113.98010986 561.78310547 117.14794922 562.58203125 C118.7834818 562.99237427 120.41905822 563.40254259 122.0546875 563.8125 C123.33484741 564.13637695 123.33484741 564.13637695 124.64086914 564.46679688 C125.45273682 564.66982422 126.26460449 564.87285156 127.10107422 565.08203125 C128.16030594 565.34850464 128.16030594 565.34850464 129.24093628 565.62036133 C131.02590412 566.07032049 131.02590412 566.07032049 133 566 C133.10812012 566.61020996 133.21624023 567.22041992 133.32763672 567.84912109 C134.47308553 573.97029637 136.04678502 579.7580978 138.125 585.625 C138.42704346 586.48311279 138.72908691 587.34122559 139.0402832 588.2253418 C142.25204344 597.08947189 146.16460199 605.78927971 151.12744141 613.82568359 C153.36116385 617.46738756 154.425548 619.74573474 154 624 C153.02539062 626.19726562 153.02539062 626.19726562 151.65625 628.40625 C151.15496582 629.22673828 150.65368164 630.04722656 150.13720703 630.89257812 C149.59692871 631.75302734 149.05665039 632.61347656 148.5 633.5 C147.95843262 634.38623047 147.41686523 635.27246094 146.85888672 636.18554688 C144.41075401 640.18089945 141.92085777 644.14397697 139.3515625 648.0625 C138.97064453 648.65224609 138.58972656 649.24199219 138.19726562 649.84960938 C137.19059039 651.39904575 136.1624091 652.93444919 135.1328125 654.46875 C133.7006974 656.8780961 133.7006974 656.8780961 134.70846558 658.92327881 C136.11641877 661.18719542 137.64010089 662.88037991 139.53173828 664.75878906 C140.25233429 665.47923401 140.9729303 666.19967896 141.71536255 666.94195557 C142.49249603 667.70876648 143.26962952 668.47557739 144.0703125 669.265625 C144.86654022 670.05902283 145.66276794 670.85242065 146.48312378 671.66986084 C149.02575948 674.20130703 151.57526348 676.72570803 154.125 679.25 C155.85071753 680.96568617 157.57598355 682.68182662 159.30078125 684.3984375 C163.52863032 688.60424248 167.76213869 692.80428507 172 697 C175.71853787 695.55029537 179.07917882 693.90017053 182.52734375 691.8828125 C183.56697266 691.27566406 184.60660156 690.66851563 185.67773438 690.04296875 C187.29131836 689.09357422 187.29131836 689.09357422 188.9375 688.125 C190.00935547 687.49980469 191.08121094 686.87460937 192.18554688 686.23046875 C198.44206052 682.59193745 198.44206052 682.59193745 204.44140625 678.5546875 C207.38679007 676.76497336 208.62450874 676.36578503 212 677 C214.953125 678.50390625 214.953125 678.50390625 218.25 680.5625 C230.93861692 688.15640657 250.03625645 698 265 698 C265.13535156 698.69738281 265.27070312 699.39476562 265.41015625 700.11328125 C267.20575625 708.91924773 269.38128068 717.61116346 271.625 726.3125 C271.93832275 727.53557861 272.25164551 728.75865723 272.57446289 730.01879883 C272.87215576 731.16372803 273.16984863 732.30865723 273.4765625 733.48828125 C273.74549316 734.52509033 274.01442383 735.56189941 274.29150391 736.63012695 C274.77600668 738.93432012 274.77600668 738.93432012 276 740 C277.68801985 740.09353163 279.37995207 740.11744791 281.07055664 740.11352539 C282.15160172 740.11344986 283.23264679 740.11337433 284.34645081 740.11329651 C285.5224736 740.10813522 286.6984964 740.10297394 287.91015625 740.09765625 C289.10732773 740.0962413 290.30449921 740.09482635 291.53794861 740.09336853 C295.37949066 740.08774979 299.22097543 740.07519411 303.0625 740.0625 C305.65950437 740.05748741 308.25650965 740.05292409 310.85351562 740.04882812 C317.23569679 740.03777427 323.6178443 740.02101792 330 740 C332.02046616 734.82033138 333.72153604 729.69385036 335.04296875 724.2890625 C335.21629227 723.59485199 335.38961578 722.90064148 335.56819153 722.18539429 C335.92913289 720.73564363 336.28781425 719.28532852 336.64428711 717.83447266 C337.19160597 715.60829931 337.74661489 713.38414571 338.30273438 711.16015625 C340.18540529 704.65098095 340.18540529 704.65098095 341 698 C341.61020996 697.89187988 342.22041992 697.78375977 342.84912109 697.67236328 C348.97029637 696.52691447 354.7580978 694.95321498 360.625 692.875 C361.48311279 692.57295654 362.34122559 692.27091309 363.2253418 691.9597168 C372.08947189 688.74795656 380.78927971 684.83539801 388.82568359 679.87255859 C392.36577055 677.70116527 394.83035211 676.21607917 399 677 C401.62890625 678.328125 401.62890625 678.328125 404.5625 680.25 C405.69726217 680.97238332 406.83272968 681.69365937 407.96875 682.4140625 C408.5978125 682.81786133 409.226875 683.22166016 409.875 683.63769531 C414.0828662 686.33529336 418.31300883 688.99350307 422.5625 691.625 C423.43140869 692.18219727 424.30031738 692.73939453 425.19555664 693.31347656 C426.01918701 693.82104492 426.84281738 694.32861328 427.69140625 694.8515625 C428.79270874 695.54499756 428.79270874 695.54499756 429.91625977 696.25244141 C431.9746133 697.24737557 431.9746133 697.24737557 433.89530945 696.26745605 C436.19606368 694.88192939 437.86683377 693.37354064 439.75878906 691.46826172 C440.47923401 690.74766571 441.19967896 690.0270697 441.94195557 689.28463745 C442.70876648 688.50750397 443.47557739 687.73037048 444.265625 686.9296875 C445.05902283 686.13345978 445.85242065 685.33723206 446.66986084 684.51687622 C449.20130703 681.97424052 451.72570803 679.42473652 454.25 676.875 C455.96568617 675.14928247 457.68182662 673.42401645 459.3984375 671.69921875 C463.60424248 667.47136968 467.80428507 663.23786131 472 659 C470.38715588 654.83011203 468.39488582 651.04398869 466.12109375 647.203125 C465.74896255 646.56888611 465.37683136 645.93464722 464.99342346 645.28118896 C464.21087623 643.94902857 463.42666133 642.61784655 462.64086914 641.28759766 C461.43441694 639.24477962 460.23340515 637.19883893 459.03320312 635.15234375 C458.27114835 633.85658552 457.5087893 632.56100617 456.74609375 631.265625 C456.3856749 630.65213196 456.02525604 630.03863892 455.65391541 629.40655518 C454.0500695 626.53883475 454.0500695 626.53883475 452 624 C451.39731284 619.32080384 453.03650008 616.83646237 455.5 612.9375 C463.07746815 600.36907877 473 580.98565098 473 566 C474.53140625 565.67128906 474.53140625 565.67128906 476.09375 565.3359375 C489.1502838 562.48850194 502.01577384 559.24605654 515 556 C515 537.52 515 519.04 515 500 C508.44125 498.35 501.8825 496.7 495.125 495 C492.01989014 494.21689453 492.01989014 494.21689453 488.85205078 493.41796875 C487.2165182 493.00762573 485.58094178 492.59745741 483.9453125 492.1875 C482.66515259 491.86362305 482.66515259 491.86362305 481.35913086 491.53320312 C480.14132935 491.22866211 480.14132935 491.22866211 478.89892578 490.91796875 C477.83969406 490.65149536 477.83969406 490.65149536 476.75906372 490.37963867 C474.97409588 489.92967951 474.97409588 489.92967951 473 490 C472.89187988 489.38979004 472.78375977 488.77958008 472.67236328 488.15087891 C471.52691447 482.02970363 469.95321498 476.2419022 467.875 470.375 C467.57295654 469.51688721 467.27091309 468.65877441 466.9597168 467.7746582 C463.74795656 458.91052811 459.83539801 450.21072029 454.87255859 442.17431641 C452.63492689 438.52623905 451.46815931 436.26206923 452 432 C453.51293945 428.94140625 453.51293945 428.94140625 455.61328125 425.5625 C455.98349899 424.95994385 456.35371674 424.3573877 456.7351532 423.73657227 C457.91729813 421.81777874 459.1144878 419.90891789 460.3125 418 C461.10714435 416.71677973 461.90077508 415.43293118 462.69335938 414.1484375 C464.15563346 411.7811122 465.62472699 409.41859785 467.09887695 407.05859375 C467.72624756 406.04925781 468.35361816 405.03992188 469 404 C469.6189917 403.12472656 470.2379834 402.24945313 470.87573242 401.34765625 C471.24674072 400.57292969 471.61774902 399.79820312 472 399 C470.79664101 395.75516508 468.89985315 393.65579824 466.46826172 391.24121094 C465.74766571 390.52076599 465.0270697 389.80032104 464.28463745 389.05804443 C463.50750397 388.29123352 462.73037048 387.52442261 461.9296875 386.734375 C461.13345978 385.94097717 460.33723206 385.14757935 459.51687622 384.33013916 C456.97424052 381.79869297 454.42473652 379.27429197 451.875 376.75 C450.14928247 375.03431383 448.42401645 373.31817338 446.69921875 371.6015625 C442.47136968 367.39575752 438.23786131 363.19571493 434 359 C430.11386172 360.5119149 426.6098865 362.27482138 423 364.37109375 C421.865625 365.02787109 420.73125 365.68464844 419.5625 366.36132812 C418.37497505 367.0533426 417.18747526 367.74540027 416 368.4375 C414.81267268 369.12594893 413.62517417 369.81410273 412.4375 370.50195312 C406.30830359 374.03669426 406.30830359 374.03669426 400.27099609 377.72387695 C398 379 398 379 395.6640625 378.921875 C392.06764601 377.67736724 388.74170253 376.0040736 385.375 374.25 C383.9328861 373.51705839 382.49017651 372.7852877 381.046875 372.0546875 C380.34884766 371.69987305 379.65082031 371.34505859 378.93164062 370.97949219 C371.70894792 367.31702465 364.41330396 364.34780892 356.75 361.75 C355.99283691 361.49138184 355.23567383 361.23276367 354.45556641 360.96630859 C349.9631818 359.48596467 345.70247987 358.52249776 341 358 C340.79697266 356.95392578 340.79697266 356.95392578 340.58984375 355.88671875 C338.79424375 347.08075227 336.61871932 338.38883654 334.375 329.6875 C333.90501587 327.85288208 333.90501587 327.85288208 333.42553711 325.98120117 C332.9789978 324.26380737 332.9789978 324.26380737 332.5234375 322.51171875 C332.25450684 321.47490967 331.98557617 320.43810059 331.70849609 319.36987305 C331.22399332 317.06567988 331.22399332 317.06567988 330 316 C328.31198015 315.90646837 326.62004793 315.88255209 324.92944336 315.88647461 C323.84839828 315.88655014 322.76735321 315.88662567 321.65354919 315.88670349 C320.4775264 315.89186478 319.3015036 315.89702606 318.08984375 315.90234375 C316.89267227 315.9037587 315.69550079 315.90517365 314.46205139 315.90663147 C310.62050934 315.91225021 306.77902457 315.92480589 302.9375 315.9375 C300.34049563 315.94251259 297.74349035 315.94707591 295.14648438 315.95117188 C288.76430321 315.96222573 282.3821557 315.97898208 276 316 Z " fill="#FEFEFE" transform="translate(247,22)"/>
<path d="M0 0 C1.14726563 0.20496094 2.29453125 0.40992188 3.4765625 0.62109375 C18.92749963 3.76995562 33.43864395 10.08789029 47 18 C47.95003906 18.54140625 48.90007812 19.0828125 49.87890625 19.640625 C82.67653556 39.30965452 106.504972 73.85483365 116.38623047 110.42626953 C118.23219511 118.16698521 119.14692769 126.09773294 120 134 C120.0942627 134.87084229 120.18852539 135.74168457 120.28564453 136.63891602 C123.28334807 165.40131841 116.42060983 193.64227632 103 219 C102.5361792 219.90153809 102.5361792 219.90153809 102.06298828 220.82128906 C84.34801906 255.13985032 51.3891727 280.27437853 15.13134766 292.34326172 C8.53227049 294.37665434 1.78532217 295.75384349 -5 297 C-6.84851563 297.3403125 -6.84851563 297.3403125 -8.734375 297.6875 C-47.25287183 303.74280955 -86.26384772 293.25127521 -118.09765625 271.1953125 C-151.52966753 245.90757315 -173.81827937 210.63763149 -179.98217773 168.98217773 C-184.98264541 130.8063192 -176.42503307 92.56115765 -154 61 C-152.69166332 59.31363981 -151.35666006 57.64773452 -150 56 C-149.5771875 55.48002441 -149.154375 54.96004883 -148.71875 54.42431641 C-145.55580491 50.54588977 -142.30842751 46.75511432 -139 43 C-138.37867188 42.29230469 -137.75734375 41.58460938 -137.1171875 40.85546875 C-125.56870314 28.55607397 -110.92092879 19.57721068 -96 12 C-95.02804687 11.49984375 -94.05609375 10.9996875 -93.0546875 10.484375 C-90.40371836 9.2034786 -87.73953983 8.07887792 -85 7 C-84.41476562 6.7632959 -83.82953125 6.5265918 -83.2265625 6.28271484 C-56.58762832 -4.27523623 -27.8656003 -5.20366603 0 0 Z M-104 48 C-105.05574219 48.74636719 -105.05574219 48.74636719 -106.1328125 49.5078125 C-116.91584733 57.42598199 -127.10271242 67.5100078 -134 79 C-134.34337402 79.55848633 -134.68674805 80.11697266 -135.04052734 80.69238281 C-152.52569455 109.33201138 -159.29501195 142.01153935 -151.83691406 175.20751953 C-146.03889177 198.4729395 -135.48278429 217.51912323 -119 235 C-118.33742188 235.73863281 -117.67484375 236.47726562 -116.9921875 237.23828125 C-103.44244133 251.74114645 -83.90876969 262.43043576 -65 268 C-64.35772461 268.19609863 -63.71544922 268.39219727 -63.05371094 268.59423828 C-36.06736185 276.53178156 -5.36840209 273.62718429 20 262 C20.60714844 261.7225293 21.21429687 261.44505859 21.83984375 261.15917969 C29.76093484 257.49588439 37.07973992 253.33529729 44 248 C44.88171875 247.32195312 45.7634375 246.64390625 46.671875 245.9453125 C56.95578925 237.78209243 65.83758672 229.02467664 73 218 C73.49886719 217.319375 73.99773437 216.63875 74.51171875 215.9375 C79.20707682 209.43054709 82.21242562 202.24588223 85.23779297 194.85839844 C85.87364815 193.30806863 86.53002336 191.76617512 87.19140625 190.2265625 C99.38017427 159.92193926 95.55869159 126.12982153 83.48535156 96.58007812 C80.16158303 88.78563342 76.0561076 81.82281701 71 75 C70.37351562 74.15050781 69.74703125 73.30101562 69.1015625 72.42578125 C51.22165705 49.18190416 25.57325447 32.58902371 -3 26 C-3.76554199 25.82339844 -4.53108398 25.64679688 -5.31982422 25.46484375 C-13.35865827 23.79288569 -21.3118713 23.60013069 -29.5 23.625 C-30.20554016 23.62587616 -30.91108032 23.62675232 -31.63800049 23.62765503 C-58.55626358 23.737698 -82.29558111 31.98854344 -104 48 Z " fill="#FEFEFE" transform="translate(580,402)"/>
<path d="M0 0 C20.79431766 16.7460816 34.80797134 40.17420931 38.35546875 66.76953125 C40.37787033 94.44473528 34.51681063 116.77154772 19.35546875 139.76953125 C15.97547187 139.1564926 13.94091035 137.93089856 11.24609375 135.828125 C10.49199219 135.24482422 9.73789062 134.66152344 8.9609375 134.06054688 C8.18363281 133.44888672 7.40632812 132.83722656 6.60546875 132.20703125 C5.81269531 131.59150391 5.01992188 130.97597656 4.203125 130.34179688 C2.249301 128.82346377 0.30037595 127.29925849 -1.64453125 125.76953125 C-0.85903592 122.32028132 0.39702009 119.72015348 2.16796875 116.64453125 C12.21521662 98.54984744 14.88926431 79.08096866 9.31640625 59.03125 C2.60012714 39.20739391 -9.43306099 23.22301683 -28.29467773 13.73779297 C-47.0559482 4.85175781 -66.42675754 3.85808622 -86.26953125 9.89453125 C-105.91612103 16.91556961 -120.43565465 30.80914538 -129.328125 49.5390625 C-137.76212391 70.23614588 -137.10620445 91.35369369 -128.64453125 111.76953125 C-119.93639581 129.50649835 -105.00727073 142.89176741 -86.45703125 149.64453125 C-68.50830705 155.09754221 -47.81883554 155.78306222 -30.78515625 146.78759766 C-28.25894836 145.35184383 -25.75951808 143.89086955 -23.31225586 142.32373047 C-21.03364659 140.90271958 -19.24451449 139.7949449 -16.5234375 139.6796875 C-13.59713242 141.37706612 -12.09426878 143.78188608 -10.14453125 146.51953125 C-6.86921701 151.08546537 -6.86921701 151.08546537 -3.36328125 155.47265625 C-1.64453125 157.76953125 -1.64453125 157.76953125 -1.64453125 160.76953125 C-23.17952094 177.73202313 -50.39956732 181.97543781 -77.01123047 179.55419922 C-101.67898586 176.48311321 -125.1816675 162.20718722 -140.51953125 142.89453125 C-158.20825132 119.61486087 -164.46697675 93.09802878 -161.35595703 64.07763672 C-157.4838608 38.13719066 -141.93116512 13.77855614 -121.13671875 -1.96875 C-85.20115787 -27.74850416 -35.03984274 -26.90414344 0 0 Z " fill="#FEFEFE" transform="translate(611.64453125,470.23046875)"/>
<path d="M0 0 C8.58 0 17.16 0 26 0 C26 8.25 26 16.5 26 25 C34.25 25 42.5 25 51 25 C51 33.58 51 42.16 51 51 C42.75 51 34.5 51 26 51 C26 59.25 26 67.5 26 76 C17.42 76 8.84 76 0 76 C0 67.75 0 59.5 0 51 C-8.25 51 -16.5 51 -25 51 C-25 42.42 -25 33.84 -25 25 C-16.75 25 -8.5 25 0 25 C0 16.75 0 8.5 0 0 Z M1 26 C1 33.92 1 41.84 1 50 C8.92 50 16.84 50 25 50 C25 42.08 25 34.16 25 26 C17.08 26 9.16 26 1 26 Z " fill="#FEFEFE" transform="translate(462,37)"/>
<path d="M0 0 C8.25 0 16.5 0 25 0 C25 8.25 25 16.5 25 25 C33.25 25 41.5 25 50 25 C50 33.58 50 42.16 50 51 C41.75 51 33.5 51 25 51 C25 59.25 25 67.5 25 76 C16.75 76 8.5 76 0 76 C0 67.75 0 59.5 0 51 C-8.25 51 -16.5 51 -25 51 C-25 42.42 -25 33.84 -25 25 C-16.75 25 -8.5 25 0 25 C0 16.75 0 8.5 0 0 Z M0 26 C0 33.92 0 41.84 0 50 C8.25 50 16.5 50 25 50 C25 42.08 25 34.16 25 26 C16.75 26 8.5 26 0 26 Z " fill="#FFFEFE" transform="translate(225,587)"/>
<path d="M0 0 C8.25 0 16.5 0 25 0 C25 8.25 25 16.5 25 25 C33.25 25 41.5 25 50 25 C50 33.58 50 42.16 50 51 C41.75 51 33.5 51 25 51 C25 59.25 25 67.5 25 76 C16.75 76 8.5 76 0 76 C0 67.75 0 59.5 0 51 C-8.25 51 -16.5 51 -25 51 C-25 42.42 -25 33.84 -25 25 C-16.75 25 -8.5 25 0 25 C0 16.75 0 8.5 0 0 Z M0 26 C0 33.92 0 41.84 0 50 C8.25 50 16.5 50 25 50 C25 42.08 25 34.16 25 26 C16.75 26 8.5 26 0 26 Z " fill="#FFFEFE" transform="translate(100,512)"/>
<path d="M0 0 C8.25 0 16.5 0 25 0 C25 8.25 25 16.5 25 25 C33.25 25 41.5 25 50 25 C50 33.58 50 42.16 50 51 C41.75 51 33.5 51 25 51 C25 59.25 25 67.5 25 76 C16.75 76 8.5 76 0 76 C0 67.75 0 59.5 0 51 C-8.25 51 -16.5 51 -25 51 C-25 42.42 -25 33.84 -25 25 C-16.75 25 -8.5 25 0 25 C0 16.75 0 8.5 0 0 Z M0 26 C0 33.92 0 41.84 0 50 C8.25 50 16.5 50 25 50 C25 42.08 25 34.16 25 26 C16.75 26 8.5 26 0 26 Z " fill="#FEFEFF" transform="translate(700,237)"/>
<path d="M0 0 C8.25 0 16.5 0 25 0 C25 8.25 25 16.5 25 25 C33.25 25 41.5 25 50 25 C50 33.58 50 42.16 50 51 C41.75 51 33.5 51 25 51 C25 59.25 25 67.5 25 76 C16.75 76 8.5 76 0 76 C0 67.75 0 59.5 0 51 C-8.25 51 -16.5 51 -25 51 C-25 42.42 -25 33.84 -25 25 C-16.75 25 -8.5 25 0 25 C0 16.75 0 8.5 0 0 Z M0 26 C0 33.92 0 41.84 0 50 C8.25 50 16.5 50 25 50 C25 42.08 25 34.16 25 26 C16.75 26 8.5 26 0 26 Z " fill="#FFFFFE" transform="translate(525,187)"/>
<path d="M0 0 C8.25 0 16.5 0 25 0 C25 8.25 25 16.5 25 25 C33.25 25 41.5 25 50 25 C50 33.58 50 42.16 50 51 C41.75 51 33.5 51 25 51 C25 59.25 25 67.5 25 76 C16.75 76 8.5 76 0 76 C0 67.75 0 59.5 0 51 C-8.25 51 -16.5 51 -25 51 C-25 42.42 -25 33.84 -25 25 C-16.75 25 -8.5 25 0 25 C0 16.75 0 8.5 0 0 Z M0 26 C0 33.92 0 41.84 0 50 C8.25 50 16.5 50 25 50 C25 42.08 25 34.16 25 26 C16.75 26 8.5 26 0 26 Z " fill="#FFFEFF" transform="translate(650,87)"/>
</svg>
